<svg xmlns="http://www.w3.org/2000/svg" width="256" height="149" viewBox="0 0 256 149" fill="none"
>
    <path
        d="M106.508 51.224a6.03 6.03 0 0 1-4.251 1.768 5.98 5.98 0 0 1-5.994-5.994c.003-1.593.639-3.122 1.768-4.251a44.31 44.31 0 0 1 21.703-11.913 44.04 44.04 0 0 1 24.653 1.612 43.82 43.82 0 0 1 19.855 14.63c5.08 6.676 8.138 14.674 8.815 23.05l3.314-3.314c1.129-1.129 2.658-1.765 4.251-1.768a5.98 5.98 0 0 1 4.244 1.75c1.124 1.124 1.753 2.651 1.75 4.244s-.64 3.122-1.768 4.251l-13.421 13.42a6 6 0 0 1-4.23 1.76 5.95 5.95 0 0 1-4.222-1.742l-14.06-11.656c-.602-.502-1.099-1.118-1.462-1.813s-.585-1.456-.654-2.238.017-1.571.252-2.322.617-1.448 1.122-2.052a6.02 6.02 0 0 1 1.819-1.47c.697-.366 1.458-.592 2.241-.664a5.97 5.97 0 0 1 2.32.243 5.94 5.94 0 0 1 2.047 1.113l4.604 3.831a32 32 0 0 0-6.23-16.994 31.94 31.94 0 0 0-14.452-10.877 32.1 32.1 0 0 0-18.074-1.298c-6.031 1.311-11.565 4.33-15.941 8.694zm1.627 22.38c1.22 1.017 1.983 2.479 2.123 4.064a6.02 6.02 0 0 1-1.38 4.387 6.03 6.03 0 0 1-4.073 2.14 5.98 5.98 0 0 1-4.381-1.361l-5.796-4.832c.293 6.209 2.383 12.192 6.017 17.221a31.9 31.9 0 0 0 14.454 11.107c5.799 2.219 12.124 2.704 18.207 1.394s11.663-4.357 16.06-8.771c1.129-1.129 2.658-1.765 4.251-1.768a5.98 5.98 0 0 1 5.994 5.994 6.03 6.03 0 0 1-1.768 4.251 44.31 44.31 0 0 1-21.384 11.853 44.04 44.04 0 0 1-24.364-1.313 43.82 43.82 0 0 1-19.876-14.078c-5.16-6.475-8.382-14.283-9.294-22.526l-2.213 2.213c-1.129 1.129-2.658 1.765-4.251 1.768a5.98 5.98 0 0 1-5.994-5.994c.003-1.593.639-3.122 1.768-4.251l13.257-13.256c1.057-1.065 2.473-1.697 3.969-1.769s2.962.419 4.109 1.377l14.56 12.125.005.026z"
        fill="#dc275b" />
    <path d="M177 27L80 124" stroke="#dc275b" stroke-width="11" stroke-linecap="round" />
</svg>