<svg xmlns="http://www.w3.org/2000/svg" width="256" height="149" viewBox="0 0 256 149" fill="none"
>
    <path
        d="M106.508 51.224a6.03 6.03 0 0 1-4.251 1.768 5.98 5.98 0 0 1-5.994-5.994c.003-1.593.639-3.122 1.768-4.251a44.31 44.31 0 0 1 21.703-11.913 44.04 44.04 0 0 1 24.653 1.612 43.82 43.82 0 0 1 19.855 14.63c5.08 6.676 8.138 14.674 8.815 23.05l3.314-3.314c1.129-1.129 2.658-1.765 4.251-1.768a5.98 5.98 0 0 1 4.244 1.75c1.124 1.124 1.753 2.651 1.75 4.244s-.64 3.122-1.768 4.251l-13.421 13.42a6 6 0 0 1-4.23 1.76 5.95 5.95 0 0 1-4.222-1.742l-14.06-11.656c-.602-.502-1.099-1.118-1.462-1.813s-.585-1.456-.654-2.238.017-1.571.252-2.322.617-1.448 1.122-2.052a6.02 6.02 0 0 1 1.819-1.47c.697-.366 1.458-.592 2.241-.664a5.97 5.97 0 0 1 2.32.243 5.94 5.94 0 0 1 2.047 1.113l4.604 3.831a32 32 0 0 0-6.23-16.994 31.94 31.94 0 0 0-14.452-10.877 32.1 32.1 0 0 0-18.074-1.298c-6.031 1.311-11.565 4.33-15.941 8.694zm1.627 22.38c1.22 1.017 1.983 2.479 2.123 4.064a6.02 6.02 0 0 1-1.38 4.387 6.03 6.03 0 0 1-4.073 2.14 5.98 5.98 0 0 1-4.381-1.361l-5.796-4.832c.293 6.209 2.383 12.192 6.017 17.221a31.9 31.9 0 0 0 14.454 11.107c5.799 2.219 12.124 2.704 18.207 1.394s11.663-4.357 16.06-8.771c1.129-1.129 2.658-1.765 4.251-1.768a5.98 5.98 0 0 1 5.994 5.994 6.03 6.03 0 0 1-1.768 4.251 44.31 44.31 0 0 1-21.384 11.853 44.04 44.04 0 0 1-24.364-1.313 43.82 43.82 0 0 1-19.876-14.078c-5.16-6.475-8.382-14.283-9.294-22.526l-2.213 2.213c-1.129 1.129-2.658 1.765-4.251 1.768a5.98 5.98 0 0 1-5.994-5.994c.003-1.593.639-3.122 1.768-4.251l13.257-13.256c1.057-1.065 2.473-1.697 3.969-1.769s2.962.419 4.109 1.377l14.56 12.125.005.026z"
        fill="#00d100" />
    <path fill-rule="evenodd"
        d="M210.371.815a7.87 7.87 0 0 0-10.542 3.58c-1.923 3.901-.324 8.628 3.577 10.552 12.789 6.312 22.762 16.809 29.089 29.195 4.726 9.244 7.42 19.532 7.743 29.918.321 10.284-1.696 20.654-6.384 30.174-5.815 11.792-15.779 22.341-30.542 29.899a7.87 7.87 0 0 0-3.421 10.581 7.86 7.86 0 0 0 10.573 3.425c18.031-9.231 30.281-22.274 37.506-36.937 5.866-11.903 8.389-24.835 7.989-37.637-.397-12.695-3.692-25.275-9.469-36.58-7.823-15.308-20.202-28.309-36.119-36.168zm-7.991 34.669a6.55 6.55 0 0 0-9.145 1.49c-2.114 2.938-1.448 7.036 1.489 9.153 1.183.853 2.344 1.81 3.483 2.857 6.649 6.135 10.592 14.316 11.42 22.972.837 8.734-1.486 17.988-7.381 26.175-1 1.391-2.153 2.8-3.457 4.217a6.57 6.57 0 0 0 .383 9.28c2.668 2.455 6.821 2.282 9.274-.384 1.578-1.713 3.058-3.536 4.434-5.452 7.841-10.895 10.923-23.293 9.794-35.07a48.95 48.95 0 0 0-15.58-31.402c-1.426-1.316-2.998-2.596-4.714-3.835z"
        fill="#ceeae7" />
    <path fill-rule="evenodd"
        d="M45.629.815a7.87 7.87 0 0 1 10.542 3.58c1.923 3.901.324 8.628-3.577 10.552-12.789 6.312-22.762 16.809-29.089 29.195-4.726 9.244-7.42 19.532-7.743 29.918-.321 10.284 1.696 20.654 6.384 30.174 5.814 11.792 15.778 22.341 30.542 29.899a7.87 7.87 0 0 1 3.422 10.581 7.86 7.86 0 0 1-10.574 3.425C27.505 138.906 15.255 125.863 8.03 111.2 2.164 99.297-.359 86.365.041 73.563.438 60.868 3.733 48.288 9.51 36.983 17.334 21.674 29.712 8.674 45.629.815zm7.991 34.669a6.55 6.55 0 0 1 9.145 1.49c2.113 2.938 1.447 7.036-1.489 9.153-1.184.853-2.345 1.81-3.483 2.857-6.649 6.135-10.593 14.316-11.42 22.972-.837 8.734 1.486 17.988 7.381 26.175 1.001 1.391 2.154 2.8 3.458 4.217a6.57 6.57 0 0 1-.384 9.28c-2.667 2.455-6.82 2.282-9.274-.384-1.578-1.713-3.058-3.536-4.434-5.452-7.841-10.895-10.923-23.293-9.794-35.07a48.95 48.95 0 0 1 15.58-31.402c1.426-1.316 2.998-2.596 4.714-3.835z"
        fill="#ceeae7" />
</svg>