<svg width="147" height="208" viewBox="0 0 147 208" fill="none" xmlns="http://www.w3.org/2000/svg">
    <path
        d="M120.366 124.098c2.49 5.301 3.806 10.972 3.873 16.707v.462 56.893H22.481v-56.893-.462c.067-5.735 1.383-11.406 3.873-16.707 2.557-5.444 6.305-10.39 11.029-14.556s10.334-7.471 16.506-9.726S66.678 96.4 73.36 96.4s13.298 1.16 19.471 3.415 11.781 5.559 16.506 9.725 8.472 9.113 11.029 14.557z"
        fill="#dc275b" />
    <rect x="10.96" y="187.6" width="122.88" height="14.4" rx="7.2" fill="#eaebec" />
    <path
        d="M10 62.953c5.614-29.894 31.21-51.907 60.874-52.917 31.199-1.049 59.273 21.427 65.239 52.917M31.12 69.857c3.75-19.451 20.864-33.779 40.685-34.426 20.859-.681 39.62 13.954 43.593 34.426"
        stroke="#dc275b" stroke-width="8" stroke-miterlimit="10" stroke-linecap="round" />
</svg>