<svg width="288" height="250" fill="none"
  xmlns="http://www.w3.org/2000/svg"
>
  <path
    d="M204.811 248.507h4.625l1.251-12.203h-7.126l1.25 12.203zm-180.258 0h4.625l1.251-12.203h-7.126l1.251 12.203z"
    fill="#3b314a" />
  <path
    d="M118.296 196.847H18.965v-28.23c0-3.655 1.455-7.16 4.044-9.744a13.82 13.82 0 0 1 9.763-4.037h71.727a13.82 13.82 0 0 1 9.763 4.037c2.589 2.584 4.043 6.089 4.043 9.744v28.23h-.009z"
    fill="#b9efef" />
  <path
    d="M213.664 205.68H28.565v-34.896c0-2.099.414-4.176 1.218-6.115s1.983-3.699 3.47-5.183 3.251-2.66 5.193-3.463a16.03 16.03 0 0 1 6.125-1.217h153.086a16.02 16.02 0 0 1 11.318 4.68 15.96 15.96 0 0 1 4.689 11.298v34.896z"
    fill="#c1e5e0" />
  <g fill="#b9efef">
    <path d="M19.004 202.998l200.71-.004.013 35.156H19.004v-35.152z" />
    <path
      d="M214.041 224.378h12.296c3.959 0 7.169-3.204 7.169-7.156v-39.336c0-3.952-3.21-7.156-7.169-7.156h-12.296c-3.959 0-7.169 3.204-7.169 7.156v39.336c0 3.952 3.21 7.156 7.169 7.156zm-199.917-.154H26.44c3.954 0 7.16-3.2 7.16-7.147v-39.201c0-3.947-3.205-7.146-7.16-7.146H14.124c-3.954 0-7.16 3.199-7.16 7.146v39.201c0 3.947 3.205 7.147 7.16 7.147z" />
    <path
      d="M19.394 224.217h199.709c4.096 0 7.416-3.315 7.416-7.403v-7.198a7.41 7.41 0 0 0-7.416-7.403H19.394a7.41 7.41 0 0 0-7.416 7.403v7.198c0 4.088 3.32 7.403 7.416 7.403z" />
  </g>
  <path
    d="M0 249.188c0-.216.086-.422.238-.575s.36-.238.576-.238h286.214c.537 0 .972.371.972.813s-.435.812-.972.812H.814a.81.81 0 0 1-.311-.062c-.099-.041-.188-.1-.264-.176a.81.81 0 0 1-.176-.263c-.041-.099-.062-.205-.062-.311z"
    fill="#c1c1c1" />
  <g fill="#3b314a">
    <path d="M249.488 131.907h-2.148V245.55h2.148V131.907z" />
    <path
      d="M232.463 246.873c7.619 0 13.805-2.226 13.805-4.98a2.26 2.26 0 0 0-.602-1.458l.065-.032h5.549.018a2.27 2.27 0 0 0-.622 1.484c0 3.524 8.654 5.008 13.981 4.978v1.08h-32.532v-1.072h.338zm22.717-114.081h-15.038c-.345 0-.676-.137-.92-.38a1.3 1.3 0 0 1-.381-.918v-2.951h17.625v2.964c-.003.339-.14.664-.38.904s-.566.377-.906.381z" />
  </g>
  <path
    d="M226.331 126.126c0 .686 2.602 1.298 6.768 1.745 13.961 1.469 37.361.395 37.361-1.745 0-.085-14.416-29.693-14.416-29.693h-15.297l-14.416 29.693z"
    fill="#e8aaa7" />
  <g fill="#767277">
    <path
      d="M47.719 143.978s3.399-.091 6.522-3.576 10.566-5.41 16.627-5.043 12.127 4.585 14.148 9.445 2.02 10.316 2.02 10.316H36.308c-.139 0-.276-.033-.4-.096s-.23-.156-.311-.269-.133-.244-.152-.382-.006-.278.041-.409c.268-.729.929-1.504 2.551-1.335 2.947.304 9.683-8.651 9.683-8.651z" />
    <path
      d="M76.745 145.201s-4.41-5.594-8.513-5.227-4.712 7.853-2.109 10.515c2.542 2.596 2.973 2.109 2.973 2.109s-4.105 0-5.452.612a1.55 1.55 0 0 0-.909 1.91l19.772-.017s-1.838-5.501-5.762-9.902z" />
  </g>
  <path
    d="M48.592 150.168l2.802-2.03s2.066.431 4.909 2.03 3.031 2.155 3.261 3.438-.03 1.514-.03 1.514h-4.564l-6.379-4.952z"
    fill="#5e5d5e" />
  <path
    d="M52.558 148.593l5.45 3.24c1.409 1.039.671 3.285.671 3.285H35.964a.83.83 0 0 1-.829-.827c0-.801.535-1.855 3.458-1.669 4.593.304 7.84-1.345 7.656-2.324s3.798-3.354 6.309-1.705zm34.479 6.527s.186 2.474-2.25 4.355-9.003 1.604-12.822 1.879-5.742 1.285-6.385 4.22-.046 7.333 3.168 8.021.137 6.145-4.41 2.751-5.833-8.435-3.261-12.837 5.558-6.236 11.893-6.052 12.036.185 12.22-2.337 1.847 0 1.847 0z"
    fill="#767277" />
  <path
    d="M78.218 145.23s-5.748-5.701-9.849-5.334-3.192 9.001-.253 11.142 3.796 1.895 3.796 1.895-5.45-.304-6.799.306a1.54 1.54 0 0 0-.836.759 1.53 1.53 0 0 0-.093 1.124h19.781s-1.832-5.488-5.747-9.892zm-38.761 7.048c3.265-1.647 8.262-8.29 8.262-8.29a7.41 7.41 0 0 0 2.256-.544c.126 1.732-.215 4.628-2.559 8.636 0-.009-4.575.992-7.959.198z"
    fill="#5e5d5e" />
  <path
    d="M42.024 135.634s3.246 2.079 3.185 3.852c0 0 3.001 1.406 3.246 2.016s1.409 4.095-2.022 10.27c0 0-7.165 1.651-9.798-1.039l-1.286-3.668s-2.635-2.812-2.635-4.706l4.348.794s3.124-2.996 4.41-2.996l.552-4.523z"
    fill="#767277" />
  <g fill="#e8aaa7">
    <path
      d="M76.063 54.088h80.022c4.381 0 7.933-3.545 7.933-7.918V33.952c0-4.373-3.552-7.918-7.933-7.918H76.063c-4.381 0-7.933 3.545-7.933 7.918V46.17c0 4.373 3.552 7.918 7.933 7.918z" />
    <path
      d="M156.091 54.134H76.063a8 8 0 0 1-5.638-2.335 7.97 7.97 0 0 1-2.341-5.627V33.952a7.97 7.97 0 0 1 2.341-5.627 8 8 0 0 1 5.638-2.335h80.028a8 8 0 0 1 5.637 2.336 7.97 7.97 0 0 1 2.34 5.627v12.219a7.97 7.97 0 0 1-2.34 5.627 8 8 0 0 1-5.637 2.336zM76.063 26.08a7.9 7.9 0 0 0-5.574 2.308 7.87 7.87 0 0 0-2.312 5.564v12.219c.002 2.087.834 4.088 2.313 5.563s3.483 2.306 5.574 2.308h80.028a7.9 7.9 0 0 0 5.573-2.308c1.479-1.476 2.31-3.476 2.313-5.563V33.952c-.003-2.087-.834-4.088-2.313-5.564a7.9 7.9 0 0 0-5.573-2.308H76.063z" />
  </g>
  <path d="M76.938 30.207h6.247v-1.283h-6.247v1.284zm2.202 19.42h76.348v-3.544H79.14v3.544z"
    fill="#3b314a" />
  <path
    d="M104.257 77.812h3.836l-2.711-2.708c-.048-.055-.073-.127-.07-.2s.033-.142.084-.194a.29.29 0 0 1 .394-.015l2.713 2.708v-3.828c-.003-.04.002-.08.015-.118a.29.29 0 0 1 .158-.171.29.29 0 0 1 .116-.024c.04 0 .08.008.117.024s.069.04.096.069a.29.29 0 0 1 .061.102c.013.038.018.078.015.118v3.828l2.713-2.708c.056-.048.127-.073.2-.07s.143.033.194.084a.29.29 0 0 1 .085.194c.003.073-.022.144-.07.2l-2.713 2.708h3.835c.04-.003.08.002.118.015s.073.034.102.061a.28.28 0 0 1 .069.097.29.29 0 0 1 0 .232.28.28 0 0 1-.069.097c-.029.027-.064.048-.102.061s-.078.018-.118.015h-3.835l2.713 2.708a.3.3 0 0 1 .063.094.28.28 0 0 1 .022.111.28.28 0 0 1-.022.111.3.3 0 0 1-.063.094.29.29 0 0 1-.409 0l-2.716-2.708v3.828c.003.04-.002.08-.015.118s-.034.072-.061.102-.061.053-.097.069a.29.29 0 0 1-.116.024c-.04 0-.08-.008-.117-.024s-.069-.04-.096-.069-.048-.064-.061-.102a.28.28 0 0 1-.015-.118v-3.828l-2.713 2.708c-.056.048-.127.072-.2.07s-.143-.033-.194-.085a.29.29 0 0 1-.085-.194c-.003-.073.022-.144.07-.2l2.711-2.708h-3.832c-.072-.006-.14-.039-.19-.092a.29.29 0 0 1 0-.392c.05-.053.118-.086.19-.092zm39.207 15.276l3.159-1.228-3.107-1.365c-.031-.014-.059-.033-.082-.057s-.042-.053-.054-.084-.018-.065-.018-.099.008-.067.022-.098.033-.059.057-.082a.26.26 0 0 1 .085-.054c.031-.012.065-.018.098-.017s.067.008.098.022l3.107 1.365-1.23-3.153a.25.25 0 0 1-.021-.1c0-.034.006-.069.019-.1s.033-.061.058-.085a.25.25 0 0 1 .086-.056c.032-.012.067-.018.101-.017a.25.25 0 0 1 .1.024c.031.015.059.035.083.061a.27.27 0 0 1 .052.088l1.23 3.153 1.373-3.103c.03-.058.081-.101.142-.123s.129-.019.188.007.107.074.133.133a.26.26 0 0 1 .005.188l-1.367 3.103 3.159-1.23c.062-.021.131-.018.191.01s.107.078.131.139.023.13-.003.191-.073.11-.134.136l-3.159 1.228 3.107 1.367a.26.26 0 0 1 .132.338.26.26 0 0 1-.141.135c-.063.025-.134.026-.197 0l-3.107-1.365 1.23 3.153c.014.032.021.066.022.1s-.007.069-.02.101a.26.26 0 0 1-.057.085c-.024.024-.055.043-.087.055s-.066.018-.101.017a.25.25 0 0 1-.1-.024c-.032-.015-.059-.035-.082-.061s-.041-.056-.052-.088l-1.23-3.153-1.368 3.101a.26.26 0 0 1-.143.123c-.062.022-.128.019-.188-.007a.26.26 0 0 1-.132-.133c-.026-.06-.027-.127-.005-.188l1.367-3.101-3.159 1.228a.26.26 0 0 1-.332-.147c-.013-.031-.019-.065-.019-.098s.007-.067.02-.098a.26.26 0 0 1 .14-.138zM42.538 60.116l2.449 1.278-.829-2.632a.21.21 0 0 1 .057-.237c.022-.019.048-.033.075-.042a.21.21 0 0 1 .086-.008c.029.003.057.012.082.027a.21.21 0 0 1 .1.136l.827 2.632 1.28-2.447c.012-.024.03-.046.051-.063s.045-.031.071-.039.054-.011.081-.008.054.011.078.023a.21.21 0 0 1 .089.28l-1.28 2.447 2.637-.827a.21.21 0 0 1 .262.137c.008.026.011.053.009.08s-.01.054-.023.078-.03.046-.051.063-.045.031-.071.039l-2.639.827 2.451 1.276c.049.026.085.07.102.123a.21.21 0 0 1-.064.222c-.021.018-.046.031-.072.039s-.054.011-.081.008-.054-.011-.078-.024l-2.449-1.276.827 2.632c.013.039.013.081.002.121s-.035.075-.066.101-.071.043-.112.047-.083-.004-.119-.023c-.024-.013-.046-.03-.064-.051s-.031-.045-.039-.072l-.829-2.632-1.278 2.446c-.026.046-.07.08-.12.095s-.105.01-.153-.013-.084-.065-.102-.114-.017-.105.004-.153l1.279-2.447-2.637.827a.21.21 0 0 1-.26-.136c-.009-.026-.012-.053-.01-.081s.01-.054.022-.078.03-.046.051-.063a.22.22 0 0 1 .072-.039l2.639-.833-2.449-1.276a.21.21 0 0 1-.113-.12c-.01-.026-.014-.055-.012-.083s.009-.056.022-.081.03-.048.052-.066a.21.21 0 0 1 .074-.04c.027-.008.056-.011.084-.007s.055.012.08.026l.007-.002zm41.569 35.777l2.572 1.45-.792-2.84c-.009-.028-.012-.058-.009-.087s.011-.058.025-.084a.23.23 0 0 1 .056-.068c.023-.019.049-.033.077-.041a.22.22 0 0 1 .274.154l.792 2.84 1.453-2.567a.22.22 0 0 1 .134-.105c.057-.016.118-.008.169.021s.089.077.105.134.008.118-.021.169l-1.453 2.567 2.845-.79a.23.23 0 0 1 .17.021.22.22 0 0 1 .105.134c.008.028.011.057.007.086a.22.22 0 0 1-.162.186l-2.845.79 2.572 1.451a.22.22 0 0 1 .105.134c.016.057.008.118-.021.169s-.077.089-.134.105-.118.008-.169-.021l-2.572-1.45.799 2.834c.015.057.008.117-.022.169s-.078.088-.135.104a.21.21 0 0 1-.087.006c-.029-.003-.057-.012-.083-.027s-.048-.033-.066-.056a.21.21 0 0 1-.038-.077l-.795-2.834-1.449 2.567c-.029.051-.077.089-.134.105s-.118.008-.169-.021-.089-.077-.105-.134-.008-.118.021-.169l1.453-2.567-2.847.79c-.057.016-.118.008-.169-.02s-.088-.079-.104-.135c-.008-.028-.011-.057-.007-.086s.013-.057.027-.082a.22.22 0 0 1 .135-.104l2.845-.79-2.572-1.45a.22.22 0 0 1-.105-.134c-.016-.057-.008-.118.021-.169s.077-.089.134-.105.118-.008.169.021v.007z"
    fill="#88c9ea" />
  <path
    d="M176.094 97.794c-2.088-2.176-1.951-2.313-2.811-4.622-.5-1.425-2.16-3.339-2.15-3.32a9.51 9.51 0 0 0-1.44-1.263c-5.228-3.502-6.084-4.055-7.731-8.903-2.07-6.082-3.268-5.431-6.643-9.046-3.318-3.584-2.181-7.113-3.738-10.902h.016c1.223 2.66 1.115 5.75 2.381 8.313 1.486 2.916 4.952 4.528 6.552 6.688 1.157 1.567 1.548 2.558 2.347 4.622 1.981 5.134 2.973 4.982 7.492 7.933l.628.427a8.65 8.65 0 0 1 1.277 1.094l.186.21c3.885 4.572 1.921 4.437 4.443 6.887l.499.458-1.308 1.424zM60.795 108.591c.249.172 6.812-4.745 9.373-13.106.567-1.855.502-3.869 1.046-5.672 1.689-5.6 7.269-6.381 7.394-15.673.136-8.903.953-7.605 3.88-14.002.52-1.105.89-2.275 1.1-3.478h.02c-.281 2.45-1.438 4.637-2.501 6.881-4.645 9.83 1.749 11.464-5.136 21.096-1.07 1.484-2.685 3.339-3.291 5.11-.767 2.244-.481 4.96-1.176 7.308-1.496 5.052-4.56 9.654-8.747 12.877l-1.962-1.342zM45.341 91.094c2.763-1.714 6.037-2.098 8.289-4.485 1.605-1.705 2.542-5.8 6.011-8.146 1.791-1.213 3.794-2.15 5.262-3.784 1.905-2.085 2.044-6.019 4.103-8.697 1.722-2.194 4.358-3.583 5.708-6.073l.015.009c-1.719 3.524-5.017 4.216-6.623 8.718-.701 1.986-.966 3.784-1.973 5.631a8.26 8.26 0 0 1-1.611 1.975c-1.879 1.718-3.755 2.411-5.595 4.285-2.631 2.686-2.73 7.748-7.916 10.09-.238.108-4.724 1.784-4.543 2.04a305.64 305.64 0 0 1-1.128-1.564z"
    fill="#f4f2ea" />
  <path
    d="M139.898 139.362l-4.088-1.074 2.769 36.869 4.902.164-2.472-34.62c-.022-.311-.142-.607-.341-.847a1.5 1.5 0 0 0-.77-.492z"
    fill="#3b314a" />
  <g fill="#f48278">
    <path
      d="M138.214 176.205a1.32 1.32 0 0 0 .281 0c.81-.094 1.412-.901 1.342-1.799l-2.721-34.666c-.07-.9-.784-1.551-1.596-1.454s-1.412.901-1.342 1.801l2.719 34.666c.063.792.628 1.391 1.317 1.452z" />
    <path
      d="M175.819 178.06v.076c-.128 1.412-1.222 2.465-2.445 2.356l-34.511-3.089c-1.223-.107-2.111-1.341-1.983-2.75 0-.06.013-.119.023-.186l38.916 3.593z" />
  </g>
  <path
    d="M120.911 184.63c-1.281 2.24.83 9.16 1.029 9.162-1.888.076-20.455 7.47-20.455 7.47l-5.684-.076s-.557-15.712.831-15.468.474 1.076 3.06 4.24c.228.281 1.196 4.691 3.82 3.525 5.281-2.324 14.1-7.306 17.399-8.853z"
    fill="#f7a491" />
  <path
    d="M95.591 201.699l.208-17.188c.071-.619.578-.757.883-.534.626.458 2.079 3.771 3.042 5.996-.5 3.853.903 10.651 1.777 11.281-2.212 1.605-5.843.792-5.909.445z"
    fill="#3b314a" />
  <path
    d="M142.821 190.556c-1.624-.672-28.946 7.146-28.946 7.146l-2.51-10.915s28.73-9.128 33.807-8.302 52.643 5.169 48.068 16.962-26.221 5.132-50.419-4.891z"
    fill="#f4f2ea" />
  <path
    d="M141.799 218.472c2.542-.462 5.838-.593 8.475-.64-.31 2.345-1.821 14.366-1.544 15.104a9.03 9.03 0 0 0 3.598 4.392s-11.694 10.531-12.4 9.315.522-1.054 1.286-5.066c.066-.356 1.757-5.957 1.858-8.979.197-5.757-1.186-10.926-1.273-14.126z"
    fill="#f7a491" />
  <path
    d="M145.551 179.149c1.631-.87 5.866-.9 10.523-.599a107.04 107.04 0 0 1 26.676 5.227l5.779 1.91-.02-5.913s18.385-3.072 19.024 1.484c.963 6.85-.713 20.707-8.362 21.488-33.841 3.459-43.69-12.984-43.787-9.718-.13 4.392-3.839 20.737-4.786 27.893-2.639.044-7.171.042-9.135-.408-.376-14.024-.556-38.892 4.088-41.364z"
    fill="#fffdf5" />
  <path
    d="M152.684 237.575l-13.145 10.479c-.52.345-.953.047-.979-.328-.05-.775 1.555-4.016 2.644-6.184 3.276-2.096 7.595-7.562 7.517-8.636 1.386 1.169 4.186 4.394 3.963 4.669zm29.752-115.591c.443-4.029.907-8.072 4.252-11.025 2.709-2.391 6.151-2.795 9.555-1.517 9.646 3.622 4.675 12.173 16.975 20.794 3.82 2.678 8.033 4.513 10.909 8.118 4.029 5.049 2.509 11.129-1.163 15.178-17.562 19.4-37.164-6.801-38.576-13.091-1.047-4.67-2.236-15.864-1.952-18.457z"
    fill="#3b314a" />
  <path
    d="M186.008 144.639c.888-1.627 1.86-3.207 2.912-4.734 1.486-2.641 5.333-3.977 5.333-3.977l2.763.099c.051.183.146.351.277.489.557.416 3.735-.12 5.79 1.271 6.885 5.893 4.98 34.445 4.439 43.463l-20.968.199s2.644-19.405-1.616-24.391c-2.974-3.472-1.063-8.502 1.07-12.419z"
    fill="#f48278" />
  <path
    d="M195.453 126.269s1.152 8.216 1.959 10.212-4.427 6.267-8.78 7.564 1.33-4.411 1.15-6.546l-.972-12.241 6.643 1.011z"
    fill="#f7a491" />
  <path d="M189.031 128.166l-.221-2.899 6.643 1.009.353 2.332c-2.692 1.55-5.114 1.059-6.775-.442z"
    fill="#f47458" />
  <g fill="#f7a491">
    <path
      d="M193.37 111.262a7.55 7.55 0 0 1 4.235 3.051c1.617 2.463 2.728 9.713-2.601 13.098s-9.466-1.404-9.535-6.072.937-10.901 7.901-10.077z" />
    <path
      d="M184.254 119.877c.453 1.128 1.354 1.827 2.012 1.562s.823-1.391.372-2.519-1.355-1.825-2.013-1.562-.827 1.393-.371 2.519z" />
  </g>
  <path
    d="M192.586 111.102s3.345 7.473 6.27 8.141 2.891 4.427 2.891 4.427-.067-8.684-2.815-10.676-6.346-1.892-6.346-1.892z"
    fill="#3b314a" />
  <path
    d="M197.69 120.803c-.386 1.214-.031 2.411.79 2.67s1.801-.513 2.187-1.726.034-2.412-.789-2.669-1.792.511-2.188 1.725zm-37.511 53.957c1.258-.454 3.131-.51 3.099-.677-.126-.669-5.684 1.484-4.933.503.418-.545 4.576-2.476 5.589-2.157l7.422 2.112 17.605-4.117s4.443-10.079 4.876-18.734c3.673.496 6.174 1.403 9.367 3.17-1.541 8.282-5.283 21.701-9.42 24.222-1.739 1.061-22.516-1.267-22.516-1.267s-4.578-.323-5.327-.61c-.558-.219-2.027-1.039-2.823-1.265-1.806-.51-5.017.772-5.034.419 0-.261.816-1.135 2.095-1.599z"
    fill="#f7a491" />
  <path
    d="M193.736 142.435c.169-2.665 1.182-5.238 4.021-6.067 1.76-.512 3.735-.02 5.142 1.126 1.672 1.363 2.141 3.552 2.133 5.624-.018 4.703-.338 9.58-1.2 14.211-3.193-1.769-6.918-2.832-10.592-3.327.002-.028.273-8.046.496-11.567z"
    fill="#f48278" />
  <path
    d="M44.722 23.927c2.369 0 4.686-.7 6.656-2.014s3.507-3.181 4.414-5.366a11.94 11.94 0 0 0 .684-6.909c-.461-2.32-1.601-4.451-3.276-6.124A11.99 11.99 0 0 0 47.068.239a12 12 0 0 0-6.922.676c-2.19.904-4.062 2.435-5.379 4.401s-2.022 4.277-2.024 6.642a11.94 11.94 0 0 0 .909 4.58c.601 1.452 1.484 2.772 2.596 3.883a11.98 11.98 0 0 0 3.888 2.595 12 12 0 0 0 4.587.911z"
    fill="#ceeae7" />
  <path
    d="M49.295 5.822h-9.901a1.79 1.79 0 0 0-1.263.522c-.335.334-.524.788-.524 1.261v8.373c0 .473.188.927.524 1.262a1.79 1.79 0 0 0 1.264.523h9.902a1.79 1.79 0 0 0 1.263-.523c.335-.335.523-.788.523-1.261V7.605c-.001-.473-.189-.926-.524-1.261a1.79 1.79 0 0 0-1.263-.522z"
    fill="#e8eaea" stroke="#129d6c" stroke-miterlimit="10" />
  <path
    d="M46.537 7.976h-6.474c-.576 0-1.044.408-1.044.913v6.15c.004.505.468.913 1.044.913h6.474c.576 0 1.044-.408 1.044-.913v-6.15c0-.505-.468-.913-1.044-.913z"
    fill="#bde3d6" />
  <path
    d="M49.208 14.106l.621-1.122c.023-.046.035-.097.035-.148a.36.36 0 0 0-.032-.148.28.28 0 0 0-.091-.109c-.037-.026-.081-.04-.126-.041h-1.213c-.046-.001-.091.013-.128.039a.27.27 0 0 0-.091.109.32.32 0 0 0-.03.15c.002.052.016.103.041.148l.593 1.126c.021.041.053.075.091.1s.077.037.12.037.085-.013.12-.037.07-.062.091-.104zm-.422-4.275l-.593 1.113a.34.34 0 0 0-.011.302c.022.048.051.084.091.113a.23.23 0 0 0 .126.039h1.186a.22.22 0 0 0 .136-.028.27.27 0 0 0 .104-.109c.026-.049.039-.103.039-.158a.35.35 0 0 0-.037-.159l-.621-1.113c-.02-.041-.051-.076-.089-.102a.22.22 0 0 0-.121-.037c-.042 0-.084.013-.119.037a.27.27 0 0 0-.091.102zm-8.938 3.271v-.219l.823-.898.238-.274a1.04 1.04 0 0 0 .139-.211.56.56 0 0 0 .046-.219.4.4 0 0 0-.065-.226c-.041-.064-.1-.116-.169-.148a.56.56 0 0 0-.243-.052.52.52 0 0 0-.251.059.42.42 0 0 0-.164.163.51.51 0 0 0-.065.237h-.279a.73.73 0 0 1 .1-.384.71.71 0 0 1 .275-.258c.121-.062.256-.093.392-.091a.8.8 0 0 1 .388.091.71.71 0 0 1 .266.25.65.65 0 0 1 .095.347.78.78 0 0 1-.048.269c-.043.104-.1.202-.171.289a4.92 4.92 0 0 1-.334.389l-.557.597v.019h1.158v.267l-1.574.002zm2.886.035a.75.75 0 0 1-.468-.15.94.94 0 0 1-.295-.436 2.38 2.38 0 0 1 0-1.38.96.96 0 0 1 .297-.438.8.8 0 0 1 .929 0 .94.94 0 0 1 .297.438 2.38 2.38 0 0 1 0 1.38.91.91 0 0 1-.292.432c-.133.102-.296.156-.463.154h-.005zm0-.267c.088.001.174-.022.249-.068s.136-.111.175-.19c.112-.231.164-.486.151-.742.005-.188-.018-.375-.069-.556a.77.77 0 0 0-.197-.347c-.083-.079-.194-.121-.308-.119a.47.47 0 0 0-.249.072c-.075.047-.134.114-.173.193a1.53 1.53 0 0 0-.152.742 1.93 1.93 0 0 0 .069.556c.034.129.101.248.195.343a.45.45 0 0 0 .316.115h-.005zm1.589-.694a.37.37 0 0 1-.186-.05c-.057-.033-.101-.079-.134-.134a.37.37 0 0 1-.05-.185c-.001-.065.017-.13.05-.186a.37.37 0 0 1 .134-.135c.056-.033.121-.05.186-.05a.36.36 0 0 1 .186.05.37.37 0 0 1 .136.135c.033.056.051.12.05.186a.37.37 0 0 1-.186.319.36.36 0 0 1-.186.05zm0-.161c.038 0 .075-.009.108-.028s.057-.046.076-.076.028-.069.028-.107-.01-.074-.028-.107a.23.23 0 0 0-.076-.076c-.033-.018-.07-.028-.108-.028s-.074.009-.106.028-.059.046-.078.078a.2.2 0 0 0-.026.107c.001.037.009.075.028.107s.045.057.076.076.069.026.106.024zm2.031-.052h-.201a.44.44 0 0 0-.063-.152c-.03-.046-.064-.08-.106-.11s-.089-.054-.139-.069a.56.56 0 0 0-.16-.022.5.5 0 0 0-.273.076c-.082.051-.146.134-.186.224-.094.233-.094.493 0 .725a.53.53 0 0 0 .186.225.46.46 0 0 0 .273.076c.054 0 .108-.007.16-.022a.45.45 0 0 0 .139-.067c.042-.03.078-.068.106-.111s.052-.098.063-.152h.201a.62.62 0 0 1-.084.228c-.043.07-.089.123-.149.171a.65.65 0 0 1-.201.106c-.076.025-.156.037-.236.037a.7.7 0 0 1-.372-.104.74.74 0 0 1-.26-.295 1.14 1.14 0 0 1-.095-.453 1.12 1.12 0 0 1 .095-.453.74.74 0 0 1 .26-.295c.112-.073.241-.104.372-.102.08-.001.16.011.236.035s.141.059.201.107a.63.63 0 0 1 .149.169c.039.065.07.147.084.228z"
    fill="#008a60" />
  <path
    d="M245.727 76.16c2.186 0 4.322-.648 6.139-1.86s3.234-2.935 4.07-4.951a11.02 11.02 0 0 0 .628-6.373c-.427-2.14-1.479-4.105-3.025-5.647a11.06 11.06 0 0 0-5.658-3.018 11.07 11.07 0 0 0-6.385.628c-2.019.835-3.745 2.249-4.959 4.063s-1.862 3.946-1.862 6.128a11.02 11.02 0 0 0 .841 4.222 11.04 11.04 0 0 0 2.396 3.579 11.05 11.05 0 0 0 3.586 2.391c1.341.554 2.778.839 4.229.839z"
    fill="#ceeae7" />
  <g stroke-width=".75" stroke-miterlimit="10">
    <path
      d="M241.52 63.599a3.74 3.74 0 0 1 .322-1.446 3.73 3.73 0 0 1 .858-1.208c.758-.685 1.743-1.064 2.765-1.064a4.12 4.12 0 0 1 2.765 1.064c.365.341.658.752.861 1.208a3.74 3.74 0 0 1 .325 1.446 3.54 3.54 0 0 1-.372 1.669c-.258.52-.636.971-1.104 1.317a.24.24 0 0 0-.078.067c-.02.027-.035.058-.042.091-.022.149-.057.295-.106.438.002.01.002.021 0 .032s-.015.019-.026.024-.021.002-.032 0-.021.002-.031 0h-1.656c-.011.002-.022.002-.034 0s-.023.002-.035 0c-.01-.008-.019-.018-.025-.03s-.01-.025-.01-.038v-.349l.557-.844c.051-.081.071-.178.056-.273a.39.39 0 0 0-.147-.234l-.951-.705.424-.644c.055-.085.075-.188.055-.287a.36.36 0 0 0-.061-.139c-.032-.041-.071-.076-.115-.102-.088-.054-.194-.074-.296-.054-.051.009-.099.029-.141.059s-.079.067-.106.111l-.613.939c-.027.039-.046.082-.056.128a.36.36 0 0 0 0 .139.37.37 0 0 0 .141.239l.965.707-.422.644c-.043.06-.065.132-.063.206v.451c.002.012.002.024 0 .035s.002.022 0 .033c-.025.009-.053.009-.078 0h-1.691c-.023.007-.048.007-.071 0-.005-.017-.005-.036 0-.054l-.098-.44a.29.29 0 0 0-.127-.158c-.47-.342-.852-.791-1.115-1.309a3.56 3.56 0 0 1-.392-1.669z"
      fill="#fbc926" stroke="#f99d42" />
    <path
      d="M243.159 67.761h-.055c-.003.007-.005.014-.005.021s.002.014.005.021c-.004.014-.004.029 0 .043a7.29 7.29 0 0 1 .128.805c.025.274.147.529.344.722a1.44 1.44 0 0 0 .771.395h.12a5.28 5.28 0 0 0 2.005 0h.121c.292-.05.562-.187.775-.393.198-.192.321-.449.348-.723.022-.271.062-.54.12-.805v-.085h-4.677z"
      fill="#d4d8d3" stroke="#8c959d" />
  </g>
  <path
    d="M62.198 6.711a5.14 5.14 0 0 1 2.79 2.011 5.12 5.12 0 0 1 .891 3.318 5.96 5.96 0 0 1-1.081 2.886c-.607.851-1.428 1.528-2.379 1.963m2.594-13.467a9.89 9.89 0 0 1 3.531 3.779 9.87 9.87 0 0 1 1.139 5.041 10.28 10.28 0 0 1-1.309 4.513 10.31 10.31 0 0 1-3.182 3.463"
    stroke-width="2" stroke="#f48278" stroke-linecap="round" stroke-miterlimit="10" />
  <path
    d="M60.375 13.618c.361 0 .713-.106 1.013-.306a1.82 1.82 0 0 0 .672-.816c.138-.333.175-.699.104-1.052a1.82 1.82 0 0 0-.499-.932c-.255-.255-.58-.428-.934-.498s-.72-.034-1.054.104a1.82 1.82 0 0 0-.818.671c-.2.3-.307.651-.306 1.012a1.82 1.82 0 0 0 .534 1.285c.341.341.804.533 1.287.533z"
    fill="#f48278" />
  <path
    d="M228.418 70.219c-1.134-.33-2.119-1.04-2.79-2.011a5.12 5.12 0 0 1-.891-3.318 5.97 5.97 0 0 1 1.078-2.885 5.99 5.99 0 0 1 2.374-1.966m-2.586 13.468a9.89 9.89 0 0 1-3.534-3.778 9.86 9.86 0 0 1-1.141-5.042 10.29 10.29 0 0 1 1.31-4.512c.779-1.383 1.868-2.569 3.181-3.463"
    stroke-width="2" stroke="#f48278" stroke-linecap="round" stroke-miterlimit="10" />
  <path
    d="M230.233 63.31c-.36 0-.712.107-1.012.307a1.82 1.82 0 0 0-.672.817 1.81 1.81 0 0 0-.103 1.051 1.82 1.82 0 0 0 .498.932c.255.254.58.428.934.498s.72.034 1.053-.104a1.82 1.82 0 0 0 1.125-1.681c0-.482-.192-.945-.534-1.287a1.82 1.82 0 0 0-1.289-.533z"
    fill="#f48278" />
  <path
    d="M122.195 137.674c-1.161-1.797-1.665-3.938-1.428-6.063a9.28 9.28 0 0 1 2.728-5.6c1.377-1.303 3.073-2.224 4.917-2.669s3.774-.4 5.595.132M129.004 139a6.38 6.38 0 0 1-.965-4.14 6.36 6.36 0 0 1 1.847-3.824 7.32 7.32 0 0 1 3.326-1.827c1.249-.306 2.555-.276 3.788.087m-22.576 9.543c-.946-3.035-1.065-6.267-.347-9.363a17.9 17.9 0 0 1 4.435-8.258 18.71 18.71 0 0 1 7.169-4.627c2.715-.97 5.618-1.301 8.482-.967"
    stroke-width="3" stroke="#f48278" stroke-linecap="round" stroke-miterlimit="10" />
</svg>