<svg width="42" height="42" viewBox="0 0 42 42" fill="none" xmlns="http://www.w3.org/2000/svg">
    <path
        d="M16 26.94a3 3 0 0 0 2.94-2.414 3 3 0 0 0-1.79-3.356A2 2 0 0 1 19 19.94h4a3.91 3.91 0 0 0 2-.56v5.74a3 3 0 0 0-1.957 3.336A3 3 0 0 0 26 30.948a3 3 0 0 0 2.957-2.493A3 3 0 0 0 27 25.12v-8.36a3 3 0 0 0 1.946-3.304 3 3 0 0 0-2.892-2.518 3 3 0 0 0-3.005 2.382 3 3 0 0 0 1.791 3.391A2 2 0 0 1 23 17.94h-4a4 4 0 0 0-3.91 3.16 3 3 0 0 0-1.999 3.302A3 3 0 0 0 16 26.94zm10 2a1 1 0 0 1-.924-.617 1 1 0 0 1 .217-1.09 1 1 0 0 1 1.09-.217 1 1 0 0 1 .617.924 1 1 0 0 1-1 1zm0-16a1 1 0 0 1 .924.617 1 1 0 0 1-.217 1.09 1 1 0 0 1-1.09.217A1 1 0 0 1 25 13.94a1 1 0 0 1 1-1zm-10 10a1 1 0 0 1 .924.617 1 1 0 0 1-.217 1.09 1 1 0 0 1-1.09.217A1 1 0 0 1 15 23.94a1 1 0 0 1 1-1z"
        fill="#5bc9e1" />
</svg>