<svg width="42" height="42" viewBox="0 0 42 42" fill="none" xmlns="http://www.w3.org/2000/svg">
    <path
        d="M20.16 10.381h-6.95a2.99 2.99 0 0 0-2.989 2.989v15.262a2.99 2.99 0 0 0 2.989 2.989h6.95a2.99 2.99 0 0 0 2.989-2.989V13.37a2.99 2.99 0 0 0-2.989-2.989z"
        fill="#e3eebd" />
    <path
        d="M30.028 14.466h-9.426c-.947 0-1.715.768-1.715 1.715v13.935c0 .947.768 1.715 1.715 1.715h9.426c.947 0 1.715-.768 1.715-1.715V16.181c0-.947-.768-1.715-1.715-1.715z"
        fill="#ffe3eb" />
    <path
        d="M9.496 12.379a2.9 2.9 0 0 1 2.883-2.883h8.612a2.9 2.9 0 0 1 2.883 2.883v1.432h5.747c.378 0 .752.075 1.1.22s.665.358.932.626.477.586.62.935.215.724.213 1.102v14.36a1.45 1.45 0 0 1-1.432 1.433H10.947a1.38 1.38 0 0 1-1.026-.425c-.134-.131-.241-.288-.314-.461s-.111-.359-.111-.547V12.379zm14.377 18.675h2.865v-2.865h-2.865v2.865zm4.315 0h2.865V16.694a1.45 1.45 0 0 0-1.432-1.45h-8.63a1.45 1.45 0 0 0-1.432 1.45v14.36h2.882v-2.865a1.45 1.45 0 0 1 .407-1.026c.274-.269.642-.421 1.026-.424h2.865c.384.004.751.156 1.026.424a1.47 1.47 0 0 1 .425 1.026v2.865zm-5.747-18.675c-.004-.384-.156-.751-.424-1.026a1.47 1.47 0 0 0-1.026-.407h-8.612a1.4 1.4 0 0 0-.554.099c-.176.07-.336.176-.47.31a1.4 1.4 0 0 0-.31.47c-.07.176-.104.364-.099.554v18.675h7.18V16.694c-.002-.378.07-.752.213-1.102s.354-.668.62-.935.583-.481.932-.626.723-.22 1.1-.22h1.45v-1.432zm1.432 6.826a1.13 1.13 0 0 1-.318.76 1.06 1.06 0 0 1-.76.321 1.06 1.06 0 0 1-.76-.321 1.06 1.06 0 0 1-.236-.348c-.055-.131-.083-.271-.082-.412a1.08 1.08 0 0 1 .651-.924 1.08 1.08 0 0 1 1.118.163c.112.094.205.21.272.341s.107.273.117.42zm-9.726 1.079c.142 0 .282-.028.412-.082a1.06 1.06 0 0 0 .348-.236 1.06 1.06 0 0 0 .318-.76c.002-.142-.025-.283-.079-.414s-.136-.249-.239-.347c-.097-.104-.215-.186-.346-.241a1.01 1.01 0 0 0-.414-.078 1.06 1.06 0 0 0-.76.318c-.201.202-.315.475-.318.76a1.08 1.08 0 0 0 1.079 1.079zm1.079-5.394c.002.142-.025.283-.079.414s-.136.249-.239.347a1.06 1.06 0 0 1-.76.265 1.13 1.13 0 0 1-.76-.318 1.06 1.06 0 0 1-.321-.76 1.06 1.06 0 0 1 .321-.76 1.06 1.06 0 0 1 .76-.265 1.01 1.01 0 0 1 .426.082c.134.058.255.145.352.254.101.096.181.211.235.339s.083.265.083.404h-.018zm7.551 9.691c.134.027.273.027.407 0a1.22 1.22 0 0 0 .354-.23c.098-.102.177-.222.23-.354a1.22 1.22 0 0 0 .088-.424 1.13 1.13 0 0 0-.088-.407c-.053-.131-.131-.252-.23-.354a1.22 1.22 0 0 0-.354-.23c-.134-.027-.272-.027-.407 0a1.08 1.08 0 0 0-.76.301 1.06 1.06 0 0 0-.318.76 1.06 1.06 0 0 0 .318.778 1.08 1.08 0 0 0 .778.159h-.018zm-7.533 3.236c.002.142-.025.283-.079.414s-.136.249-.239.347c-.097.104-.215.186-.346.241a1.01 1.01 0 0 1-.414.078c-.142 0-.282-.028-.412-.082a1.06 1.06 0 0 1-.348-.236c-.201-.202-.315-.475-.318-.76a1.08 1.08 0 0 1 1.061-1.079 1.06 1.06 0 0 1 .76.318 1.06 1.06 0 0 1 .336.76zm-1.096-3.236a1.18 1.18 0 0 0 .424 0 1.13 1.13 0 0 0 .336-.23c.104-.101.188-.221.248-.354a1.18 1.18 0 0 0 0-.424c.025-.134.025-.272 0-.407-.06-.132-.144-.252-.248-.354a1.13 1.13 0 0 0-.336-.23c-.14-.025-.284-.025-.424 0-.282 0-.554.108-.76.301-.202.205-.315.481-.315.769s.113.564.315.769c.226.142.496.199.76.159zm14.731-5.305c0 .142-.028.282-.082.412a1.06 1.06 0 0 1-.236.348c-.202.201-.475.315-.76.318a1.08 1.08 0 0 1-1.079-1.079c.003-.285.117-.558.318-.761a1.06 1.06 0 0 1 .76-.318 1.08 1.08 0 0 1 1.079 1.079zM27.8 24.581a1.18 1.18 0 0 0 .424 0 1.13 1.13 0 0 0 .336-.23 1.59 1.59 0 0 0 .248-.354 1.18 1.18 0 0 0 0-.424c.025-.134.025-.272 0-.407a1.59 1.59 0 0 0-.248-.354 1.13 1.13 0 0 0-.336-.23c-.14-.025-.284-.025-.424 0-.282 0-.554.108-.76.301-.202.205-.315.481-.315.769s.113.564.315.769c.231.147.508.203.778.159H27.8z"
        fill="#765156" />
    <path d="M26.756 28.189h-2.883v2.883h2.883v-2.883z" fill="#ffc1cb" />
</svg>