<svg width="42" height="42" viewBox="0 0 42 42" fill="none" xmlns="http://www.w3.org/2000/svg">
    <path
        d="M26.2 6H14.847A2.85 2.85 0 0 0 12 8.847V33.57a2.85 2.85 0 0 0 2.847 2.847H26.2a2.85 2.85 0 0 0 2.847-2.847V8.847A2.85 2.85 0 0 0 26.2 6z"
        fill="#d4eded" stroke="#233e8b" stroke-miterlimit="10" />
    <path
        d="M28.575 8.51h-4.784c-.041.005-.079.024-.107.056a.17.17 0 0 0-.042.113v2.16a1.85 1.85 0 0 0-1.249.475c-.344.309-.562.735-.613 1.196h4.374c-.051-.462-.269-.888-.613-1.196a1.85 1.85 0 0 0-1.249-.475V9.337h4.282c.029-.002.058-.011.084-.024s.05-.032.069-.055.033-.049.042-.077.012-.058.01-.088v-.338c.003-.03-.001-.059-.01-.088s-.023-.055-.042-.077-.042-.041-.069-.055-.055-.022-.084-.024z"
        fill="#233e8b" />
    <path
        d="M18.455 6h-5.058C12.626 6 12 6.625 12 7.397V35.02c0 .772.626 1.397 1.397 1.397h5.058c.772 0 1.397-.625 1.397-1.397V7.397c0-.772-.626-1.397-1.397-1.397z"
        fill="#d4eded" stroke="#233e8b" stroke-miterlimit="10" />
    <path
        d="M19.675 22.659H17.27a.39.39 0 0 0-.389.389v.212a.39.39 0 0 0 .389.389h2.405a.39.39 0 0 0 .389-.389v-.212a.39.39 0 0 0-.389-.389z"
        fill="#233e8b" />
    <g stroke-miterlimit="10" stroke="#5bc9e1" stroke-linecap="round">
        <path
            d="M22.557 13.675v1.609m1.185-.795v1.609m1.114-2.423v1.609m.973-.795v1.609m-3.272.495v1.627m1.185-.813v1.609m1.114-2.423v1.627m.973-.813v1.609m-3.272.69v1.609m1.185-.813v1.609m1.114-2.405v1.609m.973-.813v1.609m-3.272.512v1.609m1.185-.813v1.609m1.114-2.405v1.609m.973-.813v1.609m-3.272.408v1.609m1.185-.814v1.627m1.114-2.422v1.609m.973-.814v1.627m-3.272.496v1.609m1.185-.815v1.627m1.114-2.421v1.609m.973-.815v1.627m-3.272.673v1.609m1.185-.796v1.609m1.114-2.422v1.609m.973-.796v1.609m-4.492.231l.619.672m5.518-.92l-.672.619" />
        <path d="M27.279 32.19l-.283.867m-5.641-.884l.212.884" />
    </g>
</svg>