<svg width="42" height="42" viewBox="0 0 42 42" fill="none" xmlns="http://www.w3.org/2000/svg">
    <g stroke-width=".5" stroke-miterlimit="10">
        <path
            d="M10.451 21.946v-8.453c0-.188-.075-.367-.207-.5s-.313-.207-.5-.207H8.347a.71.71 0 0 0-.5.207c-.133.133-.207.313-.207.5v15.491a.67.67 0 0 0 .672.672h1.468a.67.67 0 0 0 .672-.672v-4.333h20.638v4.315a.71.71 0 0 0 .707.69h1.397a.71.71 0 0 0 .494-.201c.132-.129.209-.304.213-.489v-7.074l-23.449.053z"
            fill="#855914" stroke="#3f2500" />
        <path
            d="M33.883 21.221v-2.476c.013-1.094-.407-2.149-1.167-2.936-.365-.384-.804-.69-1.29-.899s-1.01-.319-1.54-.321H16.499c-.16.013-.308.086-.416.204s-.168.272-.167.432v5.995h17.967z"
            fill="#d8d6ec" stroke="#702c8d" />
        <path
            d="M11.884 14.589h3.006a.55.55 0 0 1 .548.548v6.083h-4.085v-6.083a.55.55 0 0 1 .548-.548h-.018z"
            fill="#c8eaf5" stroke="#0071b5" />
    </g>
</svg>