<svg
  width="42"
  height="42"
  viewBox="0 0 42 42"
  fill="none" xmlns="http://www.w3.org/2000/svg"
>
  <path
    d="M10.717 10.911c1.089.318 2.036 1.001 2.68 1.935s.947 2.062.857 3.193a5.75 5.75 0 0 1-3.325 4.669m2.493-12.962a9.52 9.52 0 0 1 3.396 3.636 9.5 9.5 0 0 1 1.096 4.853 9.92 9.92 0 0 1-1.259 4.342c-.749 1.331-1.794 2.472-3.056 3.333"
    stroke="#f48278" stroke-miterlimit="10" stroke-linecap="round" />
  <path d="M8.966 17.561a1.75 1.75 0 1 0 0-3.501 1.75 1.75 0 1 0 0 3.502z" fill="#f48278" />
  <path
    d="M28.736 28.037h-.443c-.017-.095-.049-.178-.095-.25a.7.7 0 0 0-.17-.183.73.73 0 0 0-.226-.114.88.88 0 0 0-.263-.038.82.82 0 0 0-.45.126c-.132.084-.236.208-.312.371s-.114.362-.114.597.038.436.114.599.181.286.314.369.282.125.447.125a.91.91 0 0 0 .261-.037c.083-.026.159-.063.226-.112a.69.69 0 0 0 .171-.18.68.68 0 0 0 .098-.247l.443.001c-.024.143-.07.275-.138.395a1.09 1.09 0 0 1-.26.31 1.18 1.18 0 0 1-.361.2c-.135.047-.283.071-.443.071-.252 0-.476-.06-.673-.179s-.352-.292-.466-.516-.169-.49-.169-.8a1.74 1.74 0 0 1 .17-.8c.114-.223.269-.395.466-.514s.421-.18.672-.18c.154 0 .298.022.432.067a1.14 1.14 0 0 1 .362.193c.107.084.196.188.266.31s.117.26.142.416zm3.052.509c0 .311-.057.578-.171.801a1.25 1.25 0 0 1-.467.514 1.27 1.27 0 0 1-.672.179 1.28 1.28 0 0 1-.675-.179c-.197-.12-.352-.292-.466-.516s-.17-.49-.17-.8a1.74 1.74 0 0 1 .17-.8c.114-.223.269-.395.466-.514s.423-.18.675-.18.475.06.672.18a1.24 1.24 0 0 1 .467.514c.114.223.171.489.171.8zm-.435 0c0-.237-.038-.436-.115-.598a.84.84 0 0 0-.312-.369.81.81 0 0 0-.447-.126c-.168 0-.317.042-.449.126s-.236.207-.312.369-.114.361-.114.598.038.436.114.599.181.285.313.369a.82.82 0 0 0 .449.125.82.82 0 0 0 .447-.125.85.85 0 0 0 .313-.369c.077-.163.115-.363.115-.599z"
    fill="#413f3d" />
  <path
    d="M23.643 31C21.631 31 20 29.46 20 27.559s1.631-3.442 3.643-3.442c.241 0 .478.023.706.065m6.175-2.098a5.11 5.11 0 0 1 1.619-.261c.556 0 1.091.089 1.59.251m0 0C33.462 19.783 31.404 18 28.905 18c-2.683 0-4.857 2.054-4.858 4.588-.001.544.101 1.084.301 1.594.47.087.918.262 1.318.515m8.067-2.623c1.901.622 3.267 2.329 3.267 4.337 0 2.199-1.638 4.038-3.825 4.485"
    stroke="#413f3d" stroke-width="1.5" stroke-linecap="round" />
</svg>