<svg
    width="42"
    height="42"
    viewBox="0 0 42 42"
    fill="none" xmlns="http://www.w3.org/2000/svg"
>
    <path
        d="M27.499 13.652c-.009-1.73-.695-3.387-1.912-4.617s-2.866-1.934-4.596-1.962c-1.73.028-3.379.732-4.596 1.962s-1.903 2.887-1.912 4.617v18.533h13.016V13.652z"
        fill="#654932" />
    <path
        d="M20.991 13.741h6.083a6.08 6.08 0 0 0-.365-2.427c-.285-.776-.725-1.485-1.294-2.085s-1.253-1.078-2.012-1.404S21.827 7.33 21 7.33s-1.644.168-2.404.495-1.444.804-2.012 1.404-1.009 1.31-1.294 2.085a6.08 6.08 0 0 0-.365 2.427h6.066z"
        fill="#ee7b4d" />
    <path d="M21.221 7.799v5.394l3.767-3.767c-1.006-.997-2.351-1.578-3.767-1.627z" fill="#80c56a" />
    <path d="M25.271 9.779l-3.696 3.696h5.111c-.007-1.363-.51-2.677-1.415-3.696z" fill="#efcb18" />
    <path d="M16.694 9.797c-.884 1.015-1.374 2.314-1.379 3.661h5.04l-3.661-3.661z" fill="#3951a3" />
    <path d="M20.779 13.246V7.799c-1.429.051-2.786.639-3.802 1.645l3.802 3.802z" fill="#c8536d" />
    <path d="M20.372 14.749h-5.058v16.163h5.058V14.749zm6.296 0h-5.093v16.163h5.093V14.749z"
        fill="#e4eeef" />
    <rect width="2.28" height="1.8" fill="#533b26" y="21.84" x="19.84" />
</svg>