<svg
  width="42"
  height="42"
  viewBox="0 0 42 42"
  fill="none" xmlns="http://www.w3.org/2000/svg"
>
  <path d="M31.297 11.817H10.574v17.49h20.723v-17.49z" fill="#fff" />
  <path d="M30.762 12.315v16.494H11.11V12.315h19.652zm1.071-.996H10.039v18.406h21.795V11.319z"
    fill="#603913" />
  <path
    d="M32.39 11c-.106.006-.208.039-.294.095a.55.55 0 0 0-.198.223h-21.88a.54.54 0 0 0-.162-.205c-.071-.056-.155-.094-.245-.113a.8.8 0 0 0-.439.26c-.111.13-.171.291-.171.457s.06.327.171.457a.8.8 0 0 0 .439.26.61.61 0 0 0 .294-.095.55.55 0 0 0 .198-.223h21.795a.55.55 0 0 0 .198.223.61.61 0 0 0 .294.095.8.8 0 0 0 .439-.26c.111-.13.171-.291.171-.457s-.06-.327-.171-.457a.8.8 0 0 0-.439-.26z"
    fill="#c3922e" />
  <path
    d="M27.14 13.371c-.707 0-1.307-.697-1.479-1.653a3.07 3.07 0 0 0 0 .637V28.55c0 1.354.686 2.45 1.543 2.45s1.543-1.096 1.543-2.45V12.355a3.07 3.07 0 0 0 0-.637c-.3.956-.9 1.653-1.607 1.653zm3.214 0c-.729 0-1.329-.697-1.5-1.653a5.89 5.89 0 0 0 0 .637V28.55c0 1.354.707 2.45 1.565 2.45s1.543-1.096 1.543-2.45V12.355a3.07 3.07 0 0 0 0-.637c-.3.956-.922 1.653-1.607 1.653zm-18.773 0c-.707 0-1.307-.697-1.5-1.653v.637V28.55c0 1.354.686 2.45 1.543 2.45s1.543-1.096 1.543-2.45V12.355a3.07 3.07 0 0 0 0-.637c-.279.956-.879 1.653-1.586 1.653zm3.194 0c-.707 0-1.307-.697-1.479-1.653a3.07 3.07 0 0 0 0 .637V28.55c0 1.354.707 2.45 1.543 2.45s1.564-1.096 1.564-2.45V12.355a5.84 5.84 0 0 0 0-.637c-.364.956-.9 1.653-1.629 1.653z"
    fill="#6ac9cd" />
</svg>