<svg xmlns="http://www.w3.org/2000/svg" width="42" height="42" viewBox="0 0 42 42" fill="none"
>
  <g fill="#ddd7e9">
    <path d="M15.058 25.209h12.043v-9.037l-6.013-5.624-6.03 5.624v9.037z" />
    <path d="M12.157 32.193h17.843v-9.037l-8.913-5.624-8.931 5.624v9.037z" />
  </g>
  <path
    d="M21.07 10l9.037 5.836-1.167 1.768-.318-.212v3.696l3.537 2.21-1.114 1.768-.371-.212v7.887H11.486v-7.781l-.371.212L10 23.405l3.625-2.21v-3.767l-.371.212-1.167-1.768L21.07 10zm-5.305 6.013v3.749l5.305-3.289 5.394 3.289v-3.714L21.07 12.6l-5.305 3.413zm-2.228 7.622v7.074h6.473v-4.333h2.087v4.315h6.472v-7.074l-7.551-4.598-7.48 4.616z"
    fill="#8e560e" />
</svg>