<svg
  width="42"
  height="42"
  viewBox="0 0 42 42"
  fill="none" xmlns="http://www.w3.org/2000/svg"
>
  <g stroke="#22094d" stroke-miterlimit="10">
    <path
      d="M13.723 22.07h15.739a4.44 4.44 0 0 1 3.156 1.3 4.44 4.44 0 0 1 1.3 3.156v2.476A2.92 2.92 0 0 1 31 31.92H12.202a2.92 2.92 0 0 1-2.918-2.918v-2.476a4.44 4.44 0 0 1 1.294-3.15 4.44 4.44 0 0 1 3.145-1.306z"
      fill="#a9a9ff" />
    <path
      d="M16.146 17.914a7.52 7.52 0 0 1 4.173-1.645 7.69 7.69 0 0 1 5.464 1.592m-13.192-3.448a13.21 13.21 0 0 1 7.25-2.883 13.51 13.51 0 0 1 9.496 2.794M10.08 10.611a17.24 17.24 0 0 1 9.373-3.802c4.437-.409 8.864.887 12.379 3.625"
      stroke-linecap="round" />
  </g>
  <path
    d="M13.033 29.409c.664 0 1.202-.538 1.202-1.203s-.538-1.202-1.202-1.202-1.203.538-1.203 1.202.538 1.203 1.203 1.203z"
    fill="#ffec5f" />
  <path
    d="M16.376 29.409c.664 0 1.203-.538 1.203-1.203s-.538-1.202-1.203-1.202-1.202.538-1.202 1.202.538 1.203 1.202 1.203z"
    fill="#b8292f" />
</svg>