<svg
  width="42"
  height="42"
  viewBox="0 0 42 42"
  fill="none" xmlns="http://www.w3.org/2000/svg"
>
  <path
    d="M21.522 18.622a.64.64 0 0 0-.141-.212c-.059-.063-.132-.111-.212-.141h-.247-.265c-.076.037-.143.092-.195.159l-3.855 3.838v-4.386h-1.273v4.386l-3.855-3.838a.58.58 0 0 0-.442-.177.67.67 0 0 0-.637.637c-.001.082.014.163.044.239a.62.62 0 0 0 .133.203l4.757 4.757v1.238c0 .169.067.331.186.45s.281.186.45.186.331-.067.45-.186.186-.281.186-.45v-1.238l4.757-4.757a.37.37 0 0 0 .141-.195.74.74 0 0 0 0-.265.62.62 0 0 0 .018-.248z"
    fill="#00954c" />
  <g stroke-miterlimit="10">
    <path
      d="M12.379 24.935h7.427c.277 0 .542.11.738.306s.306.461.306.738v4.916c0 .376-.074.749-.218 1.096s-.355.663-.621.929-.582.477-.929.621-.72.218-1.096.218h-3.837c-.76 0-1.489-.302-2.026-.839s-.839-1.266-.839-2.026v-4.899c-.003-.143.024-.285.079-.417s.136-.252.239-.351.225-.177.359-.227a1.04 1.04 0 0 1 .42-.065z"
      fill="#8c7342" stroke="#5a3b00" />
    <path
      d="M11.459 15.916c.161.484.487.897.92 1.167a2.49 2.49 0 0 0 .92.389h5.447c.324-.066.631-.199.902-.389a2.21 2.21 0 0 0 .866-1.167 2.44 2.44 0 0 0 .088-1.379c-.122-.462-.373-.88-.725-1.203.297-.26.527-.588.672-.955a2.51 2.51 0 0 0 0-1.202 2.39 2.39 0 0 0-.548-1.097c-.271-.305-.619-.531-1.008-.654a3.11 3.11 0 0 0 0-1.344 2.97 2.97 0 0 0-.637-1.185 2.81 2.81 0 0 0-1.061-.813c-.432-.2-.904-.297-1.379-.283-.454.008-.901.111-1.312.303s-.778.468-1.075.811c-.288.346-.499.75-.619 1.185a3.11 3.11 0 0 0 0 1.344c-.389.123-.737.349-1.008.654a2.39 2.39 0 0 0-.548 1.097 2.32 2.32 0 0 0 0 1.203c.137.386.368.733.672 1.008-.352.323-.604.741-.725 1.203a2.3 2.3 0 0 0 .159 1.309z"
      fill="#887dba" stroke="#69539c" />
  </g>
  <path
    d="M24.905 24.076c.642-.922-.332-2.71-2.175-3.994s-3.858-1.578-4.5-.656.332 2.71 2.175 3.994 3.858 1.578 4.5.656zm5.688-.154c1.161-1.667 1.355-3.539.434-4.181s-2.61.189-3.771 1.856-1.355 3.539-.434 4.181 2.61-.189 3.771-1.856z"
    fill="#8eb936" />
  <path
    d="M22.99 25.73h1.768v1.68h1.768v-.884H27.8c1.46-.009 2.858-.594 3.891-1.626s1.617-2.431 1.626-3.891v-2.122h-3.13a5.87 5.87 0 0 0-2.529.619c-.793.415-1.468 1.023-1.963 1.768a6.01 6.01 0 0 0-2.212-2.326c-.934-.561-2.004-.857-3.093-.857h-3.342v1.768c.014 1.565.647 3.061 1.76 4.161s2.617 1.715 4.182 1.71zm3.395-1.273a3.8 3.8 0 0 1 .286-1.465c.191-.465.472-.886.828-1.242s.777-.636 1.242-.828.962-.288 1.465-.286h1.273v.425a3.89 3.89 0 0 1-.301 1.468 3.66 3.66 0 0 1-2.051 2.051 3.89 3.89 0 0 1-1.468.301h-1.273v-.424zm-5.942-4.669c.558-.002 1.111.106 1.627.318s.985.525 1.379.92.707.863.92 1.379a4.23 4.23 0 0 1 .318 1.627H22.99a4.26 4.26 0 0 1-4.244-4.244h1.698z"
    fill="#006032" />
  <path
    d="M21.752 27.499h8.311a1.01 1.01 0 0 1 1.008 1.008v3.767a2.74 2.74 0 0 1-.822 1.939 2.74 2.74 0 0 1-1.955.784H23.52a2.74 2.74 0 0 1-2.741-2.741v-3.767a1.01 1.01 0 0 1 1.008-1.008l-.035.018z"
    fill="#bc9f77" stroke="#9c8156" stroke-miterlimit="10" />
</svg>