<svg
  width="42"
  height="42"
  viewBox="0 0 42 42"
  fill="none" xmlns="http://www.w3.org/2000/svg"
>
  <g stroke="#00b8de" stroke-width=".75" stroke-miterlimit="10">
    <path
      d="M13.387 14.66c-.029-.008-.059-.008-.088 0h-.265c-.796.796-3.378 3.537-3.378 5.606s1.379 3.112 3.537 3.112 3.537-1.203 3.537-3.112-2.582-4.81-3.342-5.606z"
      fill="#92d7e7" />
    <path
      d="M13.157 21.309c.207.001.412-.039.603-.118a1.56 1.56 0 0 0 .511-.342c.284-.294.443-.687.442-1.096"
      stroke-linecap="round" />
    <path
      d="M22.866 7.321l-.159-.106h-.212-.212a.58.58 0 0 0-.177.106c-1.309 1.273-5.606 5.677-5.606 8.931s2.317 4.969 5.995 4.969 5.977-1.945 5.977-4.969-4.28-7.657-5.606-8.931z"
      fill="#92d7e7" />
    <path
      d="M22.494 18.091a2.65 2.65 0 0 0 1.768-.725 2.46 2.46 0 0 0 .561-.807c.131-.304.199-.631.2-.962"
      stroke-linecap="round" />
    <path
      d="M19.453 18.498l.142-.088h.159.177l.142.088c1.061 1.061 4.545 4.739 4.545 7.463s-1.945 4.103-4.934 4.103-4.846-1.609-4.846-4.138 3.484-6.366 4.616-7.427z"
      fill="#92d7e7" />
    <path d="M19.683 27.499c-.535-.023-1.041-.25-1.413-.635s-.582-.898-.586-1.434"
      stroke-linecap="round" />
  </g>
  <path
    d="M22.105 28.826a.6.6 0 0 1 .088-.336 19.44 19.44 0 0 1 1.503-1.963l2.759-3.166 2.865-3.024c.521-.548 1.076-1.062 1.662-1.538a.81.81 0 0 1 .407-.142.46.46 0 0 1 .318.159c.052.054.093.118.12.187s.041.144.039.219c0 .124-.142.318-.442.584-1.573 1.421-3.061 2.932-4.456 4.527a48.21 48.21 0 0 0-3.537 4.386c-.301.442-.584.654-.866.654a.44.44 0 0 1-.195-.039c-.061-.028-.116-.069-.159-.12s-.075-.117-.093-.184-.023-.137-.013-.205zm3.218-10.345c.204-.002.407.038.596.117s.359.196.501.343a1.47 1.47 0 0 1 .442 1.061c.012.798-.271 1.573-.796 2.175a2.46 2.46 0 0 1-1.945.937 1.47 1.47 0 0 1-1.132-.478 1.77 1.77 0 0 1-.442-1.167 3.11 3.11 0 0 1 .849-2.016c.228-.296.519-.537.853-.706s.701-.26 1.075-.267zm-.194 1.026a1.15 1.15 0 0 0-1.008.584 2.14 2.14 0 0 0-.389 1.238c-.004.195.065.384.195.531a.62.62 0 0 0 .46.23c.193-.019.377-.087.535-.199s.284-.263.367-.438a2.44 2.44 0 0 0 .407-1.256.76.76 0 0 0-.159-.46c-.035-.08-.092-.149-.164-.198s-.156-.079-.243-.085v.053zm4.174 5.305a1.5 1.5 0 0 1 1.096.46c.141.138.253.303.329.485s.114.378.113.576c.002.783-.274 1.541-.778 2.14a2.44 2.44 0 0 1-1.945.937c-.209.004-.416-.036-.609-.118a1.47 1.47 0 0 1-.506-.359 1.63 1.63 0 0 1-.356-.535c-.082-.2-.123-.415-.121-.632.012-.755.302-1.479.813-2.034a2.53 2.53 0 0 1 1.963-.973v.053zm-.195 1.026a1.15 1.15 0 0 0-1.008.584 2.3 2.3 0 0 0-.371 1.238.83.83 0 0 0 .177.531c.053.072.122.13.202.17s.168.06.258.06c.195-.019.382-.089.54-.204s.284-.27.362-.45c.25-.366.391-.795.407-1.238a.76.76 0 0 0-.159-.46c-.041-.074-.099-.138-.17-.184s-.152-.074-.237-.081v.035z"
    fill="#fff" />
</svg>