<svg xmlns="http://www.w3.org/2000/svg" width="42" height="42" viewBox="0 0 42 42" fill="none">
    <path
        d="M10.717 10.91c1.089.318 2.036 1.001 2.68 1.935s.947 2.062.857 3.193a5.75 5.75 0 0 1-1.039 2.778c-.583.819-1.372 1.471-2.286 1.89m2.493-12.96a9.52 9.52 0 0 1 3.396 3.636 9.5 9.5 0 0 1 1.096 4.853 9.92 9.92 0 0 1-1.259 4.342c-.749 1.331-1.794 2.472-3.056 3.333"
        stroke="#f48278" stroke-miterlimit="10" stroke-linecap="round" />
    <path d="M8.966 17.56a1.75 1.75 0 1 0 0-3.501 1.75 1.75 0 1 0 0 3.501z" fill="#f48278" />
    <path fill-rule="evenodd"
        d="M27.509 24.949c-.391 0-.777.077-1.139.226s-.689.369-.965.645-.495.604-.645.965-.226.748-.226 1.139.077.778.226 1.139a2.98 2.98 0 0 0 .645.965c.276.276.604.495.965.645s.748.226 1.139.226" />
    <path fill-rule="evenodd" fill="#fff100"
        d="M27.509 24.949c-.391 0-.777.077-1.139.226s-.689.369-.965.645-.495.604-.645.965-.226.748-.226 1.139.077.778.226 1.139a2.98 2.98 0 0 0 .645.965c.276.276.604.495.965.645s.748.226 1.139.226" />
    <g stroke="#fff100" stroke-width="2">
        <path
            d="M27.509 32.6c2.582 0 4.675-2.093 4.675-4.675s-2.093-4.675-4.675-4.675-4.675 2.093-4.675 4.675 2.093 4.675 4.675 4.675z"
            stroke-linejoin="round" />
        <path
            d="M33.858 21.404l-1.046 1.051M22.003 33.192l-.869.875M27.5 35.15v1.275m8.5-8.925h-1.7m-1.049 5.517l1.049 1.049"
            stroke-linecap="round" />
        <path d="M19 27.925h1.7m.869-6.521l.872.872M27.5 19v1.7" stroke-width="2"
            stroke-linecap="round" />
    </g>
</svg>