<svg xmlns="http://www.w3.org/2000/svg" width="42" height="42" viewBox="0 0 42 42" fill="none"
>
    <path
        d="M24.095 24.667a3.57 3.57 0 0 0-1.046-2.525 3.57 3.57 0 0 0-2.525-1.046 3.57 3.57 0 0 0-2.525 1.046 3.57 3.57 0 0 0-1.046 2.525h3.571 3.571z"
        fill="#dfcbf9" stroke="#431380" />
    <path
        d="M14.768 16.579c.378-1.297 1.192-2.424 2.304-3.191s2.455-1.127 3.801-1.02a6.84 6.84 0 0 1 5.558 3.958M11 13.358c1.059-1.708 2.553-3.103 4.328-4.042s3.77-1.39 5.777-1.305a11.81 11.81 0 0 1 9.137 5.137"
        stroke="#f88379" stroke-miterlimit="10" stroke-linecap="round" />
    <rect x="11.5" y="23.976" width="18.048" height="8.524" rx="2.5" fill="#dfcbf9" stroke="#431380" />
</svg>