<svg xmlns="http://www.w3.org/2000/svg" viewBox="0 0 42 42" width="42" height="42" fill="none">
    <path
        d="M30.399 10.01H11.583c-.645 0-1.167.522-1.167 1.167v.177c0 .645.523 1.167 1.167 1.167h18.816c.645 0 1.167-.522 1.167-1.167v-.177c0-.645-.522-1.167-1.167-1.167z"
        fill="#A16733" />
    <path
        d="M15.881 9.691h-.141A1.31 1.31 0 0 0 14.43 11v12.45a1.31 1.31 0 0 0 1.309 1.309h.141a1.31 1.31 0 0 0 1.309-1.309V11a1.31 1.31 0 0 0-1.309-1.309z"
        fill="#5D5E61" />
    <g stroke="#5D5E61" stroke-miterlimit="10">
        <path
            d="M16.128 32.327c-2.158-.813-2.688-1.397-2.812-2.016-.177-.99.743-1.662 1.768-3.767a12.77 12.77 0 0 0 .831-2.67" />
        <path
            d="M15.704 32.327c2.175-.813 2.653-1.397 2.776-2.016.177-.99-.743-1.662-1.68-3.767-.384-.858-.68-1.753-.884-2.67m-.99-.266c-.424 3.537-7.392 8.117.99 9.178" />
        <path d="M16.694 23.608c.442 3.537 7.392 8.117-.99 9.178" />
    </g>
    <path
        d="M25.342 9.691h.212c.338 0 .662.134.9.373s.373.563.373.9v11.902c0 .132-.026.263-.077.386s-.125.233-.218.327-.205.168-.327.219-.253.077-.386.077h-.761a1.01 1.01 0 0 1-1.008-1.008V10.964c0-.338.134-.662.373-.9s.563-.373.9-.373h.018z"
        fill="#5D5E61" />
    <path
        d="M28.047 22.989h-5.058a1.43 1.43 0 0 0-1.432 1.432v6.897c0 .187.037.373.109.546s.178.33.311.461.291.235.465.305.36.105.547.103h5.005c.187.002.373-.033.547-.103s.332-.174.465-.305.239-.288.311-.461.109-.358.109-.546v-6.897c0-.371-.143-.727-.401-.995s-.608-.424-.979-.438zm-4.368 8.099c-.004.13-.058.253-.15.345s-.215.145-.345.15c-.13-.004-.253-.058-.345-.15s-.145-.215-.15-.345v-6.331c.005-.128.059-.25.151-.339s.216-.139.344-.139.252.05.344.139.146.21.151.339v6.331zm1.574 0c-.004.13-.058.253-.15.345s-.215.145-.345.15c-.13-.004-.253-.058-.345-.15s-.146-.215-.15-.345v-6.331c.005-.128.059-.25.151-.339s.216-.139.344-.139.252.05.344.139.146.21.151.339v6.331zm1.574 0c-.004.13-.058.253-.15.345s-.215.145-.345.15c-.13-.004-.253-.058-.345-.15s-.145-.215-.15-.345v-6.331c.005-.128.059-.25.151-.339s.216-.139.344-.139.252.05.344.139.146.21.151.339v6.331zm1.609 0c-.004.13-.058.253-.15.345s-.215.145-.345.15c-.128-.005-.25-.059-.339-.151s-.139-.216-.139-.344v-6.331c0-.127.05-.248.14-.338s.211-.14.338-.14.252.05.344.139.147.21.151.339v6.331z"
        fill="#5D5E61" />
    <rect xmlns="http://www.w3.org/2000/svg" width="3.93" height="11.4" fill="#6C301E" x="13.75"
        y="9.25" rx="2" />
    <rect xmlns="http://www.w3.org/2000/svg" width="3.93" height="11.4" fill="#6C301E" x="13.75"
        y="9.25" rx="2" style="x: 23.5;" />
    <circle cx="15.85" cy="11.35" r="1.08" fill="#231F20" />
    <circle cx="25.5" cy="11.35" r="1.08" fill="#231F20" />
</svg>