<svg
    width="42"
    height="42"
    viewBox="0 0 42 42"
    fill="none" xmlns="http://www.w3.org/2000/svg"
>
    <path
        d="M35.616 12.892h-5.712c-.336 0-.46-.194-.46-.548l.973-3.625a.62.62 0 0 1 .181-.438.62.62 0 0 1 .438-.181h3.537a.62.62 0 0 1 .619.619l1.043 3.537c0 .166-.065.325-.18.444s-.273.188-.439.193z"
        fill="#92278f" stroke="#6a215a" stroke-width=".5" stroke-miterlimit="10" />
    <path
        d="M35.121 29.374h-1.91V13.458a.16.16 0 0 0-.046-.131c-.017-.017-.038-.03-.06-.038a.16.16 0 0 0-.071-.008h-.371c-.025-.003-.05 0-.073.008s-.045.02-.063.037-.033.037-.043.06-.015.047-.015.072v15.916h-1.91c-.025.004-.048.017-.064.037s-.025.044-.024.069v.584l.088.088h4.563s.106 0 .106-.088v-.548c.006-.017.008-.034.005-.052s-.01-.034-.02-.048-.024-.025-.04-.033-.033-.011-.051-.01z"
        fill="#c3922e" />
    <g stroke-width=".5" stroke-miterlimit="10">
        <g fill="#f5e0cd" stroke="#a38d81">
            <path
                d="M9.39 16.941h16.093c.249 0 .487.099.663.274s.275.414.275.663v6.083c0 .033-.013.064-.036.088s-.055.036-.087.036H8.435v-6.189c0-.249.099-.487.275-.663s.414-.274.663-.274l.018-.018z" />
            <path
                d="M9.054 22.707h16.747a.6.6 0 0 1 .601.601v1.768H8.435v-1.768a.6.6 0 0 1 .601-.601h.018z" />
        </g>
        <path
            d="M28.737 21.946h-1.185a.46.46 0 0 0-.337.128.46.46 0 0 0-.141.332v3.395H7.781v-3.395a.46.46 0 0 0-.141-.332.46.46 0 0 0-.337-.128H6.119a.46.46 0 0 0-.46.46v7.41c0 .124.048.242.134.332a.48.48 0 0 0 .326.146h1.185a.48.48 0 0 0 .477-.477v-1.768h19.293v1.768c0 .127.05.248.14.338s.211.14.338.14h1.185a.46.46 0 0 0 .332-.141.46.46 0 0 0 .128-.337v-7.41c.003-.061-.008-.122-.03-.179a.44.44 0 0 0-.251-.251c-.057-.022-.118-.032-.179-.03z"
            fill="#855914" stroke="#3f2500" />
    </g>
</svg>