<svg
  width="42"
  height="42"
  viewBox="0 0 42 42"
  fill="none" xmlns="http://www.w3.org/2000/svg"
>
  <path opacity=".16"
    d="M13.794 18.904h14.501v9.39a2.05 2.05 0 0 1-.594 1.48 2.05 2.05 0 0 1-1.475.607h-10.31c-.27.001-.536-.052-.785-.155s-.475-.255-.665-.446c-.206-.19-.372-.419-.487-.674a2.09 2.09 0 0 1-.185-.811v-9.39z"
    fill="#010101" />
  <g stroke-width="2">
    <path
      d="M17.077 19.327v-3.13c0-1.013.364-1.992 1.026-2.759s1.581-1.259 2.582-1.397a3.89 3.89 0 0 1 2.829.69 4.19 4.19 0 0 1 1.539 3.077v5.075"
      stroke="#424243" stroke-linecap="round" />
    <path
      d="M14 19.327h14.501v9.39c.005.274-.046.546-.148.8s-.254.485-.447.68a2.05 2.05 0 0 1-1.475.607h-10.31a2.03 2.03 0 0 1-1.45-.601c-.206-.19-.372-.419-.487-.674a2.09 2.09 0 0 1-.185-.811v-9.39z"
      fill="#ffc1cb" stroke="#ff0053" stroke-linejoin="round" />
  </g>
  <circle cx="21.25" cy="25" r="2" fill="#424243" />
</svg>