<svg width="42" height="42" fill="#fff100" stroke="#fff9bb"
    stroke-miterlimit="10" viewBox="0 0 42 42" xmlns="http://www.w3.org/2000/svg"
>
    <path
        fill="#FFF100"
        stroke="#FFF9BB"
        stroke-miterlimit="10"
        d="M30.806 25.005c.23-.53-.407-.99-.955-.743-1.072.464-2.227.705-3.395.707a8.22 8.22 0 0 1-5.829-2.352c-1.555-1.525-2.441-3.605-2.465-5.783a7.94 7.94 0 0 1 1.291-4.28.65.65 0 0 0 .121-.359c.004-.129-.03-.256-.098-.366a.65.65 0 0 0-.284-.25.66.66 0 0 0-.375-.051 9.99 9.99 0 0 0 2.582 19.701c2.006.002 3.969-.587 5.642-1.694a10.21 10.21 0 0 0 3.766-4.531zm-5.854-13.386a.64.64 0 0 0-.418-.107c-.148.014-.285.079-.39.184s-.17.242-.184.39a.64.64 0 0 0 .107.418l.69 1.043c.282.417.43.911.424 1.415.001.503-.146.995-.424 1.415l-.69 1.043c-.083.122-.121.27-.107.418s.079.285.184.39.243.17.39.184a.64.64 0 0 0 .418-.107l1.043-.619c.415-.288.909-.443 1.415-.442s.997.159 1.415.442l1.026.69c.122.083.27.121.418.107s.285-.079.39-.184.17-.242.184-.39a.64.64 0 0 0-.107-.418l-.672-1.114a2.7 2.7 0 0 1-.424-1.415 2.62 2.62 0 0 1 .424-1.415l.69-1.043a.64.64 0 0 0 .107-.418c-.014-.148-.079-.285-.184-.39s-.242-.17-.39-.184a.64.64 0 0 0-.418.107l-1.043.76c-.419.278-.912.426-1.415.424-.504.006-.997-.142-1.415-.424l-1.043-.76z" />
</svg>