<svg
  width="42"
  height="42"
  viewBox="0 0 42 42"
  fill="none" xmlns="http://www.w3.org/2000/svg"
>
  <path
    d="M10.717 10.911c1.089.318 2.036 1.001 2.68 1.935s.947 2.062.857 3.193a5.75 5.75 0 0 1-3.325 4.669m2.493-12.962a9.52 9.52 0 0 1 3.396 3.636 9.5 9.5 0 0 1 1.096 4.853 9.92 9.92 0 0 1-1.259 4.342c-.749 1.331-1.794 2.472-3.056 3.333"
    stroke="#f48278" stroke-miterlimit="10" stroke-linecap="round" />
  <path d="M8.966 17.561a1.75 1.75 0 1 0 0-3.501 1.75 1.75 0 1 0 0 3.502z" fill="#f48278" />
  <g stroke-miterlimit="10" stroke-width=".75">
    <path
      d="M28.5 23a3.5 3.5 0 0 0 3.234-2.161 3.5 3.5 0 0 0-.759-3.814 3.5 3.5 0 0 0-3.814-.759A3.5 3.5 0 0 0 25 19.5a3.5 3.5 0 0 0 3.5 3.5z"
      fill="#fed2a6" stroke="#180e0e" />
    <path d="M28.991 36C24 36 24 24 24 24h10s0 12-5.009 12z" fill="#b691c3" stroke="#694099" />
  </g>
</svg>