<svg
  width="42"
  height="42"
  viewBox="0 0 42 42"
  fill="none" xmlns="http://www.w3.org/2000/svg"
>
  <path d="M31.69 18.056H10.451v13.847H31.69V18.056z" fill="#e68fa2" />
  <path
    d="M32.822 6.72l-5.305 1.026 3.714 4.633 2.617-.531-1.026-5.128zm-9.125 1.768l-2.617.513 3.678 4.722 2.599-.513-3.661-4.722zm-6.508 1.273l-2.617.548 3.643 4.722 2.617-.513-3.643-4.757zm-6.578 1.362l-1.291.248c-.347.072-.677.21-.973.407a2.83 2.83 0 0 0-.725.725 2.37 2.37 0 0 0-.389.955 2.6 2.6 0 0 0 0 1.043l.513 2.6 6.508-1.291-3.643-4.686zm21.027 8.63v10.61H10.416v-10.61h21.221zm2.67-2.653H7.781v13.281c0 .704.279 1.378.777 1.876s1.172.777 1.876.777h21.221a2.65 2.65 0 0 0 1.021-.197c.324-.132.618-.327.867-.574s.445-.54.58-.863.204-.669.204-1.019L34.307 17.1z"
    fill="#be4070" />
</svg>