<svg
  width="42"
  height="42"
  viewBox="0 0 42 42"
  fill="none" xmlns="http://www.w3.org/2000/svg"
>
  <path
    d="M10.717 10.911c1.089.318 2.036 1.001 2.68 1.935s.947 2.062.857 3.193a5.75 5.75 0 0 1-3.325 4.669m2.493-12.962a9.52 9.52 0 0 1 3.396 3.636 9.5 9.5 0 0 1 1.096 4.853 9.92 9.92 0 0 1-4.315 7.675"
    stroke="#f48278" stroke-miterlimit="10" stroke-linecap="round" />
  <path d="M8.966 17.561a1.75 1.75 0 1 0 0-3.501 1.75 1.75 0 1 0 0 3.502z" fill="#f48278" />
  <path
    d="M15.881 20.727h1.051l2.472 6.037h.085l2.472-6.037h1.051V28h-.824v-5.526h-.071L19.844 28h-.796l-2.273-5.526h-.071V28h-.824v-7.273zm12.22 5.043v-3.224h.838V28h-.838v-.923h-.057a1.79 1.79 0 0 1-.597.707c-.27.192-.611.288-1.023.288-.341 0-.644-.075-.909-.224s-.473-.379-.625-.682-.227-.69-.227-1.154v-3.466h.838v3.409c0 .398.111.715.334.952s.511.355.859.355c.208 0 .42-.053.636-.16s.4-.27.547-.49.224-.501.224-.842zm3.211-5.043V28h-.838v-7.273h.838zm3.907 1.818v.71h-2.827v-.71h2.827zm-2.003-1.307h.838v5.199c0 .237.034.414.103.533s.161.194.27.234a1.08 1.08 0 0 0 .352.057c.092 0 .168-.005.227-.014l.142-.028.17.753c-.057.021-.136.043-.238.064a1.75 1.75 0 0 1-.387.036c-.237 0-.469-.051-.696-.153s-.412-.257-.561-.465-.22-.471-.22-.788v-5.426zM36.48 28v-5.454h.838V28h-.838zm.426-6.364c-.163 0-.304-.056-.423-.167s-.174-.245-.174-.401.058-.29.174-.401.259-.167.423-.167.303.056.419.167a.53.53 0 0 1 .178.401.53.53 0 0 1-.178.401c-.116.111-.256.167-.419.167z"
    fill="#375d4c" />
</svg>