<svg
    width="42"
    height="42"
    viewBox="0 0 42 42"
    fill="none" xmlns="http://www.w3.org/2000/svg"
>
    <path
        d="M12.053 13.807c0 .051.018.1.051.137s.077.056.123.056h3.6c.046 0 .09-.02.122-.056s.051-.085.051-.137v-.579c0-.591-.211-1.157-.586-1.575S14.53 11 14 11s-1.039.235-1.414.652-.586.984-.586 1.575l.053.579z"
        fill="#92278f" stroke="#c3922e" stroke-width=".75" />
    <path d="M14.006 16v-2 2zM13 14.757V14v.757zM15 16h-2 2z" fill="#d9dd0e" />
    <path d="M14.006 16v-2M13 14.757V14m2 2h-2" stroke="#c3922e" stroke-width=".75"
        stroke-linecap="round" stroke-linejoin="round" />
    <path d="M24.996 25.838v-4.121 4.121zm-4.992 0v-4.121 4.121z" fill="#9fdcb2" />
    <g stroke="#483807">
        <path d="M24.996 25.838v-4.121m-4.992 4.121v-4.121" stroke-linecap="round" />
        <path
            d="M24.247 18.419h-3.494c-.824 0-1.236 0-1.492.483-.143.269-.206.63-.234 1.166-.038.742-.058 1.114.09 1.381s.394.267.886.267h4.992c.492 0 .737 0 .886-.267s.129-.638.09-1.381c-.027-.536-.091-.897-.234-1.166-.256-.483-.667-.483-1.491-.483zm-4.243-3.297c0-1.541 0-2.311.201-2.885.131-.376.321-.688.548-.905C21.1 11 21.567 11 22.5 11s1.4 0 1.747.331c.228.217.417.529.548.905.201.574.201 1.344.201 2.885v3.297h-4.992v-3.297z"
            fill="#f5e0cd" />
    </g>
    <g stroke-width=".75" fill="#8c7342" stroke="#5a3b00" stroke-miterlimit="10">
        <path
            d="M10.637 16.968h1.468v11.813H10V17.587a.62.62 0 0 1 .188-.444.62.62 0 0 1 .449-.175z" />
        <path d="M10.672 16.968h20.991a.67.67 0 0 1 .672.672v2.405H10V17.64a.67.67 0 0 1 .672-.672z" />
        <path d="M27.207 16.968h4.651a.67.67 0 0 1 .672.672v11.141h-5.305V16.968h-.018z" />
        <path
            d="M27.207 16.968h4.527c.216 0 .423.086.575.238s.238.36.238.575v2.476h-5.305v-3.289h-.035z" />
    </g>
    <path
        d="M30.089 19.002c.205 0 .371-.222.371-.495s-.166-.495-.371-.495-.371.222-.371.495.166.495.371.495z"
        fill="#5a3b00" />
</svg>