<svg
  width="42"
  height="42"
  viewBox="0 0 42 42"
  fill="none" xmlns="http://www.w3.org/2000/svg"
>
    <path
      d="M11.972 8.953H30.01a3.02 3.02 0 0 1 3.019 3.019V30.01a3.02 3.02 0 0 1-3.019 3.019H11.972a3.02 3.02 0 0 1-3.019-3.019V11.972a3.02 3.02 0 0 1 3.019-3.019z" fill="#ddd" stroke="#26276c" />
    <path
      d="M20.991 31.018a10.03 10.03 0 0 0 10.027-10.027 10.03 10.03 0 0 0-10.027-10.027 10.03 10.03 0 0 0-10.027 10.027 10.03 10.03 0 0 0 10.027 10.027z" fill="#ddd" stroke="#26276c" />
  <path
    d="M26.733 17h-11.99c-.41 0-.743.332-.743.743v2.458c0 .41.332.743.743.743h11.99c.41 0 .743-.333.743-.743v-2.458c0-.41-.333-.743-.743-.743z"
    stroke="#26276c" stroke-width=".3" />
  <path d="M21.534 22.943l-3.006 2.989 1.91.584-1.574 2.511 3.696-2.794-2.016-.707.99-2.582z"
    fill="#f6ee61" />
  <path
    d="M16.97 20.036c-.168-.001-.312-.045-.431-.133a.82.82 0 0 1-.274-.385c-.063-.168-.095-.371-.095-.608s.032-.439.095-.606.155-.295.275-.383.264-.132.43-.132a.7.7 0 0 1 .429.133.82.82 0 0 1 .274.383c.064.167.096.369.096.605s-.032.441-.095.609-.154.296-.274.385-.263.132-.43.132zm0-.284c.148 0 .263-.072.346-.216s.126-.353.126-.625c0-.181-.019-.334-.058-.459s-.092-.221-.163-.285-.154-.098-.251-.098c-.147 0-.262.072-.346.217s-.126.353-.127.625c0 .182.019.335.056.461s.093.22.163.284.155.096.254.096zm1.936.284c-.168-.001-.312-.045-.431-.133a.82.82 0 0 1-.274-.385c-.063-.168-.095-.371-.095-.608s.032-.439.095-.606.156-.295.275-.383.264-.132.43-.132a.7.7 0 0 1 .429.133.82.82 0 0 1 .274.383c.064.167.096.369.096.605s-.032.441-.095.609-.154.296-.274.385-.263.132-.43.132zm0-.284c.148 0 .263-.072.346-.216s.126-.353.126-.625a1.58 1.58 0 0 0-.058-.459c-.038-.126-.092-.221-.163-.285s-.154-.098-.251-.098c-.147 0-.262.072-.346.217s-.126.353-.127.625c0 .182.019.335.056.461s.093.22.163.284.155.096.254.096zm1.937.284c-.168-.001-.312-.045-.431-.133a.82.82 0 0 1-.274-.385c-.063-.168-.095-.371-.095-.608a1.72 1.72 0 0 1 .095-.606c.064-.168.155-.295.275-.383s.264-.132.43-.132a.7.7 0 0 1 .429.133.82.82 0 0 1 .274.383c.064.167.096.369.096.605s-.032.441-.095.609-.155.296-.274.385-.263.132-.43.132zm0-.284c.148 0 .263-.072.346-.216s.126-.353.126-.625a1.58 1.58 0 0 0-.058-.459c-.038-.126-.092-.221-.163-.285s-.154-.098-.251-.098c-.147 0-.262.072-.346.217s-.126.353-.127.625c0 .182.019.335.056.461s.093.22.163.284.155.096.254.096zm1.936.284c-.168-.001-.312-.045-.431-.133a.82.82 0 0 1-.274-.385c-.063-.168-.095-.371-.095-.608s.032-.439.095-.606.155-.295.275-.383.264-.132.43-.132a.7.7 0 0 1 .429.133c.119.088.21.216.274.383s.096.369.096.605-.032.441-.095.609-.154.296-.274.385-.263.132-.43.132zm0-.284c.148 0 .263-.072.346-.216s.126-.353.126-.625a1.58 1.58 0 0 0-.058-.459c-.038-.126-.092-.221-.163-.285s-.154-.098-.252-.098c-.147 0-.262.072-.346.217s-.126.353-.127.625c0 .182.019.335.056.461s.093.22.163.284.155.096.253.096zm1.937.284c-.168-.001-.312-.045-.431-.133a.82.82 0 0 1-.274-.385c-.063-.168-.095-.371-.095-.608s.032-.439.095-.606.155-.295.275-.383.264-.132.43-.132a.7.7 0 0 1 .429.133.82.82 0 0 1 .274.383c.064.167.096.369.096.605s-.032.441-.095.609-.154.296-.274.385-.263.132-.43.132zm0-.284c.148 0 .263-.072.346-.216s.126-.353.126-.625c0-.181-.019-.334-.058-.459s-.092-.221-.163-.285-.154-.098-.251-.098c-.147 0-.262.072-.346.217s-.126.353-.127.625c0 .182.019.335.056.461s.093.22.163.284.155.096.254.096z"
    fill="#fff" />
</svg>