<svg
  width="42"
  height="42"
  viewBox="0 0 42 42"
  fill="none" xmlns="http://www.w3.org/2000/svg"
>
  <path
    d="M23.927 8.842a8.38 8.38 0 0 0-7.869 5.659h-.318c-4.386 0-7.94 2.759-7.94 6.154s3.537 6.154 7.94 6.154c1.347.001 2.678-.283 3.908-.831h3.13v-.159a7.88 7.88 0 0 0 1.149.124 8.56 8.56 0 0 0 8.559-8.559 8.56 8.56 0 0 0-8.559-8.559v.018z"
    fill="#83deee" />
  <path
    d="M24.086 31.142l-4.315 6.472c-.122.176-.305.302-.513.354a.85.85 0 0 1-.619-.124c-.088-.058-.163-.134-.221-.222a.78.78 0 0 1-.115-.291c-.025-.103-.026-.211-.005-.314s.065-.202.129-.287l4.315-6.49a.74.74 0 0 1 .513-.336c.103-.02.21-.02.313.002s.201.063.288.122a.83.83 0 0 1 .354.513c.02.103.02.21-.002.313s-.063.201-.122.288zm9.85-13.935c-.009 2.647-1.065 5.183-2.937 7.055s-4.408 2.927-7.055 2.937h-3.342L16.535 33.3c-.063.09-.14.167-.23.23a.99.99 0 0 1-.283.124h-.318c-.102-.001-.204-.018-.301-.053-.088-.058-.161-.137-.212-.23-.066-.082-.109-.179-.124-.283-.035-.103-.035-.215 0-.318.016-.106.052-.208.106-.301l3.537-5.199h-5.553a6.86 6.86 0 0 1-2.723-.743 6.72 6.72 0 0 1-2.264-1.645c-.622-.707-1.097-1.53-1.397-2.423-.284-.895-.381-1.839-.283-2.773s.386-1.838.849-2.655a6.7 6.7 0 0 1 4.403-3.165c.921-.195 1.873-.195 2.794 0a9.99 9.99 0 0 1 11.172-6.636 9.99 9.99 0 0 1 8.281 10.014l-.053-.035zm-1.627 0c-.004-1.62-.479-3.204-1.367-4.56s-2.15-2.424-3.633-3.076-3.124-.859-4.723-.596-3.087.985-4.283 2.078a8.42 8.42 0 0 0-2.723 5.659.81.81 0 0 1-.023.346c-.033.112-.089.216-.165.305s-.171.16-.277.208-.222.074-.339.074-.232-.025-.339-.074-.201-.12-.277-.208-.133-.192-.165-.305a.81.81 0 0 1-.023-.346 9.55 9.55 0 0 1 .177-1.309c-.7-.143-1.422-.143-2.122 0a4.88 4.88 0 0 0-1.91.902 4.97 4.97 0 0 0-1.379 1.592c-.351.62-.568 1.307-.637 2.016a5.13 5.13 0 0 0 3.024 5.164c.653.285 1.357.435 2.069.442H23.98a8.4 8.4 0 0 0 8.365-8.365l-.035.053z"
    fill="#00b3c8" />
</svg>