<svg xmlns="http://www.w3.org/2000/svg" width="42" height="42" fill="none" viewBox="0 0 42 42">
    <g stroke="#9a2f83" stroke-miterlimit="10">
        <path
            d="M20.461 12.614h7.198c1.355 0 2.453 1.098 2.453 2.453v19.488c0 1.355-1.098 2.453-2.453 2.453h-7.198c-1.355 0-2.453-1.098-2.453-2.453V15.067c0-1.355 1.098-2.453 2.453-2.453z"
            fill="#efb1c3" />
        <path
            d="M15.014 16.995a3.63 3.63 0 0 1-1.769-4.209 4.12 4.12 0 0 1 3.13-2.812m-4.88 8.86a7.07 7.07 0 0 1-1.776-3.144c-.31-1.184-.307-2.428.007-3.611a7.29 7.29 0 0 1 1.501-2.882 7.31 7.31 0 0 1 2.602-1.946"
            stroke-linecap="round" />
    </g>
    <g fill="#9a2f83">
        <circle cx="20.9" cy="16.75" r="1.29" />
        <circle cx="24.154" cy="16.75" r="1.29" />
        <circle cx="27.39" cy="16.75" r="1.29" />
        <circle cx="20.9" cy="19.951" r="1.29" />
        <circle cx="24.154" cy="19.951" r="1.29" />
        <circle cx="27.39" cy="19.951" r="1.29" />
        <circle cx="20.9" cy="23.54" r="1.29" />
        <circle cx="24.154" cy="23.54" r="1.29" />
        <circle cx="27.39" cy="23.54" r="1.29" />
        <path
            d="M24.05 31.691a1.592 1.592 0 1 0 0-3.183 1.592 1.592 0 0 0 0 3.183zm3.148-3.962l-1.149 1.291a2.23 2.23 0 0 1 .283 1.079 2.28 2.28 0 0 1-.177.849l1.291 1.149a3.88 3.88 0 0 0 .566-2.034 3.8 3.8 0 0 0-.814-2.334zm-5.411 2.334a2.28 2.28 0 0 1 .177-.849l-1.291-1.149a3.82 3.82 0 0 0-.566 1.998 3.96 3.96 0 0 0 .814 2.37l1.149-1.291a2.23 2.23 0 0 1-.283-1.079zm1.203-1.945a2.18 2.18 0 0 1 1.079-.283c.29-.002.579.052.849.159l1.149-1.291a4.03 4.03 0 0 0-1.998-.548 3.91 3.91 0 0 0-2.37.796l1.291 1.167zm2.157 3.962a2.28 2.28 0 0 1-1.079.283 2.36 2.36 0 0 1-.867-.159l-1.149 1.273c.608.368 1.305.563 2.016.566a3.98 3.98 0 0 0 2.458-.796l-1.379-1.167z" />
    </g>
</svg>