<svg
  width="42"
  height="42"
  viewBox="0 0 42 42"
  fill="none" xmlns="http://www.w3.org/2000/svg"
>
  <path
    d="M15 27c-.902-.53-1.656-1.32-2.185-2.285s-.81-2.07-.815-3.197.265-2.236.784-3.207 1.266-1.77 2.162-2.311M26 15c.902.53 1.656 1.32 2.185 2.285s.81 2.07.815 3.197-.265 2.236-.784 3.207-1.266 1.77-2.162 2.311M11 28c-2.399-1.352-3.918-3.942-3.998-6.802C6.93 18.231 8.458 15.446 11 14m19 0c2.398 1.352 3.918 3.942 3.998 6.802C34.07 23.769 32.542 26.554 30 28"
    stroke="#9747ff" stroke-width="2" stroke-miterlimit="10" stroke-linecap="round" />
  <path
    d="M26 21.625c0-.346-.279-.625-.625-.625s-.625.279-.625.625c0 1.035-.84 1.875-1.875 1.875H19.75v-.625c0-.252-.152-.48-.387-.578s-.502-.043-.682.135l-1.25 1.25c-.244.244-.244.641 0 .885l1.25 1.25a.62.62 0 0 0 .682.135c.234-.098.387-.324.387-.576v-.625h3.125c1.727 0 3.125-1.398 3.125-3.125zm-10-1.25c0 .346.279.625.625.625s.625-.279.625-.625c0-1.035.84-1.875 1.875-1.875h3.125v.625c0 .252.152.48.387.578s.502.043.682-.135l1.25-1.25c.244-.244.244-.641 0-.885l-1.25-1.25a.62.62 0 0 0-.682-.135c-.234.098-.387.324-.387.578v.623h-3.125c-1.727 0-3.125 1.398-3.125 3.125z"
    fill="#5413a8" />
</svg>