<svg
  width="42"
  height="42"
  viewBox="0 0 42 42"
  fill="none"
  xmlns="http://www.w3.org/2000/svg"
>
  <rect x="13" y="13" width="16" height="16" rx="2" fill="#dfcbf9" />
  <path
    d="M12 15.25A3.25 3.25 0 0 1 15.25 12h11.5A3.25 3.25 0 0 1 30 15.25v11.5A3.25 3.25 0 0 1 26.75 30h-3.536c.406-.432.731-.94.953-1.5h2.583a1.75 1.75 0 0 0 1.75-1.75v-11.5a1.75 1.75 0 0 0-1.75-1.75h-11.5a1.75 1.75 0 0 0-1.75 1.75v2.583a4.8 4.8 0 0 0-1.5.953V15.25zM22.49 28.5a3.25 3.25 0 0 1-2.74 1.5h-4.5A3.25 3.25 0 0 1 12 26.75v-4.5c0-.427.083-.85.247-1.244a3.25 3.25 0 0 1 1.759-1.759c.394-.163.817-.247 1.244-.247h4.5a3.25 3.25 0 0 1 2.298.952A3.25 3.25 0 0 1 23 22.25v4.5a3.24 3.24 0 0 1-.51 1.75zm-8.99-6.25v4.5a1.75 1.75 0 0 0 1.75 1.75h4.5a1.75 1.75 0 0 0 1.75-1.75v-4.5a1.75 1.75 0 0 0-1.75-1.75h-4.5a1.75 1.75 0 0 0-1.75 1.75z"
    fill="#9747ff" />
</svg>