<svg xmlns="http://www.w3.org/2000/svg" width="42" height="42" viewBox="0 0 42 42" fill="none">
  <path d="M25.465 11.866h-8.93v11.3h8.93v-11.3z" fill="#F3F5C6" />
  <path d="M27.835 15.757h-13.67v11.3h13.67v-11.3z" fill="#F3F5C6" />
  <path d="M28.684 19.134h-15.81v11.3h15.81v-11.3z" fill="#F3F5C6" />
  <path
    d="M16.11 11.654h9.762v2.918h2.936v3.908h1.945v1.963h-.973v8.842h.973v1.963H11.3v-2.034h.99v-8.842h-1.061V18.48h1.963v-3.908h2.918v-2.918zm1.963 2.918h5.853v-.973h-5.853v.973zm-3.926 5.871v8.842h2.935v-5.924h7.817v5.853h2.936v-8.842l-13.688.071zm12.68-1.963v-1.945H15.138v1.945h11.689zm-3.837 10.734v-3.891h-3.944v3.891h3.944z"
    fill="#792400" />
</svg>