<svg
  width="42"
  height="42"
  viewBox="0 0 42 42"
  fill="none" xmlns="http://www.w3.org/2000/svg"
>
  <path d="M31.347 11.817H10.716v17.49h20.631v-17.49z" fill="#fff" />
  <path d="M30.814 12.315v16.494H11.25V12.315h19.564zm1.067-.996H10.183v18.406h21.698V11.319z"
    fill="#603913" />
  <path
    d="M9.607 11a.65.65 0 0 1 .301.096.59.59 0 0 1 .211.223h21.762c.05-.089.123-.165.212-.221a.67.67 0 0 1 .3-.098c.173.038.327.13.437.26s.17.291.17.457-.06.327-.17.457-.264.222-.437.26a.67.67 0 0 1-.3-.098c-.09-.056-.163-.132-.212-.221H10.119a.59.59 0 0 1-.211.223c-.09.056-.194.089-.301.096-.173-.038-.327-.13-.437-.26S9 11.883 9 11.717s.06-.327.17-.457.264-.222.437-.26z"
    fill="#c3922e" />
  <path
    d="M23.902 13.371c.725 0 1.302-.697 1.494-1.653a5.89 5.89 0 0 1 0 .637V28.55c0 1.354-.704 2.45-1.558 2.45s-1.536-1.096-1.536-2.45V12.355a3.08 3.08 0 0 1 0-.637c.299.956.896 1.653 1.6 1.653zm6.443 0c.704 0 1.301-.697 1.472-1.653a3.08 3.08 0 0 1 0 .637V28.55c0 1.354-.704 2.45-1.536 2.45s-1.536-1.096-1.536-2.45V12.355v-.637c.299.956.875 1.653 1.6 1.653zm-3.201 0c.704 0 1.301-.697 1.493-1.653v.637V28.55c0 1.354-.683 2.45-1.536 2.45s-1.536-1.096-1.536-2.45V12.355a3.08 3.08 0 0 1 0-.637c.277.956.875 1.653 1.579 1.653z"
    fill="#6ac9cd" />
</svg>