<svg
  width="42"
  height="42"
  viewBox="0 0 42 42"
  fill="none" xmlns="http://www.w3.org/2000/svg">
  <path
    d="M29.267 29.586V22.99c.092-2.236-.702-4.418-2.208-6.073s-3.604-2.65-5.838-2.769c-2.247.101-4.363 1.088-5.884 2.745s-2.324 3.849-2.233 6.097v6.631l16.163-.035z"
    fill="#be1e2d" stroke="#f26d6c" stroke-miterlimit="10" />
  <path
    d="M30.311 28.56H11.955c-.606 0-1.096.491-1.096 1.096v.159c0 .606.491 1.096 1.096 1.096h18.356c.605 0 1.096-.491 1.096-1.096v-.159c0-.606-.491-1.096-1.096-1.096z"
    fill="#f26d6c" />
  <path
    d="M21.84 7.87a.74.74 0 0 0-.734-.743.74.74 0 0 0-.734.743v2.617a.74.74 0 0 0 .734.743.74.74 0 0 0 .734-.743V7.87zm9.955 4.619a.74.74 0 0 0 .006-1.044.74.74 0 0 0-1.044.006l-1.851 1.851a.74.74 0 0 0-.006 1.044.74.74 0 0 0 1.044-.006l1.851-1.851zM12.05 14.242a.74.74 0 0 0 1.044.006.74.74 0 0 0-.006-1.044l-1.851-1.851a.74.74 0 0 0-1.044-.006.74.74 0 0 0 .006 1.044l1.851 1.851z"
    fill="#be1e2d" />
</svg>