<svg
  width="42"
  height="42"
  viewBox="0 0 42 42"
  fill="none" xmlns="http://www.w3.org/2000/svg">
  <path
    d="M10.717 10.911c1.089.318 2.036 1.001 2.68 1.935s.947 2.062.857 3.193a5.75 5.75 0 0 1-3.325 4.669m2.493-12.962a9.52 9.52 0 0 1 3.396 3.636 9.5 9.5 0 0 1 1.096 4.853 9.92 9.92 0 0 1-1.259 4.342c-.749 1.331-1.794 2.472-3.056 3.333"
    stroke="#f48278" stroke-miterlimit="10" stroke-linecap="round" />
  <path d="M8.966 17.561a1.75 1.75 0 1 0 0-3.501 1.75 1.75 0 1 0 0 3.502z" fill="#f48278" />
  <path
    d="M23.643 31C21.631 31 20 29.46 20 27.559s1.631-3.442 3.643-3.442c.241 0 .478.023.706.065m6.175-2.098a5.11 5.11 0 0 1 1.619-.261c.556 0 1.091.089 1.59.251m0 0C33.462 19.783 31.404 18 28.905 18c-2.683 0-4.857 2.054-4.858 4.588-.001.544.101 1.084.301 1.594.47.087.918.262 1.318.515m8.067-2.623c1.901.622 3.267 2.329 3.267 4.337 0 2.199-1.638 4.038-3.825 4.485"
    stroke="#413f3d" stroke-width="1.5" stroke-linecap="round" />
</svg>