<svg
  width="42"
  height="42"
  viewBox="0 0 42 42" xmlns="http://www.w3.org/2000/svg"
  fill="none">
  <path
    d="M32.504 26.898l-1.91-1.114a5.3 5.3 0 0 1 1.167-.902c.28-.158.489-.418.584-.725.09-.314.052-.651-.106-.937s-.419-.495-.725-.601a1.24 1.24 0 0 0-.937.106c-.828.451-1.565 1.05-2.175 1.768l-4.952-2.865 4.952-2.847c.61.718 1.347 1.318 2.175 1.768.144.073.299.121.46.142a1.45 1.45 0 0 0 .477 0 1.24 1.24 0 0 0 .424-.23c.142-.088.253-.218.318-.371a1.08 1.08 0 0 0 .142-.46c.035-.157.035-.32 0-.477a1.24 1.24 0 0 0-.23-.424 1.08 1.08 0 0 0-.371-.318 4.79 4.79 0 0 1-1.167-.902l1.91-1.096c.139-.087.264-.194.371-.318.104-.132.182-.282.23-.442s.055-.326.033-.49-.075-.322-.157-.465-.189-.269-.318-.371c-.151-.079-.312-.138-.478-.177-.164-.026-.331-.026-.495 0a1.45 1.45 0 0 0-.46.177l-1.91 1.096c-.144-.476-.209-.971-.195-1.468a1.24 1.24 0 0 0-.354-.884 1.01 1.01 0 0 0-.389-.265 1.06 1.06 0 0 0-.477-.106 1.24 1.24 0 0 0-.867.354c-.115.11-.207.242-.271.387s-.098.303-.101.462a7.41 7.41 0 0 0 .477 2.776l-4.969 2.776v-5.641a7.85 7.85 0 0 0 2.653-.973 1.29 1.29 0 0 0 .566-.76c.07-.319.02-.653-.142-.937a1.22 1.22 0 0 0-.76-.53c-.157-.043-.322-.053-.484-.029s-.316.082-.454.17c-.432.25-.896.44-1.379.566v-1.91a1.24 1.24 0 0 0-.354-.867c-.175-.167-.395-.28-.633-.326s-.484-.02-.709.071-.417.246-.556.445-.216.434-.224.676v1.875a5.41 5.41 0 0 1-1.362-.566c-.14-.082-.296-.134-.457-.152s-.325-.003-.48.046a1.22 1.22 0 0 0-.761.566 1.24 1.24 0 0 0-.141.937 1.22 1.22 0 0 0 .566.76c.812.482 1.705.811 2.635.973v5.606l-4.952-2.794a7.78 7.78 0 0 0 .495-2.776 1.24 1.24 0 0 0-.375-.853c-.231-.225-.541-.35-.863-.35-.152-.027-.308-.027-.46 0a1.29 1.29 0 0 0-.407.283 1.61 1.61 0 0 0-.265.407c-.035.157-.035.32 0 .478a5.87 5.87 0 0 1-.195 1.468l-2.016-1.008a1.1 1.1 0 0 0-.46-.159 1.17 1.17 0 0 0-.495 0 1.59 1.59 0 0 0-.424.212c-.134.102-.248.228-.336.371a1.4 1.4 0 0 0-.141.477 1.08 1.08 0 0 0 0 .478c.048.16.126.311.23.442a1.61 1.61 0 0 0 .371.318l1.91 1.096a4.88 4.88 0 0 1-1.185.902 1.61 1.61 0 0 0-.371.318 1.24 1.24 0 0 0-.23.424 1.45 1.45 0 0 0 0 .477c.018.161.066.317.141.46s.186.273.318.371c.131.104.281.182.442.23.158.027.319.027.477 0 .16-.02.316-.068.46-.142a7.57 7.57 0 0 0 2.158-1.768l4.952 2.847-4.952 2.865c-.609-.719-1.347-1.319-2.175-1.768-.139-.087-.297-.141-.46-.159a1.41 1.41 0 0 0-.478 0c-.161.048-.311.126-.442.23a1.61 1.61 0 0 0-.318.371c-.073.144-.121.3-.141.46-.034.157-.034.32 0 .477a1.13 1.13 0 0 0 .212.442 1.2 1.2 0 0 0 .371.301 5.3 5.3 0 0 1 1.185.902l-1.91 1.114a1.06 1.06 0 0 0-.371.318c-.104.125-.182.269-.23.424-.035.163-.035.332 0 .495.02.16.068.316.141.46a1.08 1.08 0 0 0 .336.354.97.97 0 0 0 .424.212c.163.035.332.035.495 0 .163-.018.32-.072.46-.159l1.91-1.114c.128.485.193.984.194 1.485a1.15 1.15 0 0 0 .336.866c.228.237.538.376.867.389.322-.01.629-.136.867-.354a1.24 1.24 0 0 0 .354-.867 7.41 7.41 0 0 0-.478-2.776l4.952-2.865v5.765c-.934.145-1.831.476-2.635.973-.142.081-.265.19-.362.321s-.167.28-.204.439a1.24 1.24 0 0 0 .141.937c.173.274.446.471.76.548.157.043.322.053.484.029s.316-.082.454-.17a5.41 5.41 0 0 1 1.362-.566v1.875a1.22 1.22 0 0 0 .371.866 1.22 1.22 0 0 0 .884.379 1.22 1.22 0 0 0 .884-.379c.114-.113.204-.249.265-.397s.091-.308.089-.469v-1.875c.483.126.947.316 1.379.566.138.088.292.146.454.17s.326.015.484-.029c.315-.078.587-.274.76-.548.161-.284.211-.618.141-.937a1.24 1.24 0 0 0-.566-.761 7.18 7.18 0 0 0-2.653-.973v-5.73l4.952 2.865a7.41 7.41 0 0 0-.477 2.776c.007.326.14.637.371.867a1.24 1.24 0 0 0 .866.354 1.06 1.06 0 0 0 .477-.106 1.22 1.22 0 0 0 .389-.283.9.9 0 0 0 .265-.407c.037-.157.037-.32 0-.477a4.6 4.6 0 0 1 .194-1.468l1.91 1.114a1.45 1.45 0 0 0 .46.177c.166.027.337.02.501-.019s.318-.111.454-.211a1.61 1.61 0 0 0 .318-.371c.089-.145.144-.308.159-.477a1.56 1.56 0 0 0 0-.495c-.052-.159-.129-.309-.23-.442-.072-.114-.162-.215-.265-.301z"
    fill="#00aca0" stroke="#9ee2e8" stroke-width=".75" stroke-miterlimit="10" />
</svg>