<svg
    width="42"
    height="42"
    viewBox="0 0 42 42"
    fill="none" xmlns="http://www.w3.org/2000/svg"
>
    <path
        d="M28.24 20.969c.66-.785-.042-2.461-1.567-3.742s-3.297-1.684-3.956-.899.042 2.461 1.567 3.743 3.297 1.684 3.957.899zm5.055-.474c.928-1.63.985-3.346.128-3.834s-2.304.437-3.232 2.067-.985 3.346-.128 3.834 2.304-.437 3.232-2.067z"
        fill="#8eb936" />
    <g stroke="#00b8de" stroke-width=".75" stroke-miterlimit="10">
        <path
            d="M13.255 6h-.119H13h-.153-.102C11.86 6.919 9 10.099 9 12.466S10.532 16 13 16s4-1.378 4-3.534S14.123 6.919 13.255 6z"
            fill="#92d7e7" />
        <path d="M13 13c.53 0 1.039-.105 1.414-.293S15 12.265 15 12" stroke-linecap="round" />
    </g>
    <path
        d="M26.668 22.442h1.45v1.609h1.45v-.796h1.079c.632-.003 1.256-.142 1.83-.407a4.4 4.4 0 0 0 1.495-1.131 5.57 5.57 0 0 0 1.379-3.714v-2.087h-2.529a4.44 4.44 0 0 0-2.157.584c-.683.399-1.259.957-1.68 1.627-.403-.894-1.045-1.66-1.857-2.21-.772-.525-1.684-.808-2.617-.814h-2.9v1.609a5.94 5.94 0 0 0 1.486 3.997 4.83 4.83 0 0 0 1.6 1.251c.616.299 1.288.463 1.973.482zm2.9-1.22c-.01-.949.33-1.868.955-2.582a3.13 3.13 0 0 1 2.299-1.061h1.096v.407c-.007.506-.115 1.005-.318 1.468-.153.43-.387.826-.69 1.167-.3.33-.66.6-1.061.796-.395.177-.823.268-1.256.265h-1.079l.053-.46zm-5.058-4.439c.484.004.962.112 1.401.317s.83.5 1.145.868c.697.79 1.075 1.811 1.061 2.865h-1.45c-.484-.004-.962-.112-1.401-.317s-.83-.5-1.145-.868a4.33 4.33 0 0 1-1.132-2.865h1.521z"
        fill="#006032" />
    <g stroke-miterlimit="10" stroke-width="1.2" stroke-linecap="square">
        <path
            d="M7.587 24.935a19.31 19.31 0 0 1 7.197-2.069c1.463-.144 2.939-.084 4.386.177 3.537.442 6.048 1.945 8.453 2.228a13.05 13.05 0 0 0 7.746-1.68"
            stroke="#b59f85" />
        <path
            d="M7.587 27.481a19.31 19.31 0 0 1 7.197-2.069c1.463-.144 2.939-.084 4.386.177 3.537.442 6.048 1.963 8.453 2.246a13.35 13.35 0 0 0 7.693-1.768"
            stroke="#937857" />
        <path
            d="M7.587 30.063a19.31 19.31 0 0 1 7.197-2.069c1.463-.144 2.939-.084 4.386.177 3.537.442 6.048 1.945 8.453 2.228 2.686.271 5.39-.291 7.746-1.609"
            stroke="#80673e" />
    </g>
</svg>