<svg xmlns="http://www.w3.org/2000/svg" width="42" height="42" viewBox="0 0 42 42" fill="none">
  <path
    d="M16.057 13.918h-3.466c-.654 0-1.185.531-1.185 1.185v3.466c0 .654.531 1.185 1.185 1.185h3.466c.654 0 1.185-.53 1.185-1.185v-3.466c0-.654-.53-1.185-1.185-1.185z"
    fill="#c3e18e" />
  <path
    d="M22.211 13.723H19.7c-.918 0-1.662.744-1.662 1.662v2.511c0 .918.744 1.662 1.662 1.662h2.511c.918 0 1.662-.744 1.662-1.662v-2.511c0-.918-.744-1.662-1.662-1.662z"
    fill="#c3e18e" />
  <path
    d="M29.303 13.918h-3.289c-.703 0-1.273.57-1.273 1.273v3.289c0 .703.57 1.273 1.273 1.273h3.289c.703 0 1.273-.57 1.273-1.273v-3.289c0-.703-.57-1.273-1.273-1.273z"
    fill="#c3e18e" />
  <path d="M18.949 11.512l-4.416-1.951-1.565 3.542 4.416 1.951 1.565-3.542z" fill="#c3e18e" />
  <path
    d="M22.499 10.63l-1.537-.679c-.795-.351-1.724.008-2.076.803l-.293.663c-.351.795.008 1.725.803 2.076l1.537.679c.795.351 1.724-.008 2.076-.803l.293-.663c.351-.795-.008-1.724-.804-2.076z"
    fill="#c3e18e" />
  <path
    d="M27.982 10.179L26.446 9.5c-.795-.351-1.724.008-2.076.803l-.293.663c-.351.795.008 1.724.804 2.076l1.537.679c.795.351 1.724-.008 2.076-.803l.293-.663c.351-.795-.008-1.724-.803-2.076z"
    fill="#c3e18e" />
  <path d="M30.576 19.329h-19.17v12.414h19.17V19.329z" fill="#ddd7e9" />
  <path
    d="M22.671 23.502c-.005-.111.013-.221.053-.324s.101-.197.179-.275.172-.139.275-.179.213-.058.324-.053h3.325a.76.76 0 0 1 .584.23.85.85 0 0 1 .248.601v3.325a.85.85 0 0 1-.831.831h-3.325a.85.85 0 0 1-.513-.248.76.76 0 0 1-.23-.584l-.088-3.325zm1.662 2.493h1.662v-1.662h-1.662v1.662zM14.643 9.514l-4.174 3.325c-.114.125-.2.274-.252.436s-.068.333-.048.501v3.059c-.006.9.286 1.777.831 2.494v12.503a.85.85 0 0 0 .831.831h18.339a.85.85 0 0 0 .831-.831V19.329c.538-.72.83-1.594.831-2.494v-3.059a1.13 1.13 0 0 0-.318-.937L27.34 9.514a.76.76 0 0 0-.513-.177H15.156c-.186-.003-.368.06-.513.177zm2.193 4.81v2.511a2.51 2.51 0 0 1-2.511 2.494c-.328.002-.653-.061-.957-.185s-.579-.308-.811-.54-.416-.508-.54-.811a2.48 2.48 0 0 1-.185-.957v-2.511h5.005zm6.667 0v2.511a2.51 2.51 0 0 1-2.511 2.494c-.328.002-.653-.061-.957-.185s-.579-.308-.811-.54-.416-.508-.54-.811-.187-.629-.185-.957v-2.511h5.005zm6.667 0v2.511a2.51 2.51 0 0 1-2.511 2.494c-.328.002-.653-.061-.957-.185s-.579-.308-.811-.54-.416-.508-.54-.811a2.48 2.48 0 0 1-.185-.957v-2.511h5.005zM17.684 11l-.637 1.662h-3.678L15.456 11h2.228zm1.149 1.662L19.453 11h2.989l.566 1.662h-4.173zM24.139 11h2.387l2.087 1.662h-3.855L24.139 11zm5.093 9.656v10.345h-8.241v-7.498a.85.85 0 0 0-.247-.601.76.76 0 0 0-.584-.23h-5.005c-.108-.002-.215.017-.315.056a.81.81 0 0 0-.269.173.85.85 0 0 0-.248.601v7.498h-1.662V20.655c.86.369 1.817.444 2.723.212.919-.237 1.73-.779 2.299-1.538.389.516.892.935 1.471 1.224s1.216.439 1.863.439 1.284-.15 1.862-.439 1.082-.707 1.471-1.224a4.19 4.19 0 0 0 2.175 1.538c.928.249 1.914.174 2.794-.212h-.088zm-9.992 10.345h-3.236v-6.667h3.325l-.088 6.667z"
    fill="#8e560e" />
</svg>