<svg width="42" height="42" viewBox="0 0 42 42" fill="none" xmlns="http://www.w3.org/2000/svg">
    <g stroke-width=".75" stroke-miterlimit="10">
        <path
            d="M13.001 18.078c.032-1.906.838-3.722 2.243-5.049a7.49 7.49 0 0 1 5.249-2.029c1.958-.028 3.847.701 5.254 2.028s2.216 3.142 2.252 5.049c.028 1.093-.211 2.177-.697 3.163a6.95 6.95 0 0 1-2.099 2.507.48.48 0 0 0-.146.127c-.039.052-.067.11-.082.173 0 .248-.134.534-.201.834-.002.021-.008.042-.02.06s-.028.033-.047.044-.04.012-.06.012-.041-.004-.06-.012h-3.144c-.021.009-.044.014-.067.014s-.046-.005-.067-.014c-.02-.016-.036-.036-.047-.058a.18.18 0 0 1-.019-.072v-.665l1.057-1.603a.79.79 0 0 0 .107-.521c-.037-.175-.136-.333-.281-.443l-1.806-1.342.803-1.225c.107-.162.146-.358.107-.547a.68.68 0 0 0-.117-.263c-.058-.079-.132-.145-.217-.194a.78.78 0 0 0-.562-.104.72.72 0 0 0-.27.114c-.081.056-.148.128-.199.211L18.7 20.059a.64.64 0 0 0-.108.243c-.018.088-.018.178.001.265.027.18.122.343.268.456l1.833 1.342-.803 1.225a.68.68 0 0 0-.12.391v.86c.009.021.013.043.013.065s-.005.045-.013.065c-.047.017-.1.017-.147 0h-3.211c-.044.012-.09.012-.134 0-.01-.034-.01-.07 0-.104l-.187-.834c-.04-.125-.126-.232-.241-.3a6.98 6.98 0 0 1-2.122-2.495c-.495-.983-.745-2.067-.727-3.162z"
            fill="#fbc926" stroke="#f99d42" />
        <path
            d="M16.115 26h-.107c-.01.026-.01.055 0 .081-.007.026-.007.054 0 .081l.245 1.533a2.2 2.2 0 0 0 .652 1.373 2.77 2.77 0 0 0 1.465.751h.23a10.06 10.06 0 0 0 3.806 0h.23c.57-.104 1.087-.367 1.472-.75s.617-.866.661-1.374a11.24 11.24 0 0 1 .23-1.533v-.081V26h-.092-8.793z"
            fill="#d4d8d3" stroke="#8c959d" />
    </g>
</svg>