<svg
  width="42"
  height="42"
  viewBox="0 0 42 42"
  fill="none" xmlns="http://www.w3.org/2000/svg"
>
  <path
    d="M30.063 20.991a8.84 8.84 0 0 0-.707-3.537 8.84 8.84 0 0 0-1.924-2.886c-.826-.826-1.806-1.479-2.886-1.924a9.07 9.07 0 0 0-9.903 1.928c-1.273 1.27-2.137 2.891-2.484 4.655s-.159 3.592.539 5.248c.924 2.173 2.654 3.904 4.828 4.828a9.07 9.07 0 0 0 7.074 0c1.077-.457 2.056-1.118 2.883-1.945a9.09 9.09 0 0 0 2.582-6.366zm4.333 4.35c-.017.073-.055.14-.108.193s-.12.09-.193.108l-4.598 1.521v4.792a.46.46 0 0 1-.195.407c-.071.037-.15.057-.23.057s-.159-.019-.23-.057l-4.616-1.415-2.829 3.891a.48.48 0 0 1-.407.212c-.08 0-.159-.019-.229-.056s-.132-.091-.177-.156l-2.9-3.891-4.58 1.485a.46.46 0 0 1-.442 0c-.067-.044-.121-.105-.158-.176a.48.48 0 0 1-.054-.23v-4.863L7.94 25.642c-.075-.016-.145-.053-.201-.106s-.097-.12-.117-.195a.46.46 0 0 1 0-.46l2.812-3.891-2.741-3.89c-.039-.07-.059-.149-.059-.23s.02-.159.059-.23a.44.44 0 0 1 .318-.318l4.58-1.503v-4.792a.51.51 0 0 1 .054-.238c.037-.074.091-.138.158-.186a.44.44 0 0 1 .221-.059c.078 0 .154.02.221.059l4.439 1.415 2.9-3.944c.049-.059.112-.106.183-.137s.147-.045.224-.04a.46.46 0 0 1 .407.177l2.829 3.891 4.58-1.468c.075-.03.157-.041.237-.031s.157.04.222.088.118.111.152.185a.48.48 0 0 1 .043.235v4.845l4.598 1.503c.074.021.142.061.194.117s.09.125.106.201a.53.53 0 0 1 0 .46l-2.829 3.89 2.829 3.891a.51.51 0 0 1 0 .46h.035z"
    fill="#ed7c31" />
  <path
    d="M20.991 30.046c5.001 0 9.054-4.054 9.054-9.054s-4.054-9.054-9.054-9.054-9.054 4.054-9.054 9.054 4.054 9.054 9.054 9.054z"
    fill="#ffec5f" />
</svg>