<svg
  width="42"
  height="42"
  viewBox="0 0 42 42"
  fill="none" xmlns="http://www.w3.org/2000/svg"
>
  <path
    d="M21.645 24.138h-7.763c0-2.059.818-4.034 2.274-5.49s3.431-2.274 5.49-2.274 4.034.818 5.49 2.274 2.274 3.431 2.274 5.49h-7.763z"
    fill="#ffec5a" />
  <path
    d="M12.662 24.139H13.9a7.62 7.62 0 0 1 .601-3.024c.401-.918.964-1.757 1.662-2.476.712-.703 1.552-1.261 2.476-1.645.95-.409 1.973-.62 3.006-.62s2.057.211 3.006.62c.923.384 1.764.942 2.476 1.645a8.01 8.01 0 0 1 1.662 2.476 7.62 7.62 0 0 1 .601 3.024h1.238l2.423-3.342a.39.39 0 0 0 0-.389c-.013-.066-.045-.126-.092-.173s-.108-.079-.173-.092l-3.926-1.309v-4.103c.003-.069-.012-.138-.043-.2s-.077-.115-.134-.154a.39.39 0 0 0-.389 0l-3.926 1.256-2.37-3.378a.44.44 0 0 0-.354-.177.44.44 0 0 0-.354.177l-2.423 3.325-3.926-1.256a.39.39 0 0 0-.389 0c-.057.039-.103.092-.134.154s-.046.131-.043.2v4.103l-3.926 1.309c-.066.013-.126.045-.173.092s-.079.108-.092.173a.39.39 0 0 0 0 .389l2.476 3.395z"
    fill="#ff9b24" />
  <path d="M8.223 21.645v-3.466" stroke="#ff9b24" stroke-width=".75" stroke-miterlimit="10" />
  <path d="M9.939 18.692l-1.715-2.989-1.715 2.989h3.431z" fill="#ff9b24" />
  <path
    d="M35.369 26.633c-.124-2.21-3.13-3.961-6.826-3.961a10.61 10.61 0 0 0-3.289.513 10.61 10.61 0 0 0-7.958 0c-1.257-.515-2.603-.773-3.961-.761-3.784 0-6.844 1.768-6.844 4.103v.141l28.878-.035z"
    fill="#59c66b" stroke="#006f46" stroke-width=".5" stroke-miterlimit="10" />
</svg>