<svg
  width="42"
  height="42"
  viewBox="0 0 42 42"
  fill="none" xmlns="http://www.w3.org/2000/svg"
>
  <path
    d="M21.646 22.636h-7.763c0-2.059.818-4.034 2.274-5.489s3.431-2.274 5.49-2.274 4.034.818 5.49 2.274 2.274 3.431 2.274 5.49h-7.763z"
    fill="#ffec5a" />
  <path
    d="M12.662 22.636H13.9c-.006-1.032.199-2.055.601-3.006a7.73 7.73 0 0 1 4.138-4.138c.953-.397 1.974-.601 3.006-.601s2.054.204 3.006.601c.921.396 1.76.96 2.476 1.662.708.711 1.272 1.552 1.662 2.476.402.951.607 1.974.601 3.006h1.238l2.423-3.342a.39.39 0 0 0 0-.389.39.39 0 0 0-.265-.265l-3.926-1.291v-4.12c.003-.069-.012-.138-.043-.2s-.077-.115-.134-.154a.39.39 0 0 0-.389 0l-3.873 1.273-2.423-3.395a.48.48 0 0 0-.354-.157.48.48 0 0 0-.354.157l-2.423 3.395-3.926-1.326a.39.39 0 0 0-.389 0c-.057.039-.103.092-.134.154s-.046.131-.043.2v4.173l-3.926 1.291a.39.39 0 0 0-.265.265.39.39 0 0 0 0 .389l2.476 3.342z"
    fill="#ec4c14" />
  <path d="M8.223 14.218v3.466" stroke="#ec4c14" stroke-width=".75" stroke-miterlimit="10" />
  <path d="M6.508 17.171l1.715 2.989 1.715-2.989H6.508z" fill="#ec4c14" />
  <path
    d="M35.368 25.13c0-2.14-3.059-3.908-6.755-3.908a10.61 10.61 0 0 0-3.289.531 10.61 10.61 0 0 0-7.958 0c-1.257-.514-2.603-.773-3.961-.76-3.784 0-6.844 1.768-6.844 4.103v.124l28.808-.088z"
    fill="#59c66b" stroke="#006f46" stroke-width=".5" stroke-miterlimit="10" />
</svg>