<svg
  width="42"
  height="42"
  viewBox="0 0 42 42"
  fill="none" xmlns="http://www.w3.org/2000/svg"
>
  <path
    d="M10.717 10.91c1.089.318 2.036 1.001 2.68 1.935s.947 2.062.857 3.193a5.75 5.75 0 0 1-1.039 2.778c-.583.819-1.372 1.471-2.286 1.89m2.493-12.96a9.52 9.52 0 0 1 3.396 3.636 9.5 9.5 0 0 1 1.096 4.853 9.92 9.92 0 0 1-1.259 4.342c-.749 1.331-1.794 2.472-3.056 3.333"
    stroke="#f48278" stroke-miterlimit="10" stroke-linecap="round" />
  <path d="M8.966 17.56a1.75 1.75 0 1 0 0-3.501 1.75 1.75 0 1 0 0 3.501z" fill="#f48278" />
  <path fill-rule="evenodd"
    d="M29 24h-4v4.764c-.614.549-1 1.348-1 2.236a3 3 0 1 0 6 0c0-.889-.386-1.687-1-2.236V24z"
    fill="#92d7e7" />
  <path
    d="M24 19a3 3 0 0 1 3-3 3 3 0 0 1 3 3v8a5 5 0 0 1 1.743 5.581A5 5 0 0 1 27 36a5 5 0 0 1-4.743-3.419A5 5 0 0 1 24 27v-8zm3-1a1 1 0 0 0-1 1v8.535a1 1 0 0 1-.5.866 3 3 0 0 0-1.398 3.375A3 3 0 0 0 27 33.999a3 3 0 0 0 2.898-2.224 3 3 0 0 0-1.398-3.375 1 1 0 0 1-.499-.866V19a1 1 0 0 0-1-1z"
    fill="#5bc9e1" />
</svg>