<svg
  width="42"
  height="42"
  viewBox="0 0 42 42"
  fill="none" xmlns="http://www.w3.org/2000/svg"
>
  <path
    d="M29.002 10.221H11.654a3.13 3.13 0 0 0-3.13 3.13v14.696a3.13 3.13 0 0 0 3.13 3.13h17.348a3.13 3.13 0 0 0 3.13-3.13V13.351a3.13 3.13 0 0 0-3.13-3.13z"
    fill="#e8eaea" stroke="#129d6c" stroke-miterlimit="10" />
  <path
    d="M24.171 14H12.829c-1.01 0-1.829.717-1.829 1.601V26.4c0 .884.819 1.601 1.829 1.601h11.341C25.181 28 26 27.283 26 26.4V15.601c0-.884-.819-1.601-1.829-1.601z"
    fill="#bde3d6" />
  <path
    d="M28.849 24.761l1.088-1.979a.59.59 0 0 0 .062-.259c.001-.091-.019-.181-.057-.261a.49.49 0 0 0-.16-.192.39.39 0 0 0-.221-.07h-2.127a.38.38 0 0 0-.223.067c-.068.046-.123.113-.161.194a.58.58 0 0 0-.052.264.56.56 0 0 0 .072.257l1.038 1.979a.48.48 0 0 0 .159.175c.065.042.137.064.21.064s.146-.022.21-.064a.49.49 0 0 0 .159-.175zm-.739-7.518l-1.038 1.956a.57.57 0 0 0-.072.262c-.003.094.014.187.052.269a.48.48 0 0 0 .161.198.37.37 0 0 0 .222.068h2.076a.37.37 0 0 0 .238-.047c.074-.042.137-.109.182-.192a.6.6 0 0 0 .069-.279.61.61 0 0 0-.064-.28l-1.088-1.956c-.04-.075-.094-.136-.159-.178a.38.38 0 0 0-.21-.065.38.38 0 0 0-.21.065.49.49 0 0 0-.159.178zM12.452 23v-.384l1.44-1.577.418-.482c.109-.138.19-.267.243-.388a.94.94 0 0 0 .081-.384c0-.153-.037-.286-.111-.398a.73.73 0 0 0-.298-.26c-.126-.061-.268-.092-.426-.092-.168 0-.314.035-.439.104a.72.72 0 0 0-.288.288.9.9 0 0 0-.1.435h-.503c0-.256.059-.48.177-.673a1.23 1.23 0 0 1 .482-.452c.205-.108.434-.162.688-.162a1.4 1.4 0 0 1 .68.162c.198.108.352.254.465.437a1.15 1.15 0 0 1 .168.611c0 .16-.029.317-.087.471s-.156.322-.298.509-.336.413-.586.682l-.98 1.048v.034h2.028V23h-2.753zm5.056.06a1.3 1.3 0 0 1-.82-.262c-.226-.176-.398-.431-.518-.765s-.179-.74-.179-1.214.06-.874.179-1.208.294-.591.52-.767.5-.266.818-.266a1.28 1.28 0 0 1 .816.266c.227.176.401.432.52.767s.181.736.181 1.208-.06.879-.179 1.214-.292.589-.518.765a1.3 1.3 0 0 1-.82.262zm0-.469c.318 0 .565-.153.742-.46s.264-.744.264-1.312c0-.378-.041-.7-.122-.965s-.195-.468-.345-.607a.76.76 0 0 0-.539-.209c-.315 0-.562.156-.739.467s-.266.748-.266 1.315c0 .378.04.699.119.963s.194.465.343.603.332.207.543.207zm2.784-1.216a.63.63 0 0 1-.329-.088.67.67 0 0 1-.236-.236.63.63 0 0 1-.088-.33.63.63 0 0 1 .088-.328.67.67 0 0 1 .236-.237.63.63 0 0 1 .329-.088.63.63 0 0 1 .328.088.66.66 0 0 1 .237.237c.059.099.088.208.088.328s-.029.23-.088.33a.66.66 0 0 1-.237.236.63.63 0 0 1-.328.088zm0-.284a.36.36 0 0 0 .186-.05.37.37 0 0 0 .133-.134.36.36 0 0 0 .05-.186.36.36 0 0 0-.05-.186c-.033-.056-.078-.1-.133-.133s-.118-.05-.186-.05a.36.36 0 0 0-.186.05c-.056.033-.1.078-.133.133s-.05.118-.05.186a.36.36 0 0 0 .05.186c.033.056.078.1.133.134s.118.05.186.05zM23.849 21h-.352a.73.73 0 0 0-.297-.46c-.073-.053-.154-.093-.243-.119a.99.99 0 0 0-.278-.04.89.89 0 0 0-.479.133c-.143.089-.255.22-.34.393a1.44 1.44 0 0 0-.125.638c0 .252.042.464.125.638s.197.305.34.393.302.134.479.134a.97.97 0 0 0 .278-.04.82.82 0 0 0 .243-.118.75.75 0 0 0 .188-.195c.052-.078.088-.167.109-.267h.352a1.18 1.18 0 0 1-.145.399 1.09 1.09 0 0 1-.261.3 1.16 1.16 0 0 1-.351.186 1.31 1.31 0 0 1-.413.064 1.22 1.22 0 0 1-.662-.182c-.193-.121-.345-.294-.456-.517s-.166-.489-.166-.795.055-.572.166-.796.263-.396.456-.517a1.22 1.22 0 0 1 .662-.182 1.29 1.29 0 0 1 .413.064c.128.043.247.105.351.188a1.07 1.07 0 0 1 .261.298 1.17 1.17 0 0 1 .145.399z"
    fill="#008a60" />
</svg>