<svg
  width="42"
  height="42"
  viewBox="0 0 42 42"
  fill="none" xmlns="http://www.w3.org/2000/svg"
>
  <path
    d="M28.065 11.937H13.918a1.98 1.98 0 0 0-1.981 1.981v14.147a1.98 1.98 0 0 0 1.981 1.981h14.147a1.98 1.98 0 0 0 1.981-1.981V13.918a1.98 1.98 0 0 0-1.981-1.981z"
    fill="#eeecf0" stroke="#c3922e" stroke-miterlimit="10" />
  <path
    d="M18.604 15.102c-.004-.036-.02-.07-.046-.096s-.059-.042-.096-.046h-2.246a1.17 1.17 0 0 0-.813.329c-.218.211-.345.499-.354.803v9.656c.009.303.136.591.354.802a1.17 1.17 0 0 0 .813.329h2.246c.036-.004.07-.02.096-.046s.042-.06.046-.096V15.102zm4.651 0a.16.16 0 0 1 .142-.141h2.246a1.15 1.15 0 0 1 1.149 1.132v9.656a1.15 1.15 0 0 1-1.149 1.132h-2.246a.16.16 0 0 1-.142-.141V15.102zm-.76-.141h-3.13a.16.16 0 0 0-.159.159v11.583c0 .088.071.159.159.159h3.13c.088 0 .159-.071.159-.159V15.12c0-.088-.071-.159-.159-.159z"
    fill="#c3922e" />
</svg>