<svg
  width="42"
  height="42"
  viewBox="0 0 42 42"
  fill="none" xmlns="http://www.w3.org/2000/svg"
>
  <path
    d="M28.065 11.937H13.918a1.98 1.98 0 0 0-1.981 1.981v14.147a1.98 1.98 0 0 0 1.981 1.981h14.147a1.98 1.98 0 0 0 1.981-1.981V13.918a1.98 1.98 0 0 0-1.981-1.981z"
    fill="#eeecf0" stroke="#c3922e" stroke-miterlimit="10" />
  <path
    d="M20.407 15.209c0-.033-.006-.065-.019-.095s-.031-.057-.054-.08-.05-.041-.08-.054-.062-.019-.095-.019h-4.014a1.1 1.1 0 0 0-.754.352c-.196.212-.299.492-.29.78v9.656a1.09 1.09 0 0 0 .29.78 1.1 1.1 0 0 0 .754.352h4.014c.066 0 .129-.026.175-.072s.072-.109.072-.175V15.209zm1.221 0a.23.23 0 0 1 .061-.174c.022-.023.048-.042.077-.054s.061-.019.092-.019h4.014a1.09 1.09 0 0 1 .417.097c.131.06.25.144.348.249a1.11 1.11 0 0 1 .226.364c.051.135.075.278.07.422v9.656c.005.144-.019.287-.07.422s-.128.258-.226.363a1.09 1.09 0 0 1-.348.249 1.1 1.1 0 0 1-.417.097h-4.014a.23.23 0 0 1-.169-.073c-.022-.023-.038-.051-.049-.081a.23.23 0 0 1-.012-.093V15.209z"
    fill="#c3922e" />
</svg>