<svg xmlns="http://www.w3.org/2000/svg" width="42" height="42" fill="#000" viewBox="0 0 42 42">
    <path
        d="M26.333 7.667H15.667a4 4 0 0 0-4 4v18.667a4 4 0 0 0 4 4h10.667a4 4 0 0 0 4-4V11.667a4 4 0 0 0-4-4zm1.333 22.667c0 .354-.14.693-.39.943s-.589.39-.943.39H15.667c-.354 0-.693-.14-.943-.39s-.39-.589-.39-.943V29h13.333v1.333zm0-4H14.333V11.667c0-.354.14-.693.39-.943s.589-.39.943-.39h10.667c.354 0 .693.14.943.39s.39.589.39.943v14.667zm-7.565-6.123c0-.853.078-1.466.233-1.839s.484-.782.987-1.224c.439-.379.773-.708 1.003-.987a1.46 1.46 0 0 0 .345-.955 1.43 1.43 0 0 0-.441-1.074c-.294-.285-.704-.426-1.228-.426-.546 0-.961.163-1.244.489a3.09 3.09 0 0 0-.602.995l-1.654-.695c.225-.674.637-1.258 1.236-1.753S20.09 12 21 12c1.124 0 1.988.308 2.593.924a3.05 3.05 0 0 1 .907 2.218c0 .526-.115.976-.345 1.35s-.591.797-1.084 1.271c-.524.495-.843.871-.955 1.129s-.169.697-.169 1.318h-1.846zM21 24c-.353 0-.656-.124-.907-.371s-.377-.545-.377-.892.126-.645.377-.892.554-.371.907-.371.656.124.907.371.377.545.377.892-.126.645-.377.892S21.353 24 21 24z" />
</svg>