<svg
  width="42"
  height="42"
  viewBox="0 0 42 42"
  fill="none" xmlns="http://www.w3.org/2000/svg"
>
  <path
    d="M35.492 18.25H23.255V6.72c-.005-.654-.268-1.279-.731-1.739s-1.091-.719-1.744-.719h-.336c-.654 0-1.281.258-1.745.719s-.727 1.086-.731 1.739v10.964H6.455c-.657 0-1.286.261-1.751.725s-.725 1.094-.725 1.751v.336c-.002.327.06.65.183.953s.305.577.536.809.504.416.805.541.625.19.952.19h11.53v12.238a2.53 2.53 0 0 0 2.511 2.529h.23a2.53 2.53 0 0 0 2.529-2.529V23.556h12.237a2.53 2.53 0 0 0 2.529-2.529v-.23c0-.672-.266-1.317-.74-1.794s-1.117-.747-1.789-.752z"
    fill="#ababab" stroke="#4d4a4a" />
  <path d="M20.461 27.375a7.02 7.02 0 1 0 0-14.041 7.02 7.02 0 1 0 0 14.041z" stroke="#f26d6c"
    stroke-width="2" stroke-miterlimit="10" />
  <path
    d="M27.269 18.904h-2.883c-.204-.53-.512-1.012-.907-1.42a4.21 4.21 0 0 0-1.391-.95v-2.936h-2.865v2.847c-.582.192-1.113.513-1.553.939s-.78.945-.993 1.519h-2.9v2.883h2.9a4.05 4.05 0 0 0 2.547 2.458v2.865h2.883v-2.953c.526-.214 1.003-.536 1.398-.943a4.1 4.1 0 0 0 .901-1.426h2.883l-.018-2.883zm-6.738 4.35a2.92 2.92 0 0 1-1.628-.484c-.483-.319-.859-.775-1.082-1.309a2.92 2.92 0 0 1 .629-3.188 2.92 2.92 0 0 1 3.188-.629c.534.223.989.6 1.309 1.082a2.92 2.92 0 0 1-.37 3.673 2.92 2.92 0 0 1-2.046.855z"
    fill="#f26d6c" />
</svg>