<svg
  width="42"
  height="42"
  viewBox="0 0 42 42"
  fill="none" xmlns="http://www.w3.org/2000/svg"
>
  <path d="M31.297 11.873H10.574v18.681h20.723V11.873z" fill="#fff" />
  <path d="M30.762 12.405v17.617H11.11V12.405h19.652zm1.071-1.064H10.039V31h21.795V11.341z"
    fill="#603913" />
  <path
    d="M32.39 11a.58.58 0 0 0-.294.102c-.087.06-.156.143-.198.239h-21.88c-.035-.085-.091-.16-.162-.219A.58.58 0 0 0 9.61 11c-.174.041-.328.139-.439.278S9 11.589 9 11.766s.06.349.171.488.265.237.439.278a.58.58 0 0 0 .294-.102c.087-.06.156-.143.198-.239h21.795c.043.096.112.179.198.239a.58.58 0 0 0 .294.102c.174-.041.328-.139.439-.278s.171-.311.171-.488-.06-.349-.171-.488-.265-.237-.439-.278z"
    fill="#c3922e" />
  <path
    d="M23.561 12.17c-.814.087-1.638-.022-2.4-.319a.27.27 0 0 0 0 .149v4.106c0 .319 1.114.617 2.486.617s2.507-.298 2.507-.617v-4.255c.018-.048.018-.101 0-.149a4.98 4.98 0 0 1-2.593.468zm5.336 0c-.835.098-1.682-.012-2.464-.319a.27.27 0 0 0 0 .149v4.106c0 .319 1.114.617 2.486.617s2.507-.298 2.507-.617v-4.255c-.03-.015-.063-.023-.096-.023s-.067.008-.096.023a4.98 4.98 0 0 1-2.336.319zm-15.88 0a5.05 5.05 0 0 1-2.4-.319.27.27 0 0 0 0 .149v4.106c0 .319 1.114.617 2.486.617s2.422-.383 2.422-.617v-4.255c.018-.048.018-.101 0-.149a4.98 4.98 0 0 1-2.507.468zm5.272 0c-.814.087-1.638-.022-2.4-.319a.27.27 0 0 0 0 .149v4.106c0 .319 1.114.617 2.486.617s2.507-.298 2.507-.617v-4.255c-.03-.015-.063-.023-.097-.023s-.066.008-.096.023c-.761.302-1.586.412-2.4.319z"
    fill="#6ac9cd" />
</svg>