<svg
    viewBox="0 0 42 42"
    width="42"
    height="42"
    fill="none" xmlns="http://www.w3.org/2000/svg"
>
    <path
        d="M10.717 10.911c1.089.318 2.036 1.001 2.68 1.935s.947 2.062.857 3.193a5.75 5.75 0 0 1-3.325 4.669m2.493-12.962a9.52 9.52 0 0 1 3.396 3.636 9.5 9.5 0 0 1 1.096 4.853 9.92 9.92 0 0 1-1.259 4.342c-.749 1.331-1.794 2.472-3.056 3.333"
        stroke="#f48278" class="B H" />
    <path d="M8.966 17.561a1.75 1.75 0 1 0 0-3.501 1.75 1.75 0 1 0 0 3.502z" fill="#f48278" />
    <g class="H">
        <path
            fill="#92D7E7"
            d="M23.166 21.221h.159c.495.531 2.157 2.334 2.157 3.678s-.884 2.034-2.317 2.034c-.29.041-.585.018-.865-.065s-.539-.227-.759-.42-.396-.431-.515-.699-.18-.557-.177-.85c.142-1.379 1.804-3.183 2.317-3.678z"
            class="C D E" />
        <path stroke="#3BC3D9"
            d="M23.308 25.554a1.06 1.06 0 0 1-.707-.301c-.18-.199-.28-.457-.283-.725"
            class="B F G" />
        <path
            fill="#92D7E7"
            d="M30.788 24.616c.013-.008.029-.012.044-.012s.031.004.044.012h.106.106c.672.672 2.812 3.006 2.812 4.722.001.376-.079.749-.234 1.092s-.382.649-.665.897-.616.432-.977.541-.74.138-1.113.088c-1.768 0-2.989-1.008-2.989-2.617s2.14-4.05 2.865-4.722z"
            class="C D E" />
        <path stroke="#3BC3D9"
            d="M31.619 30.222a1.24 1.24 0 0 1-.902-.389 1.31 1.31 0 0 1-.389-.92" class="B F G" />
        <path
            fill="#92D7E7"
            d="M29.108 12.255h.088.212.106c.707.725 3.024 3.254 3.024 5.128a2.85 2.85 0 0 1-.253 1.182c-.168.371-.414.702-.72.971s-.668.467-1.058.584-.801.148-1.205.093c-.404.056-.815.024-1.205-.093s-.751-.316-1.058-.584-.552-.599-.72-.971a2.85 2.85 0 0 1-.253-1.182c0-1.875 2.317-4.403 3.042-5.128z"
            class="C D E" />
        <path stroke="#3BC3D9"
            d="M29.303 18.339c-.373-.005-.729-.158-.99-.424-.258-.273-.403-.633-.407-1.008"
            class="B F G" />
    </g>
</svg>