<svg xmlns="http://www.w3.org/2000/svg" width="16" height="16" viewBox="0 0 16 16" fill="none"
    color="#000">
    <path
        d="M4.398 4.299c.128-.128.302-.2.483-.2s.355.072.483.2l2.735 2.735 2.735-2.735c.128-.128.302-.2.483-.2s.355.072.483.2.2.302.2.483-.072.355-.2.483L9.064 8l2.735 2.735c.128.128.2.302.2.483s-.072.355-.2.483-.302.2-.483.2-.355-.072-.483-.2L8.099 8.965l-2.735 2.735c-.128.128-.302.2-.483.2s-.355-.072-.483-.2-.2-.302-.2-.483.072-.355.2-.483L7.133 8 4.398 5.265c-.128-.128-.2-.302-.2-.483s.072-.355.2-.483z"
        fill="currentColor" />
    <rect x="1.5" y="1.5" width="13" height="13" rx="4" stroke="currentColor" stroke-width="2" />
</svg>