<svg xmlns="http://www.w3.org/2000/svg" width="16" height="16" viewBox="0 0 16 16" fill="none"
    color="#000"
>
    <rect x="1.5" y="1.5" width="13" height="13" rx="4" stroke="currentColor" stroke-width="2" />
    <path fill-rule="evenodd"
        d="M11.968 4.102c.289.189.37.576.181.865l-4.25 6.5c-.05.076-.115.14-.192.188s-.163.079-.253.09-.181.003-.267-.024-.166-.073-.232-.134l-2.75-2.5c-.123-.112-.196-.267-.204-.433s.05-.328.162-.45.267-.196.433-.204.328.05.45.162l2.208 2.007 3.849-5.886c.091-.139.233-.236.395-.27s.331-.002.47.089z"
        fill="currentColor" />
</svg>