<svg xmlns="http://www.w3.org/2000/svg" width="270" height="282" viewBox="0 0 270 282" fill="none"
>
    <g filter="url(#CurtainFabricFilter)">
        <path
            d="M230.894 7H7v253.702c0 1.875.414 3.731 1.217 5.463s1.982 3.307 3.467 4.632 3.248 2.378 5.189 3.095 4.02 1.087 6.121 1.087 4.18-.369 6.121-1.087 3.704-1.769 5.189-3.095 2.663-2.899 3.467-4.632 1.218-3.588 1.218-5.463c0 3.788 1.684 7.422 4.683 10.103s7.067 4.189 11.311 4.195c2.103 0 4.186-.37 6.13-1.088s3.709-1.772 5.196-3.1 2.667-2.904 3.472-4.638S71 262.58 71 260.702c0 3.786 1.685 7.418 4.685 10.095s7.068 4.182 11.31 4.182 8.31-1.504 11.31-4.182 4.684-6.309 4.684-10.095c0 3.788 1.685 7.422 4.683 10.103s7.067 4.189 11.311 4.195c4.248 0 8.323-1.506 11.327-4.188s4.691-6.318 4.691-10.11c0 3.786 1.685 7.418 4.685 10.095s7.067 4.182 11.309 4.182 8.31-1.504 11.31-4.182 4.684-6.309 4.684-10.095c0 3.792 1.688 7.429 4.692 10.11S178.758 275 183.006 275c4.244-.006 8.312-1.514 11.311-4.195S199 264.49 199 260.702c0 3.786 1.685 7.418 4.685 10.095s7.067 4.182 11.309 4.182 8.31-1.504 11.31-4.182 4.684-6.309 4.684-10.095c0 3.792 1.688 7.429 4.692 10.11S242.758 275 247.006 275c4.244-.006 8.312-1.514 11.311-4.195S263 264.49 263 260.702V7h-32.106z"
            fill="#ceeae7" stroke="#5bc9e1" />
    </g>
    <defs>
        <filter id="CurtainFabricFilter" x="0" y="0" width="270" height="282"
            filterUnits="userSpaceOnUse"
            color-interpolation-filters="sRGB">
            <feFlood flood-opacity="0" result="A" />
            <feColorMatrix in="SourceAlpha" values="0 0 0 0 0 0 0 0 0 0 0 0 0 0 0 0 0 0 127 0" />
            <feOffset dy="2" />
            <feGaussianBlur stdDeviation="2" />
            <feColorMatrix values="0 0 0 0 0 0 0 0 0 0 0 0 0 0 0 0 0 0 0.08 0" />
            <feBlend in2="A" result="C" />
            <feColorMatrix in="SourceAlpha" values="0 0 0 0 0 0 0 0 0 0 0 0 0 0 0 0 0 0 127 0" />
            <feOffset />
            <feGaussianBlur stdDeviation="3" />
            <feColorMatrix values="0 0 0 0 0 0 0 0 0 0 0 0 0 0 0 0 0 0 0.02 0" />
            <feBlend in2="C" />
            <feBlend in="SourceGraphic" />
        </filter>
    </defs>
</svg>