<svg xmlns="http://www.w3.org/2000/svg" width="132" height="118" viewBox="0 0 132 118" fill="none"
>
    <g filter="url(#LockShackle)">
        <path
            d="M103.778 63.899v36.995A11.11 11.11 0 0 0 114.884 112a11.11 11.11 0 0 0 11.106-11.116l-.031-36.901v-.084c-.264-7.136-1.795-14.174-4.526-20.782a60.14 60.14 0 0 0-13.007-19.506c-5.571-5.583-12.186-10.012-19.465-13.034a59.89 59.89 0 0 0-45.922 0 59.99 59.99 0 0 0-19.465 13.034c-5.571 5.583-9.991 12.212-13.006 19.506-2.731 6.608-4.262 13.646-4.526 20.782v.056l-.007 2.191c-.019 6.133 4.947 11.114 11.08 11.114s11.095-4.978 11.08-11.108l-.005-2.172v-.081c.248-4.223 1.198-8.38 2.818-12.298a37.96 37.96 0 0 1 8.211-12.314 37.87 37.87 0 0 1 12.288-8.228 37.81 37.81 0 0 1 28.989 0 37.87 37.87 0 0 1 12.288 8.228c3.517 3.525 6.307 7.709 8.21 12.314 1.62 3.918 2.537 8.075 2.785 12.298z"
            fill="#eaebec" />
    </g>
    <defs>
        <filter id="LockShackle" x=".034" y="0" width="131.956" height="118"
            filterUnits="userSpaceOnUse"
            color-interpolation-filters="sRGB">
            <feFlood flood-opacity="0" result="A" />
            <feColorMatrix in="SourceAlpha" values="0 0 0 0 0 0 0 0 0 0 0 0 0 0 0 0 0 0 127 0" />
            <feOffset dy="2" />
            <feGaussianBlur stdDeviation="2" />
            <feColorMatrix values="0 0 0 0 0 0 0 0 0 0 0 0 0 0 0 0 0 0 0.08 0" />
            <feBlend in2="A" result="C" />
            <feColorMatrix in="SourceAlpha" values="0 0 0 0 0 0 0 0 0 0 0 0 0 0 0 0 0 0 127 0" />
            <feOffset />
            <feGaussianBlur stdDeviation="3" />
            <feColorMatrix values="0 0 0 0 0 0 0 0 0 0 0 0 0 0 0 0 0 0 0.02 0" />
            <feBlend in2="C" />
            <feBlend in="SourceGraphic" />
        </filter>
    </defs>
</svg>