<svg width="42" height="42" viewBox="0 0 42 42" xmlns="http://www.w3.org/2000/svg"
    color="#000">
    <path
        fill="currentColor"
        d="M20.563 10.5c.001.172-.033.343-.099.503s-.163.304-.286.425L10.605 21l9.573 9.573c.232.249.358.578.352.918a1.31 1.31 0 0 1-.384.905c-.24.24-.565.378-.905.384a1.31 1.31 0 0 1-.918-.352l-10.5-10.5c-.246-.246-.384-.58-.384-.927s.138-.681.384-.927l10.5-10.5c.246-.246.58-.384.927-.384s.681.138.928.384c.123.121.22.266.286.425s.1.33.099.503z" />
    <path
        fill="currentColor"
        d="M34.563 21a1.33 1.33 0 0 1-1.312 1.313H8.75c-.348 0-.682-.138-.928-.384s-.384-.58-.384-.928.138-.682.384-.928.58-.384.928-.384h24.5A1.33 1.33 0 0 1 34.563 21z" />
</svg>