<svg viewBox="0 0 20 20" fill="none" xmlns="http://www.w3.org/2000/svg" color="#000">
    <path
        d="M16.2251 13.7323C15.4195 12.8477 14.8061 11.8127 14.4218 10.6901C13.6212 8.25351 14.4218 6.66904 13.3183 5.35217C12.9 4.81697 12.0705 4.21839 10.2384 4.11276H9.92828C8.09624 4.31698 7.59856 4.98598 7.20185 5.52118C6.14879 6.8803 6.9999 8.44366 6.28583 10.8943C5.941 12.0219 5.36424 13.0691 4.59082 13.9717"
        stroke="currentColor" stroke-miterlimit="10" stroke-linecap="round" />
    <path d="M4.59082 13.9435H16.2251" stroke="currentColor" stroke-miterlimit="10" stroke-linecap="round" />
    <path
        d="M10.2166 14.232C10.8541 14.232 11.3712 14.7365 11.3713 15.3588C11.3713 15.9812 10.8541 16.4862 10.2166 16.4862C9.5792 16.4861 9.0625 15.9812 9.0625 15.3588C9.06261 14.7366 9.57927 14.2321 10.2166 14.232Z"
        fill="currentColor" stroke="currentColor" />
    <path
        d="M10.2166 2.28845C10.8856 2.28845 11.3713 2.756 11.3713 3.26765C11.3713 3.77925 10.8856 4.24684 10.2166 4.24684C9.54774 4.24674 9.06255 3.7792 9.0625 3.26765C9.0625 2.75605 9.54771 2.28855 10.2166 2.28845Z"
        fill="currentColor" stroke="currentColor" />
</svg>