<svg
    width="32"
    height="32"
    viewBox="0 0 32 32"
    color="#000" xmlns="http://www.w3.org/2000/svg"
>
    <path
        fill="currentColor"
        d="M22 17.313a.56.56 0 0 0-.562-.562h-2.25a.56.56 0 0 0-.562.563v5.063H17.5V10.188l-.036-1.159c-.033-.244-.086-.32-.129-.363s-.119-.096-.363-.129c-.26-.034-.614-.036-1.16-.036l-1.159.036c-.244.033-.32.086-.363.129s-.096.119-.129.363c-.034.26-.036.614-.036 1.159v12.188H13v-8.812a.56.56 0 0 0-.562-.562h-2.25a.56.56 0 0 0-.562.563v8.813H8.313c-.149 0-.292.059-.398.165a.56.56 0 0 0 0 .795c.105.105.249.165.398.165h15a.56.56 0 0 0 .563-.562.56.56 0 0 0-.562-.562H22v-5.062z" />
</svg>