<svg width="25" height="25" viewBox="0 0 25 25" xmlns="http://www.w3.org/2000/svg"
  color="#000">

  <path
    fill="currentColor"
    d="M6.7 6.401c.208-.208.489-.324.783-.324s.575.117.783.324l4.435 4.435 4.435-4.435c.208-.208.489-.324.783-.324s.575.117.783.324.324.489.324.783-.117.575-.324.783l-4.435 4.435 4.435 4.435c.208.207.324.489.324.783s-.117.575-.324.783-.489.324-.783.324-.575-.117-.783-.324L12.7 13.967l-4.435 4.435c-.208.207-.489.324-.783.324s-.575-.117-.783-.324-.324-.489-.324-.783.117-.575.324-.783l4.435-4.435L6.7 7.967c-.208-.208-.324-.489-.324-.783s.117-.575.324-.783z" />
</svg>