<svg
  width="32"
  height="32"
  viewBox="0 0 32 32"
  color="#000" xmlns="http://www.w3.org/2000/svg"
>
  <circle cx="16" cy="16" r="15" stroke="currentColor" stroke-width="2" fill='transparent' />
  <path
    d="M9.901 9.901a1.2 1.2 0 0 1 1.696 0l4.804 4.804 4.804-4.804a1.2 1.2 0 0 1 1.696 0 1.2 1.2 0 0 1 0 1.696l-4.804 4.804 4.804 4.804a1.2 1.2 0 0 1 0 1.696 1.2 1.2 0 0 1-1.696 0l-4.804-4.804-4.804 4.804a1.2 1.2 0 0 1-1.696 0 1.2 1.2 0 0 1 0-1.696l4.804-4.804-4.804-4.804a1.2 1.2 0 0 1 0-1.696z"
    fill="currentColor"
  />
</svg>