<svg
  width="32"
  height="32"
  viewBox="0 0 32 32"
  color="#000" xmlns="http://www.w3.org/2000/svg"
>
  <path
    fill="currentColor"
    d="M12.473 12.067v3.656h5.098c.149 0 .292.059.398.165s.165.249.165.398-.059.292-.165.398a.56.56 0 0 1-.398.165h-5.098v3.656a1.97 1.97 0 0 0 1.969 1.969h6.75a1.97 1.97 0 0 0 1.969-1.969v-8.437a1.97 1.97 0 0 0-1.969-1.969h-6.75a1.97 1.97 0 0 0-1.969 1.969zm-3.142 3.656l1.852-1.852a.56.56 0 0 0 .155-.395c-.002-.147-.061-.287-.165-.391s-.244-.163-.391-.165a.56.56 0 0 0-.395.155l-2.813 2.813c-.105.105-.165.249-.165.398s.059.292.165.398l2.813 2.813a.56.56 0 0 0 .395.155c.147-.002.287-.061.391-.165s.163-.244.165-.391a.56.56 0 0 0-.155-.395l-1.852-1.852h3.142v-1.125H9.331z" />
</svg>