<svg
  width="24"
  height="24"
  viewBox="0 0 24 24"
  color="#000" xmlns="http://www.w3.org/2000/svg"
>
  <path
    fill="currentColor"
    d="M12.5 2c-3.57 0-4.36 3.96-2.37 7.65-.41.32-.73.74-.92 1.22-.93-.19-1.98-.62-2.48-1.61C5.56 6.89 2 7 2 11.5c0 3.57 3.95 4.35 7.64 2.37.32.4.75.72 1.24.92-.2.92-.64 1.96-1.62 2.45C6.9 18.42 7 22 11.5 22c.81 0 1.5-.22 2-.59-.31-.74-.5-1.55-.5-2.41a6.02 6.02 0 0 1 1.3-3.72l-.44-.94c.4-.34.71-.75.91-1.23a4.79 4.79 0 0 1 1.48.56 6 6 0 0 1 5.64.07A7.62 7.62 0 0 0 22 12.5c0-3.58-3.97-4.37-7.67-2.37-.33-.4-.74-.71-1.22-.91.19-.93.63-1.98 1.62-2.47C17.09 5.57 17 2 12.5 2zm-.5 9a1.01 1.01 0 0 1 1 1 1.01 1.01 0 0 1-1 1 .99.99 0 0 1-1-1 .99.99 0 0 1 1-1zm6 4a2 2 0 0 0-2 2v6h2v-2h2v2h2v-6c0-1.1-.9-2-2-2m-2 2h2v2h-2v-2z" />
</svg>