<svg
  width="32"
  height="32"
  viewBox="0 0 32 32"
  color="#000" xmlns="http://www.w3.org/2000/svg"
>
  <path
    fill="currentColor"
    d="M10.75 22.75c-.412 0-.765-.147-1.059-.44s-.441-.647-.441-1.06v-4.5h1.5v4.5h4.5v1.5h-4.5zm6 0v-1.5h4.5v-4.5h1.5v4.5c0 .413-.147.766-.44 1.06a1.44 1.44 0 0 1-1.06.44h-4.5zm-5.25-3l2.25-3L15.438 19l2.25-3 2.813 3.75h-9zm-2.25-4.5v-4.5a1.44 1.44 0 0 1 .441-1.059c.294-.293.647-.441 1.059-.441h4.5v1.5h-4.5v4.5h-1.5zm12 0v-4.5h-4.5v-1.5h4.5c.413 0 .766.147 1.06.441a1.44 1.44 0 0 1 .44 1.059v4.5h-1.5zm-2.625-.75c-.325 0-.594-.106-.806-.319s-.319-.481-.319-.806.106-.594.319-.806.481-.319.806-.319.594.106.806.319.319.481.319.806-.106.594-.319.806-.481.319-.806.319z" />
</svg>