<svg
  width="32"
  height="32"
  viewBox="0 0 32 32"
  color="#000" xmlns="http://www.w3.org/2000/svg"
>
  <path
    fill="currentColor"
    d="M12.25 20.455a2.25 2.25 0 0 0 2.205-1.81 2.25 2.25 0 0 0-1.343-2.517 1.5 1.5 0 0 1 1.387-.922h3a2.93 2.93 0 0 0 1.5-.42v4.305a2.25 2.25 0 0 0-1.468 2.502 2.25 2.25 0 0 0 2.218 1.869 2.25 2.25 0 0 0 2.218-1.869A2.25 2.25 0 0 0 20.5 19.09v-6.27a2.25 2.25 0 0 0 1.459-2.478 2.25 2.25 0 0 0-2.169-1.889 2.25 2.25 0 0 0-2.254 1.786 2.25 2.25 0 0 0 1.343 2.543 1.5 1.5 0 0 1-1.38.922h-3a3 3 0 0 0-2.932 2.37 2.25 2.25 0 0 0-1.499 2.477 2.25 2.25 0 0 0 2.182 1.903zm7.5 1.5a.75.75 0 0 1-.693-.463.75.75 0 0 1 .163-.817.75.75 0 0 1 .817-.163.75.75 0 0 1 .463.693.75.75 0 0 1-.75.75zm0-12a.75.75 0 0 1 .693.463.75.75 0 0 1-.163.817.75.75 0 0 1-.817.163.75.75 0 0 1-.463-.693.75.75 0 0 1 .75-.75zm-7.5 7.5a.75.75 0 0 1 .693.463.75.75 0 0 1-.163.817.75.75 0 0 1-.817.163.75.75 0 0 1-.463-.693.75.75 0 0 1 .75-.75z" />
</svg>