<svg width="42" height="42" viewBox="0 0 42 42" fill="none" xmlns="http://www.w3.org/2000/svg">
<path fill-rule="evenodd" clip-rule="evenodd" d="M23.0375 11.6587C23.1392 11.4174 23.1949 11.1558 23.1949 10.8827C23.1949 9.66924 22.0964 8.68555 20.7414 8.68555C19.3864 8.68555 18.288 9.66924 18.288 10.8827C18.288 11.1586 18.3447 11.4226 18.4484 11.6658C17.645 11.8825 17.0072 12.1733 16.4844 12.5183C15.6483 13.0701 15.1807 13.7163 14.8422 14.1842L14.8349 14.1943C13.7352 15.654 13.6627 17.2203 13.649 18.7268C13.6476 18.8782 13.6468 19.0302 13.6461 19.183V19.1831C13.6393 20.5804 13.6322 22.0498 13.1289 23.8222C12.6103 25.5562 11.7608 27.1723 10.6281 28.5817C10.3809 28.7638 10.2205 29.0568 10.2205 29.3874L10.2208 29.4111C10.2136 29.7053 10.3356 29.9998 10.5788 30.2032C10.8527 30.4324 11.2132 30.4899 11.5296 30.3874H18.7646C18.465 30.7942 18.288 31.2969 18.288 31.8409C18.288 33.1959 19.3864 34.2943 20.7414 34.2943C22.0964 34.2943 23.1949 33.1959 23.1949 31.8409C23.1949 31.2969 23.0178 30.7942 22.7182 30.3874H30.9092C31.4615 30.3874 31.9092 29.9397 31.9092 29.3874C31.9092 29.3247 31.9035 29.2634 31.8924 29.2039C31.9467 28.9109 31.8699 28.5967 31.6565 28.3568C30.3845 26.926 29.4155 25.2524 28.808 23.4368C28.2434 21.6742 28.187 20.2034 28.1334 18.8084C28.1275 18.6553 28.1217 18.503 28.1152 18.3514C28.051 16.8493 27.9259 15.2912 26.7747 13.8756C26.0842 12.9768 24.9563 12.1159 23.0375 11.6587ZM29.1221 28.3874C28.1729 27.0687 27.4261 25.612 26.9092 24.065L26.9054 24.0536L26.9054 24.0536C26.2514 22.015 26.1868 20.2827 26.1347 18.8881L26.1347 18.8878C26.1289 18.7333 26.1233 18.583 26.117 18.4368C26.0532 16.9439 25.9226 15.9924 25.2161 15.129L25.2054 15.1159L25.1951 15.1024C24.6997 14.4532 23.5977 13.5215 20.748 13.3474H20.3111C18.9072 13.514 18.0975 13.85 17.5861 14.1876C17.0691 14.5287 16.7811 14.9165 16.4493 15.375L16.4431 15.3835L16.4367 15.392C15.7607 16.2856 15.6626 17.2487 15.6489 18.745C15.6475 18.8912 15.647 19.0416 15.6464 19.196C15.6411 20.5925 15.6345 22.324 15.0508 24.3757L15.0472 24.3882L15.0472 24.3882C14.6251 25.802 14.0104 27.1474 13.2231 28.3874H29.1221Z" fill="black"/>
</svg>
