<svg
  width="32"
  height="32"
  viewBox="0 0 32 32"
  color="#000" xmlns="http://www.w3.org/2000/svg"
>
  <path
    fill="currentColor"
    d="M21.603 5c-2.251 0-4.25.912-5.603 2.479C14.646 5.912 12.648 5 10.397 5c-1.961.002-3.841.803-5.228 2.226A7.7 7.7 0 0 0 3 12.59c0 8.319 11.858 14.966 12.362 15.245a1.32 1.32 0 0 0 1.275 0C17.142 27.556 29 20.909 29 12.59a7.7 7.7 0 0 0-2.169-5.364C25.444 5.803 23.564 5.002 21.603 5zm-.615 16.371A36.86 36.86 0 0 1 16 25.028a36.86 36.86 0 0 1-4.988-3.657C8.583 19.233 5.69 15.973 5.69 12.59c0-1.281.496-2.509 1.379-3.415s2.08-1.415 3.328-1.415c1.995 0 3.665 1.081 4.358 2.822.101.254.273.471.495.624a1.32 1.32 0 0 0 1.5 0c.222-.153.394-.37.495-.624.694-1.741 2.363-2.822 4.358-2.822 1.248 0 2.446.509 3.328 1.415s1.379 2.134 1.379 3.415c0 3.383-2.894 6.643-5.322 8.781z" />
</svg>