<svg
  width="32"
  height="32"
  viewBox="0 0 32 32"
  color="#000" xmlns="http://www.w3.org/2000/svg"
>
  <path
    fill="currentColor"
    d="M26.667 10.667l-8-7.013a4 4 0 0 0-5.333 0l-8 7.013A4 4 0 0 0 4 13.68v11.653a4 4 0 0 0 4 4h16a4 4 0 0 0 4-4V13.667a4 4 0 0 0-1.333-3zm-8 16h-5.333V20c0-.354.141-.693.391-.943s.589-.391.943-.391h2.667c.354 0 .693.141.943.391s.391.589.391.943v6.667zm6.667-1.333c0 .354-.14.693-.391.943s-.589.39-.943.39h-2.667V20a4 4 0 0 0-4-4h-2.667a4 4 0 0 0-4 4v6.667H8c-.354 0-.693-.14-.943-.39s-.391-.589-.391-.943V13.667c0-.189.041-.376.119-.549s.192-.326.334-.451l8-7c.243-.214.556-.332.88-.332s.637.118.88.332l8 7c.142.125.256.279.334.451s.119.36.119.549v11.667z" />
</svg>