<svg
  width="18"
  height="18"
  viewBox="0 0 18 18"
  color="#000" xmlns="http://www.w3.org/2000/svg"
>
  <path
    fill="currentColor"
    d="M9 14.25c.709 0 1.358-.077 1.949-.211l-1.318-1.318L9 12.75c-4.013 0-5.568-2.885-5.945-3.75a6.48 6.48 0 0 1 1.131-1.723L3.138 6.229c-1.154 1.25-1.591 2.51-1.599 2.534-.052.154-.052.321 0 .475.016.049 1.736 5.012 7.461 5.012zm0-10.5c-1.378 0-2.51.297-3.453.736L2.78 1.72 1.72 2.78l13.5 13.5 1.061-1.061-2.489-2.489c1.96-1.463 2.66-3.461 2.671-3.493.052-.154.052-.321 0-.475C16.445 8.713 14.725 3.75 9 3.75zm3.729 7.919l-1.71-1.71A2.18 2.18 0 0 0 11.25 9c0-1.231-1.019-2.25-2.25-2.25-.344 0-.666.088-.958.232L6.686 5.626C7.431 5.37 8.213 5.243 9 5.25c4.013 0 5.568 2.885 5.945 3.75a6.42 6.42 0 0 1-2.216 2.669z" />
</svg>