<svg
  width="32"
  height="32"
  viewBox="0 0 32 32"
  color="#000" xmlns="http://www.w3.org/2000/svg"
>
  <path
    fill="currentColor"
    d="M12.25 13.75a.75.75 0 0 1-.75.75.75.75 0 0 1-.75-.75.75.75 0 0 1 .75-.75.75.75 0 0 1 .75.75zm0 2.25a.75.75 0 0 1-.75.75.75.75 0 0 1-.75-.75.75.75 0 0 1 .75-.75.75.75 0 0 1 .75.75zm2.25 0a.75.75 0 0 1-.75.75A.75.75 0 0 1 13 16a.75.75 0 0 1 .75-.75.75.75 0 0 1 .75.75zm0-2.25a.75.75 0 0 1-.75.75.75.75 0 0 1-.75-.75.75.75 0 0 1 .75-.75.75.75 0 0 1 .75.75zm2.25 0a.75.75 0 0 1-.75.75.75.75 0 0 1-.75-.75A.75.75 0 0 1 16 13a.75.75 0 0 1 .75.75zm0 2.25a.75.75 0 0 1-.75.75.75.75 0 0 1-.75-.75.75.75 0 0 1 .75-.75.75.75 0 0 1 .75.75zM19 13.75a.75.75 0 0 1-.75.75.75.75 0 0 1-.75-.75.75.75 0 0 1 .75-.75.75.75 0 0 1 .75.75zM19 16a.75.75 0 0 1-.75.75.75.75 0 0 1-.75-.75.75.75 0 0 1 .75-.75.75.75 0 0 1 .75.75zm2.25-2.25a.75.75 0 0 1-.75.75.75.75 0 0 1-.75-.75.75.75 0 0 1 .75-.75.75.75 0 0 1 .75.75zm0 2.25a.75.75 0 0 1-.75.75.75.75 0 0 1-.75-.75.75.75 0 0 1 .75-.75.75.75 0 0 1 .75.75z" />
  <path
    d="M19 10.75c2.121 0 3.182 0 3.841.659s.659 1.72.659 3.841v1.5c0 2.121 0 3.182-.659 3.841s-1.72.659-3.841.659h-6c-2.121 0-3.182 0-3.841-.659S8.5 18.871 8.5 16.75v-1.5c0-2.121 0-3.182.659-3.841s1.72-.659 3.841-.659h3M12.25 19h7.5"
    stroke="currentColor"
    stroke-width="1.5" stroke-linecap="round" fill='transparent' />
</svg>