<svg xmlns="http://www.w3.org/2000/svg" width="42" height="42" fill="none" color="#000"
    viewBox="0 0 42 42"
    xmlns:v="https://vecta.io/nano">
    <path
        d="M29.75 21c0 .945-.175 1.837-.455 2.695l-3.045-3.08a5.35 5.35 0 0 0-4.865-4.865l-3.08-3.045c.858-.28 1.75-.455 2.695-.455 4.83 0 8.75 3.92 8.75 8.75zM17.29 7h7.42l3.203 3.5H35v18.9l3.29 3.29c.14-.367.21-.77.21-1.19v-21A3.49 3.49 0 0 0 35 7h-5.547L26.25 3.5h-10.5L12.565 7l2.485 2.45L17.29 7zm21.403 30.555l-2.223 2.222L31.693 35H7a3.5 3.5 0 0 1-3.5-3.5v-21c0-1.015.438-1.925 1.138-2.555L1.943 5.25l2.24-2.222 34.51 34.527zM15.75 21c0 2.905 2.345 5.25 5.25 5.25.578 0 1.137-.122 1.645-.297l-6.597-6.597c-.175.525-.297 1.067-.297 1.645zm12.442 10.5l-2.905-2.905c-1.277.718-2.73 1.155-4.288 1.155-4.83 0-8.75-3.92-8.75-8.75 0-1.558.438-3.01 1.155-4.288L7.193 10.5H7v21h21.193z"
        fill="currentColor"
        />
</svg>