<svg
   width="32"
   height="32"
   viewBox="0 0 32 32"
   color="#000" xmlns="http://www.w3.org/2000/svg"
>
   <path fill="currentColor"
      d="M22.299 6.738a1.6 1.6 0 0 1 .422 2.223 1.6 1.6 0 0 1-2.223.422 8 8 0 0 0-9.834.656 8 8 0 0 0-1.734 9.702 8 8 0 0 0 8.998 4.022A8 8 0 0 0 24 16a1.6 1.6 0 0 1 1.6-1.6 1.6 1.6 0 0 1 1.6 1.6 11.2 11.2 0 0 1-8.502 10.869A11.2 11.2 0 0 1 6.1 21.236 11.2 11.2 0 0 1 8.53 7.653a11.2 11.2 0 0 1 13.769-.915z" />
   <path fill="currentColor"
      d="M21.662 20.01a1.6 1.6 0 0 1-1.206.215 1.6 1.6 0 0 1-1.005-.701 1.6 1.6 0 0 1-.215-1.206 1.6 1.6 0 0 1 .701-1.005l5.571-3.563a1.6 1.6 0 0 1 2.19.499 1.6 1.6 0 0 1-.467 2.197l-5.57 3.563z" />
   <path fill="currentColor"
      d="M30.245 19.856a1.6 1.6 0 0 1-.821 2.085 1.6 1.6 0 0 1-2.1-.781l-2.413-5.408a1.6 1.6 0 0 1-.052-1.238 1.6 1.6 0 0 1 .848-.904 1.6 1.6 0 0 1 1.239-.028 1.6 1.6 0 0 1 .887.865l2.413 5.408z" />
</svg>