<svg
  width="32"
  height="32"
  viewBox="0 0 32 32"
  color="#000" xmlns="http://www.w3.org/2000/svg"
>
  <path fill="currentColor"
    d="M9.333 23.92a4 4 0 0 0 3.92-3.218 4 4 0 0 0-2.387-4.475c.203-.487.546-.902.985-1.194s.955-.447 1.482-.446h5.333c.94-.004 1.861-.262 2.667-.747v7.653a4 4 0 0 0-2.609 4.448 4 4 0 0 0 3.942 3.324 4 4 0 0 0 3.942-3.324A4 4 0 0 0 24 21.493V10.347a4 4 0 0 0 2.595-4.405 4 4 0 0 0-3.856-3.358 4 4 0 0 0-4.007 3.176 4 4 0 0 0 2.388 4.521 2.67 2.67 0 0 1-.979 1.19c-.436.292-.949.448-1.474.45h-5.333c-1.22 0-2.403.419-3.351 1.185s-1.606 1.835-1.862 3.028a4 4 0 0 0-2.665 4.403 4 4 0 0 0 3.879 3.384zm13.333 2.667c-.264 0-.521-.078-.741-.225s-.39-.355-.491-.598-.127-.512-.076-.77.178-.496.365-.683.424-.314.683-.365.527-.025.77.076.452.272.598.491a1.33 1.33 0 0 1 .225.741c0 .354-.14.693-.391.943s-.589.39-.943.39zm0-21.333c.264 0 .521.078.741.225s.39.355.491.598.127.512.076.77-.178.496-.365.683-.424.313-.683.365-.527.025-.77-.076-.452-.272-.598-.491-.225-.477-.225-.741c0-.354.14-.693.39-.943s.589-.391.943-.391zM9.333 18.587a1.33 1.33 0 0 1 .741.225c.219.146.39.355.491.598s.127.512.076.77-.178.496-.365.683-.424.313-.683.365-.527.025-.77-.076-.452-.272-.598-.491S8 20.184 8 19.92c0-.354.14-.693.391-.943s.589-.391.943-.391z" />
</svg>