<svg
  width="24"
  height="24"
  viewBox="0 0 24 24"
  color="#000" xmlns="http://www.w3.org/2000/svg"
>
  <path
    fill="currentColor"
    d="M12 0a12 12 0 0 1 12 12 12 12 0 0 1-12 12A12 12 0 0 1 0 12 12 12 0 0 1 12 0zM2.25 12A9.75 9.75 0 0 0 12 21.75 9.75 9.75 0 0 0 21.75 12 9.75 9.75 0 0 0 12 2.25 9.75 9.75 0 0 0 2.25 12zm7.319-4.159l6.396 3.839c.055.033.101.08.133.137s.048.12.048.184-.017.128-.048.184-.077.103-.133.137L9.569 16.16c-.057.034-.122.053-.188.054s-.132-.016-.19-.048-.106-.08-.139-.137S9 15.905 9 15.839V8.163c0-.067.017-.132.051-.189s.081-.105.139-.138.123-.05.19-.049.132.019.189.054z" />
</svg>