<svg
  width="24"
  height="24"
  viewBox="0 0 24 24"
  color="#000" xmlns="http://www.w3.org/2000/svg"
>
  <path
    fill="currentColor"
    d="M19.6 21l-6.3-6.3c-.5.4-1.075.717-1.725.95S10.233 16 9.5 16c-1.817 0-3.354-.629-4.612-1.888S3.001 11.316 3 9.5s.629-3.354 1.888-4.612S7.684 3.001 9.5 3s3.354.629 4.613 1.888S16.001 7.684 16 9.5c0 .733-.117 1.425-.35 2.075S15.1 12.8 14.7 13.3l6.3 6.3-1.4 1.4zM9.5 14a4.34 4.34 0 0 0 3.188-1.312c.875-.875 1.313-1.937 1.312-3.188s-.437-2.312-1.312-3.187A4.34 4.34 0 0 0 9.5 5c-1.25 0-2.312.438-3.187 1.313A4.34 4.34 0 0 0 5 9.5c0 1.25.438 2.313 1.313 3.188S8.251 14.001 9.5 14z" />
</svg>