<svg
  width="32"
  height="32"
  viewBox="0 0 32 32"
  color="#000" xmlns="http://www.w3.org/2000/svg"
>
  <path
    stroke="currentColor"
    stroke-width="1.5"
    stroke-linecap="round"
    fill="transparent"
    d="M16 14.5v3m-1.299-2.25l2.598 1.5m0-1.5l-2.599 1.5m-2.651-2.25v3m-1.299-2.25l2.598 1.5m0-1.5l-2.598 1.5m9.201-2.25v3m-1.299-2.25l2.598 1.5m0-1.5l-2.599 1.5M23.5 16c0 2.828 0 4.243-.879 5.121S20.328 22 17.5 22h-3c-2.828 0-4.243 0-5.121-.879S8.5 18.828 8.5 16s0-4.243.879-5.121S11.672 10 14.5 10h3c2.828 0 4.243 0 5.121.879.491.49.707 1.146.803 2.121"
  />
</svg>