<svg
  width="42"
  height="42"
  viewBox="0 0 42 42"
  color="#000" xmlns="http://www.w3.org/2000/svg"
>
  <path
    fill="currentColor"
    d="M34.825 22.155a1.75 1.75 0 0 1 0-2.31l2.24-2.52a1.75 1.75 0 0 0 .21-2.047l-3.5-6.055a1.75 1.75 0 0 0-1.873-.84l-3.29.665A1.75 1.75 0 0 1 26.6 7.892L25.533 4.69A1.75 1.75 0 0 0 23.87 3.5h-7a1.75 1.75 0 0 0-1.75 1.19l-.98 3.202a1.75 1.75 0 0 1-2.013 1.155L8.75 8.382a1.75 1.75 0 0 0-1.75.84l-3.5 6.055a1.75 1.75 0 0 0 .175 2.047l2.223 2.52a1.75 1.75 0 0 1 0 2.31l-2.222 2.52a1.75 1.75 0 0 0-.175 2.047L7 32.777a1.75 1.75 0 0 0 1.872.84l3.29-.665a1.75 1.75 0 0 1 2.013 1.155l1.067 3.203a1.75 1.75 0 0 0 1.75 1.19h7a1.75 1.75 0 0 0 1.663-1.19l1.067-3.203a1.75 1.75 0 0 1 2.012-1.155l3.29.665a1.75 1.75 0 0 0 1.872-.84l3.5-6.055a1.75 1.75 0 0 0-.21-2.047l-2.363-2.52zM32.218 24.5l1.4 1.575-2.24 3.885-2.065-.42a5.25 5.25 0 0 0-6.038 3.5L22.61 35h-4.48l-.63-1.995a5.25 5.25 0 0 0-6.037-3.5l-2.065.42-2.275-3.867 1.4-1.575a5.25 5.25 0 0 0 0-7l-1.4-1.575 2.24-3.85 2.065.42a5.25 5.25 0 0 0 6.038-3.5L18.13 7h4.48l.665 1.995a5.25 5.25 0 0 0 6.038 3.5l2.065-.42 2.24 3.885-1.4 1.575a5.25 5.25 0 0 0 0 6.965zM20.37 14a7 7 0 0 0-6.467 4.321 7 7 0 0 0 1.517 7.628 7 7 0 0 0 7.629 1.517A7 7 0 0 0 27.37 21a7 7 0 0 0-7-7zm0 10.5a3.5 3.5 0 0 1-3.234-2.161 3.5 3.5 0 0 1 .759-3.814 3.5 3.5 0 0 1 3.814-.759A3.5 3.5 0 0 1 23.87 21a3.5 3.5 0 0 1-3.5 3.5z" />
</svg>