<svg width="20" height="20" viewBox="0 0 20 20" fill="none" xmlns="http://www.w3.org/2000/svg" color="#000">
    <path
        d="M10.6406 3.87891H10.6514C12.7095 3.9464 14.5619 4.67715 15.8867 5.81445L16.1348 6.03613C17.3409 7.16989 18.0506 8.66086 18.0029 10.2832V10.2842C17.9685 11.3002 17.6417 12.2847 17.0625 13.1201C16.4433 14.014 15.6185 14.7465 14.6572 15.2549L14.6562 15.2539C13.5747 15.8448 12.3837 16.2077 11.1562 16.3193H11.1553C10.0421 16.4167 8.92183 16.2678 7.87207 15.8857L3.84961 17.0908L3.60254 17.165L3.69727 16.9258L4.82227 14.0898C4.31297 13.6487 3.8796 13.1266 3.54199 12.543C3.01216 11.6242 2.78944 10.5601 2.90527 9.50586V9.50488C3.02806 8.46053 3.44428 7.47215 4.10645 6.65527C4.65934 5.9678 5.3399 5.39367 6.11035 4.96387L6.36621 4.82617C6.96874 4.51498 7.60754 4.27878 8.26855 4.12402C9.04499 3.93878 9.84271 3.85667 10.6406 3.87891ZM10.5566 4.85449C9.86295 4.84054 9.17009 4.91386 8.49512 5.0752V5.07617C7.9117 5.21238 7.34712 5.41967 6.81543 5.69434L6.58984 5.81641C5.92963 6.18568 5.34666 6.6787 4.87305 7.26855L4.87207 7.26953C4.32693 7.94081 3.98307 8.75276 3.87988 9.61133C3.78726 10.4592 3.96669 11.3147 4.39258 12.0537L4.52539 12.2676C4.84545 12.7586 5.24587 13.1931 5.71094 13.5518L5.71289 13.5527L5.92578 13.7217L5.99902 13.7793L5.96387 13.8652L5.25879 15.6406L7.86426 14.8574L7.90527 14.8447L7.94531 14.8604L8.06641 14.9062H8.06738C8.90463 15.2325 9.79786 15.3856 10.6934 15.3574L11.0771 15.334C12.171 15.2339 13.2326 14.9097 14.1953 14.3809L14.1973 14.3799C15.0168 13.9502 15.7221 13.3305 16.2539 12.5732L16.4219 12.3125C16.7901 11.6904 16.9973 10.9844 17.0234 10.2588V9.99609C16.9788 8.68809 16.3181 7.47926 15.251 6.56348C14.0887 5.56381 12.4536 4.91721 10.625 4.8623L10.5605 4.86035L10.5566 4.85449ZM7.34375 8.96484C7.55478 8.96486 7.76106 9.02729 7.93652 9.14453C8.11187 9.26173 8.24834 9.42822 8.3291 9.62305C8.4098 9.81787 8.43166 10.0324 8.39062 10.2393C8.34947 10.4462 8.24777 10.6369 8.09863 10.7861C7.9494 10.9354 7.75876 11.037 7.55176 11.0781C7.34488 11.1193 7.13044 11.0982 6.93555 11.0176C6.74056 10.9368 6.57331 10.7995 6.45605 10.624C6.33898 10.4486 6.27637 10.2421 6.27637 10.0312C6.27676 9.74844 6.38986 9.47733 6.58984 9.27734C6.78984 9.07744 7.06097 8.96521 7.34375 8.96484ZM10.4541 8.96484C10.6652 8.96457 10.8722 9.02646 11.0479 9.14355C11.2234 9.26062 11.3604 9.42719 11.4414 9.62207C11.5224 9.81703 11.5439 10.0322 11.5029 10.2393C11.4619 10.4461 11.3599 10.6359 11.2109 10.7852C11.0618 10.9345 10.8711 11.0368 10.6641 11.0781C10.4572 11.1193 10.2428 11.0982 10.0479 11.0176C9.85286 10.9369 9.68567 10.8004 9.56836 10.625C9.45104 10.4495 9.38867 10.2424 9.38867 10.0312C9.38875 9.74858 9.50142 9.47736 9.70117 9.27734C9.9009 9.07751 10.1716 8.96529 10.4541 8.96484ZM13.5664 8.96484C13.7775 8.96457 13.9845 9.02646 14.1602 9.14355C14.3357 9.26063 14.4728 9.42721 14.5537 9.62207C14.6347 9.81703 14.6553 10.0322 14.6143 10.2393C14.5732 10.446 14.4721 10.6359 14.3232 10.7852C14.1741 10.9345 13.9834 11.0368 13.7764 11.0781C13.5695 11.1193 13.3551 11.0982 13.1602 11.0176C12.9652 10.9369 12.798 10.8004 12.6807 10.625C12.5633 10.4495 12.501 10.2424 12.501 10.0312C12.5011 9.74863 12.6128 9.47735 12.8125 9.27734C13.0123 9.07729 13.2837 8.96524 13.5664 8.96484Z"
        fill="currentColor" stroke="currentColor" stroke-width="0.25" />
</svg>