<svg
  width="24"
  height="24"
  viewBox="0 0 24 24"
  color="#000" xmlns="http://www.w3.org/2000/svg"
>
  <path
    fill="currentColor"
    d="M21.47 16.563l-1.487-.867a4.13 4.13 0 0 1 .909-.702c.218-.123.381-.325.454-.565.07-.245.04-.507-.083-.73s-.326-.385-.564-.468c-.245-.07-.507-.04-.73.083a5.96 5.96 0 0 0-1.694 1.377l-3.855-2.231 3.855-2.217a5.96 5.96 0 0 0 1.694 1.377c.112.057.233.094.358.11s.249.021.372 0c.121-.037.233-.098.33-.179.11-.069.197-.17.248-.289a.84.84 0 0 0 .11-.358c.027-.122.027-.249 0-.372a.96.96 0 0 0-.179-.331.84.84 0 0 0-.289-.248 3.73 3.73 0 0 1-.909-.702l1.487-.854c.108-.067.206-.151.289-.248.081-.102.142-.219.179-.344a.98.98 0 0 0-.096-.744.99.99 0 0 0-.248-.289c-.118-.061-.243-.108-.372-.138a1.21 1.21 0 0 0-.386 0 1.13 1.13 0 0 0-.358.138l-1.487.854a3.58 3.58 0 0 1-.151-1.143c.002-.127-.022-.254-.069-.372s-.117-.226-.207-.317c-.083-.092-.187-.163-.303-.207-.116-.056-.243-.084-.372-.083-.252 0-.494.099-.675.275-.09.086-.161.188-.211.301s-.076.236-.078.359a5.77 5.77 0 0 0 .372 2.162l-3.869 2.162V6.374c.729-.125 1.428-.382 2.065-.757.217-.134.374-.346.441-.592.054-.249.015-.508-.11-.73a.95.95 0 0 0-.592-.413.91.91 0 0 0-.73.11 4.31 4.31 0 0 1-1.074.441V2.945c0-.252-.099-.495-.275-.675-.136-.13-.308-.218-.493-.254a.98.98 0 0 0-.985.402.98.98 0 0 0-.175.526v1.46c-.372-.098-.729-.246-1.06-.441a.91.91 0 0 0-.73-.083.95.95 0 0 0-.592.441c-.065.108-.109.229-.128.354s-.013.253.018.376a.95.95 0 0 0 .441.592c.632.375 1.327.632 2.051.757v4.365L7.674 8.591a6.06 6.06 0 0 0 .386-2.162c-.007-.251-.112-.489-.292-.664s-.421-.273-.672-.272a1.03 1.03 0 0 0-.358 0c-.119.052-.226.127-.317.22-.084.095-.154.201-.207.317a.87.87 0 0 0 0 .372 4.57 4.57 0 0 1-.151 1.143l-1.57-.785c-.109-.068-.231-.11-.358-.124a.91.91 0 0 0-.386 0 1.24 1.24 0 0 0-.33.165c-.105.079-.193.177-.262.289a1.09 1.09 0 0 0-.11.372.84.84 0 0 0 0 .372c.037.125.098.242.179.344.083.097.181.18.289.248l1.487.854a3.8 3.8 0 0 1-.922.702c-.108.067-.206.151-.289.248s-.142.21-.179.331a1.13 1.13 0 0 0 0 .372.99.99 0 0 0 .11.358.87.87 0 0 0 .248.289c.102.081.219.142.344.179.123.021.249.021.372 0a1.09 1.09 0 0 0 .358-.11 5.89 5.89 0 0 0 1.68-1.377l3.855 2.217-3.855 2.231a5.92 5.92 0 0 0-1.694-1.377c-.109-.068-.231-.11-.358-.124-.123-.021-.249-.021-.372 0-.125.037-.242.098-.344.179a1.25 1.25 0 0 0-.248.289 1.09 1.09 0 0 0-.11.358.87.87 0 0 0 0 .372.88.88 0 0 0 .165.344c.08.097.178.176.289.234a4.13 4.13 0 0 1 .922.702l-1.487.867c-.114.059-.213.144-.289.248-.081.097-.142.21-.179.331a.91.91 0 0 0 0 .386 1.09 1.09 0 0 0 .11.358.84.84 0 0 0 .262.275c.095.082.208.138.33.165a.92.92 0 0 0 .386 0c.127-.014.249-.056.358-.124l1.487-.868a4.6 4.6 0 0 1 .151 1.157c-.006.124.015.249.06.365s.114.222.202.31a.99.99 0 0 0 .675.303c.251-.008.49-.106.675-.275.177-.18.275-.422.275-.675a5.77 5.77 0 0 0-.372-2.162l3.855-2.231v4.489a5.51 5.51 0 0 0-2.052.757c-.11.063-.206.148-.282.25a.92.92 0 0 0-.159.342c-.03.123-.036.251-.018.376s.062.245.128.354c.135.213.347.366.592.427.123.034.251.041.377.022a.91.91 0 0 0 .353-.133 4.21 4.21 0 0 1 1.06-.441v1.46a.95.95 0 0 0 .289.675c.089.093.195.168.314.218a.95.95 0 0 0 .749 0 .95.95 0 0 0 .314-.218c.089-.088.159-.194.206-.309s.071-.24.069-.365v-1.46c.376.098.737.246 1.074.441a.91.91 0 0 0 .353.133c.126.019.254.011.377-.022.245-.06.457-.213.592-.427.125-.221.165-.481.11-.73-.031-.123-.086-.238-.161-.34s-.171-.187-.279-.252a5.59 5.59 0 0 0-2.065-.757v-4.461l3.855 2.231c-.261.69-.387 1.424-.372 2.162a.98.98 0 0 0 .289.675c.18.177.422.275.675.275.129.002.256-.027.372-.083a.95.95 0 0 0 .303-.22.7.7 0 0 0 .207-.317c.029-.122.029-.25 0-.372a3.58 3.58 0 0 1 .151-1.143l1.487.867a1.13 1.13 0 0 0 .358.138.99.99 0 0 0 .744-.179c.097-.083.18-.181.248-.289s.112-.24.124-.372a1.21 1.21 0 0 0 0-.386 1.17 1.17 0 0 0-.179-.344.99.99 0 0 0-.206-.234z" />
</svg>