<svg
  width="32"
  height="32"
  viewBox="0 0 32 32"
  color="#000" xmlns="http://www.w3.org/2000/svg"
>
  <path fill="currentColor"
    fill-rule="evenodd"
    d="M23.029 9.247c.529.353.677 1.077.331 1.617l-7.775 12.154c-.091.142-.21.261-.351.351a1.13 1.13 0 0 1-.462.169 1.12 1.12 0 0 1-.489-.045 1.14 1.14 0 0 1-.425-.25l-5.031-4.674a1.18 1.18 0 0 1-.373-.809c-.014-.31.092-.613.296-.842s.489-.367.792-.381a1.13 1.13 0 0 1 .824.303l4.04 3.753 7.042-11.006c.166-.259.426-.441.723-.504s.606-.004.86.166z" />
  <circle cx="16" cy="16" r="15" stroke="currentColor" stroke-width="2" fill="transparent" />
</svg>