<svg
   width="24"
   height="24"
   viewBox="0 0 24 24"
   color="#000" xmlns="http://www.w3.org/2000/svg"
>
   <path fill="currentColor"
      opacity=".2"
      d="M17.25 12a5.25 5.25 0 0 1-3.241 4.85 5.25 5.25 0 0 1-5.721-1.138A5.25 5.25 0 0 1 7.15 9.991 5.25 5.25 0 0 1 12 6.75 5.25 5.25 0 0 1 17.25 12z" />
   <path fill="currentColor"
      d="M11.25 3.75V1.5A.75.75 0 0 1 12 .75a.75.75 0 0 1 .75.75v2.25a.75.75 0 0 1-.75.75.75.75 0 0 1-.75-.75zM18 12a6 6 0 0 1-3.704 5.543 6 6 0 0 1-6.539-1.301 6 6 0 0 1-1.301-6.539A6 6 0 0 1 12 6c1.591.002 3.116.634 4.241 1.759S17.998 10.409 18 12zm-1.5 0a4.5 4.5 0 0 0-2.778-4.157 4.5 4.5 0 0 0-4.904.975 4.5 4.5 0 0 0-.975 4.904A4.5 4.5 0 0 0 12 16.5c1.193-.001 2.337-.476 3.181-1.319S16.499 13.193 16.5 12zM5.469 6.531a.75.75 0 0 0 1.061 0 .75.75 0 0 0 0-1.061l-1.5-1.5a.75.75 0 0 0-1.061 0 .75.75 0 0 0 0 1.061l1.5 1.5zm0 10.939l-1.5 1.5a.75.75 0 0 0 0 1.061.75.75 0 0 0 1.061 0l1.5-1.5A.75.75 0 0 0 6.75 18a.75.75 0 0 0-.22-.531.75.75 0 0 0-.531-.22.75.75 0 0 0-.531.22zM18 6.75a.75.75 0 0 0 .531-.219l1.5-1.5a.75.75 0 0 0 0-1.061.75.75 0 0 0-1.061 0l-1.5 1.5a.75.75 0 0 0-.163.818.75.75 0 0 0 .694.463zm.531 10.719a.75.75 0 0 0-1.061 0 .75.75 0 0 0 0 1.061l1.5 1.5a.75.75 0 0 0 .531.22.75.75 0 0 0 .531-.22.75.75 0 0 0 .22-.531.75.75 0 0 0-.22-.531l-1.5-1.5zM4.5 12a.75.75 0 0 0-.75-.75H1.5a.75.75 0 0 0-.75.75.75.75 0 0 0 .75.75h2.25A.75.75 0 0 0 4.5 12zm7.5 7.5a.75.75 0 0 0-.75.75v2.25a.75.75 0 0 0 .75.75.75.75 0 0 0 .75-.75v-2.25a.75.75 0 0 0-.75-.75zm10.5-8.25h-2.25a.75.75 0 0 0-.75.75.75.75 0 0 0 .75.75h2.25a.75.75 0 0 0 .75-.75.75.75 0 0 0-.75-.75z" />
</svg>