<svg width="25" height="24" viewBox="0 0 25 24" fill="none" xmlns="http://www.w3.org/2000/svg" color="#000">
<path opacity="0.2" d="M17.5835 12C17.5835 13.0384 17.2756 14.0534 16.6987 14.9167C16.1218 15.7801 15.3019 16.453 14.3426 16.8504C13.3833 17.2477 12.3277 17.3517 11.3093 17.1491C10.2909 16.9466 9.35541 16.4465 8.62119 15.7123C7.88696 14.9781 7.38695 14.0426 7.18438 13.0242C6.9818 12.0058 7.08577 10.9502 7.48313 9.99091C7.88049 9.0316 8.5534 8.21166 9.41675 7.63478C10.2801 7.05791 11.2951 6.75 12.3335 6.75C13.7259 6.75 15.0612 7.30312 16.0458 8.28769C17.0304 9.27226 17.5835 10.6076 17.5835 12Z" fill="currentColor"/>
<path d="M11.5835 3.75V1.5C11.5835 1.30109 11.6625 1.11032 11.8032 0.96967C11.9438 0.829018 12.1346 0.75 12.3335 0.75C12.5324 0.75 12.7232 0.829018 12.8638 0.96967C13.0045 1.11032 13.0835 1.30109 13.0835 1.5V3.75C13.0835 3.94891 13.0045 4.13968 12.8638 4.28033C12.7232 4.42098 12.5324 4.5 12.3335 4.5C12.1346 4.5 11.9438 4.42098 11.8032 4.28033C11.6625 4.13968 11.5835 3.94891 11.5835 3.75ZM18.3335 12C18.3335 13.1867 17.9816 14.3467 17.3223 15.3334C16.663 16.3201 15.726 17.0892 14.6296 17.5433C13.5332 17.9974 12.3268 18.1162 11.163 17.8847C9.99907 17.6532 8.92997 17.0818 8.09086 16.2426C7.25174 15.4035 6.6803 14.3344 6.44878 13.1705C6.21727 12.0067 6.33609 10.8003 6.79022 9.7039C7.24434 8.60754 8.01338 7.67047 9.00007 7.01118C9.98677 6.35189 11.1468 6 12.3335 6C13.9243 6.00174 15.4494 6.63444 16.5742 7.75928C17.6991 8.88412 18.3318 10.4092 18.3335 12ZM16.8335 12C16.8335 11.11 16.5696 10.24 16.0751 9.49993C15.5806 8.75991 14.8778 8.18314 14.0556 7.84254C13.2333 7.50195 12.3285 7.41283 11.4556 7.58647C10.5827 7.7601 9.78085 8.18868 9.15152 8.81802C8.52218 9.44736 8.0936 10.2492 7.91996 11.1221C7.74633 11.995 7.83544 12.8998 8.17604 13.7221C8.51663 14.5443 9.09341 15.2471 9.83343 15.7416C10.5735 16.2361 11.4435 16.5 12.3335 16.5C13.5266 16.4988 14.6705 16.0243 15.5141 15.1806C16.3578 14.337 16.8323 13.1931 16.8335 12ZM5.80287 6.53063C5.9436 6.67136 6.13447 6.75042 6.3335 6.75042C6.53252 6.75042 6.72339 6.67136 6.86412 6.53062C7.00485 6.38989 7.08391 6.19902 7.08391 6C7.08391 5.80098 7.00485 5.61011 6.86412 5.46938L5.36412 3.96938C5.22339 3.82864 5.03252 3.74958 4.8335 3.74958C4.63447 3.74958 4.4436 3.82864 4.30287 3.96938C4.16214 4.11011 4.08308 4.30098 4.08308 4.5C4.08308 4.69902 4.16214 4.88989 4.30287 5.03062L5.80287 6.53063ZM5.80287 17.4694L4.30287 18.9694C4.16214 19.1101 4.08308 19.301 4.08308 19.5C4.08308 19.699 4.16214 19.8899 4.30287 20.0306C4.4436 20.1714 4.63447 20.2504 4.8335 20.2504C5.03252 20.2504 5.22339 20.1714 5.36412 20.0306L6.86412 18.5306C6.9338 18.4609 6.98908 18.3782 7.02679 18.2872C7.0645 18.1961 7.08391 18.0985 7.08391 18C7.08391 17.9015 7.0645 17.8039 7.02679 17.7128C6.98908 17.6218 6.9338 17.5391 6.86412 17.4694C6.79444 17.3997 6.71171 17.3444 6.62067 17.3067C6.52962 17.269 6.43204 17.2496 6.3335 17.2496C6.23495 17.2496 6.13737 17.269 6.04632 17.3067C5.95528 17.3444 5.87255 17.3997 5.80287 17.4694ZM18.3335 6.75C18.432 6.75008 18.5296 6.73074 18.6206 6.6931C18.7117 6.65546 18.7944 6.60025 18.8641 6.53063L20.3641 5.03062C20.5049 4.88989 20.5839 4.69902 20.5839 4.5C20.5839 4.30098 20.5049 4.11011 20.3641 3.96938C20.2234 3.82864 20.0325 3.74958 19.8335 3.74958C19.6345 3.74958 19.4436 3.82864 19.3029 3.96938L17.8029 5.46938C17.6979 5.57427 17.6263 5.70796 17.5973 5.85352C17.5684 5.99908 17.5832 6.14998 17.64 6.28709C17.6968 6.42421 17.7931 6.54139 17.9165 6.62379C18.04 6.70619 18.1851 6.75012 18.3335 6.75ZM18.8641 17.4694C18.7234 17.3286 18.5325 17.2496 18.3335 17.2496C18.1345 17.2496 17.9436 17.3286 17.8029 17.4694C17.6621 17.6101 17.5831 17.801 17.5831 18C17.5831 18.199 17.6621 18.3899 17.8029 18.5306L19.3029 20.0306C19.3726 20.1003 19.4553 20.1556 19.5463 20.1933C19.6374 20.231 19.7349 20.2504 19.8335 20.2504C19.932 20.2504 20.0296 20.231 20.1207 20.1933C20.2117 20.1556 20.2944 20.1003 20.3641 20.0306C20.4338 19.9609 20.4891 19.8782 20.5268 19.7872C20.5645 19.6961 20.5839 19.5985 20.5839 19.5C20.5839 19.4015 20.5645 19.3039 20.5268 19.2128C20.4891 19.1218 20.4338 19.0391 20.3641 18.9694L18.8641 17.4694ZM4.8335 12C4.8335 11.8011 4.75448 11.6103 4.61383 11.4697C4.47317 11.329 4.28241 11.25 4.0835 11.25H1.8335C1.63458 11.25 1.44382 11.329 1.30317 11.4697C1.16251 11.6103 1.0835 11.8011 1.0835 12C1.0835 12.1989 1.16251 12.3897 1.30317 12.5303C1.44382 12.671 1.63458 12.75 1.8335 12.75H4.0835C4.28241 12.75 4.47317 12.671 4.61383 12.5303C4.75448 12.3897 4.8335 12.1989 4.8335 12ZM12.3335 19.5C12.1346 19.5 11.9438 19.579 11.8032 19.7197C11.6625 19.8603 11.5835 20.0511 11.5835 20.25V22.5C11.5835 22.6989 11.6625 22.8897 11.8032 23.0303C11.9438 23.171 12.1346 23.25 12.3335 23.25C12.5324 23.25 12.7232 23.171 12.8638 23.0303C13.0045 22.8897 13.0835 22.6989 13.0835 22.5V20.25C13.0835 20.0511 13.0045 19.8603 12.8638 19.7197C12.7232 19.579 12.5324 19.5 12.3335 19.5ZM22.8335 11.25H20.5835C20.3846 11.25 20.1938 11.329 20.0532 11.4697C19.9125 11.6103 19.8335 11.8011 19.8335 12C19.8335 12.1989 19.9125 12.3897 20.0532 12.5303C20.1938 12.671 20.3846 12.75 20.5835 12.75H22.8335C23.0324 12.75 23.2232 12.671 23.3638 12.5303C23.5045 12.3897 23.5835 12.1989 23.5835 12C23.5835 11.8011 23.5045 11.6103 23.3638 11.4697C23.2232 11.329 23.0324 11.25 22.8335 11.25Z" fill="currentColor"/>
</svg>
