<svg
  width="32"
  height="32"
  viewBox="0 0 32 32"
  color="#000" xmlns="http://www.w3.org/2000/svg"
>
  <path fill="currentColor"
    d="M13.328 10.234h-.141c.077 0 .141-.063.141-.141v.141zm0 0h5.344v-.141c0 .077.063.141.141.141h-.141V11.5h1.266v-1.406c0-.621-.505-1.125-1.125-1.125h-5.625c-.62 0-1.125.504-1.125 1.125V11.5h1.266v-1.266zm8.859 1.266H9.813a.56.56 0 0 0-.562.563v.563c0 .077.063.141.141.141h1.062l.434 9.193c.028.599.524 1.072 1.123 1.072h7.98c.601 0 1.095-.471 1.123-1.072l.434-9.193h1.062c.077 0 .141-.063.141-.141v-.562a.56.56 0 0 0-.562-.562zm-2.333 10.266h-7.71l-.425-9h8.561l-.425 9z" />
</svg>