<svg
  width="18"
  height="18"
  viewBox="0 0 18 18"
  color="#000" xmlns="http://www.w3.org/2000/svg"
>
  <path fill="currentColor"
    d="M9 6.75c-.596.004-1.166.242-1.587.663S6.754 8.404 6.75 9c0 1.232 1.019 2.25 2.25 2.25s2.25-1.018 2.25-2.25S10.231 6.75 9 6.75zm0-3c-5.725 0-7.445 4.963-7.461 5.013L1.459 9l.079.237c.017.05 1.737 5.013 7.462 5.013s7.445-4.963 7.461-5.013l.08-.237-.079-.237C16.445 8.713 14.725 3.75 9 3.75zm0 9c-4.013 0-5.568-2.884-5.944-3.75C3.433 8.132 4.989 5.25 9 5.25A6.26 6.26 0 0 1 14.945 9 6.26 6.26 0 0 1 9 12.75z" />
</svg>